<svg width="252" height="32" viewBox="0 0 252 32" fill="none" xmlns="http://www.w3.org/2000/svg">
<path d="M69.2578 20.7344C68.8542 21.5026 68.3138 22.1146 67.6367 22.5703C66.9596 23.026 66.1816 23.2539 65.3027 23.2539C64.528 23.2539 63.8477 23.1172 63.2617 22.8438C62.6823 22.5703 62.2038 22.1992 61.8262 21.7305C61.4486 21.2617 61.1654 20.7148 60.9766 20.0898C60.7943 19.4648 60.7031 18.804 60.7031 18.1074C60.7031 17.4824 60.8008 16.8704 60.9961 16.2715C61.1979 15.666 61.4909 15.1224 61.875 14.6406C62.2461 14.1784 62.7051 13.8073 63.252 13.5273C63.8053 13.2409 64.4238 13.0977 65.1074 13.0977C65.8105 13.0977 66.4128 13.2083 66.9141 13.4297C67.4154 13.651 67.8223 13.9538 68.1348 14.3379C68.4342 14.7025 68.6556 15.1322 68.7988 15.627C68.9486 16.1217 69.0234 16.6589 69.0234 17.2383V17.8828H62.6465C62.6465 18.5143 62.7051 19.0872 62.8223 19.6016C62.946 20.1159 63.138 20.5684 63.3984 20.959C63.6523 21.3366 63.9844 21.6361 64.3945 21.8574C64.8047 22.0723 65.293 22.1797 65.8594 22.1797C66.4388 22.1797 66.9368 22.0462 67.3535 21.7793C67.7767 21.5059 68.1836 21.0176 68.5742 20.3145L69.2578 20.7344ZM67.0996 17.0625C67.0996 16.6979 67.0671 16.3073 67.002 15.8906C66.9434 15.474 66.8457 15.1257 66.709 14.8457C66.5592 14.5462 66.3542 14.3021 66.0938 14.1133C65.8333 13.9245 65.498 13.8301 65.0879 13.8301C64.4043 13.8301 63.8346 14.1165 63.3789 14.6895C62.9297 15.2559 62.6855 16.0469 62.6465 17.0625H67.0996ZM88.0652 23H83.368V22.3555C83.5177 22.3424 83.6674 22.3294 83.8172 22.3164C83.9734 22.3034 84.1102 22.2773 84.2273 22.2383C84.4096 22.1797 84.5431 22.0788 84.6277 21.9355C84.7189 21.7858 84.7645 21.5938 84.7645 21.3594V16.3887C84.7645 15.7116 84.6082 15.1908 84.2957 14.8262C83.9897 14.4551 83.6056 14.2695 83.1434 14.2695C82.8243 14.2695 82.5249 14.3184 82.2449 14.416C81.965 14.5137 81.7078 14.6504 81.4734 14.8262C81.2846 14.9694 81.1251 15.1257 80.9949 15.2949C80.8712 15.4577 80.7768 15.5944 80.7117 15.7051V21.2617C80.7117 21.4896 80.7508 21.6784 80.8289 21.8281C80.907 21.9714 81.0405 22.082 81.2293 22.1602C81.379 22.2188 81.5125 22.2643 81.6297 22.2969C81.7534 22.3229 81.9129 22.3424 82.1082 22.3555V23H77.5086V22.3555C77.6583 22.3424 77.8016 22.3294 77.9383 22.3164C78.0815 22.3034 78.2117 22.2773 78.3289 22.2383C78.5112 22.1797 78.6447 22.0788 78.7293 21.9355C78.8204 21.7858 78.866 21.5938 78.866 21.3594V16.3887C78.866 15.7116 78.7098 15.1908 78.3973 14.8262C78.0913 14.4551 77.7072 14.2695 77.2449 14.2695C76.9259 14.2695 76.6264 14.3216 76.3465 14.4258C76.0665 14.5234 75.8094 14.6602 75.575 14.8359C75.3862 14.9792 75.2267 15.1419 75.0965 15.3242C74.9663 15.5 74.8686 15.6335 74.8035 15.7246V21.2422C74.8035 21.4635 74.8491 21.6491 74.9402 21.7988C75.0314 21.9486 75.1681 22.0625 75.3504 22.1406C75.4871 22.2057 75.6271 22.2546 75.7703 22.2871C75.9135 22.3197 76.073 22.3424 76.2488 22.3555V23H71.5711V22.3555C71.7208 22.3424 71.8738 22.3294 72.0301 22.3164C72.1928 22.3034 72.3328 22.2773 72.45 22.2383C72.6323 22.1797 72.7658 22.0788 72.8504 21.9355C72.9415 21.7858 72.9871 21.5938 72.9871 21.3594V15.373C72.9871 15.1647 72.9383 14.9792 72.8406 14.8164C72.7495 14.6471 72.6193 14.5039 72.45 14.3867C72.3263 14.3086 72.1733 14.2467 71.991 14.2012C71.8087 14.1491 71.6199 14.1165 71.4246 14.1035V13.4688L74.6473 13.2539L74.784 13.3906V14.7676H74.8523C75.0151 14.6048 75.2137 14.4128 75.448 14.1914C75.6824 13.9701 75.9005 13.791 76.1023 13.6543C76.3302 13.498 76.6134 13.3678 76.952 13.2637C77.297 13.1595 77.6681 13.1074 78.0652 13.1074C78.6902 13.1074 79.2273 13.2767 79.6766 13.6152C80.1258 13.9473 80.448 14.3509 80.6434 14.8262C80.8777 14.5983 81.0828 14.3997 81.2586 14.2305C81.4409 14.0547 81.6785 13.8691 81.9715 13.6738C82.2189 13.5046 82.5086 13.3678 82.8406 13.2637C83.1792 13.1595 83.5535 13.1074 83.9637 13.1074C84.7775 13.1074 85.422 13.3743 85.8973 13.9082C86.3725 14.4421 86.6102 15.2624 86.6102 16.3691V21.2617C86.6102 21.4896 86.6492 21.6784 86.7273 21.8281C86.8055 21.9714 86.9389 22.082 87.1277 22.1602C87.2775 22.2188 87.424 22.2643 87.5672 22.2969C87.7169 22.3229 87.8829 22.3424 88.0652 22.3555V23ZM99.5094 22.8242C99.2034 22.9349 98.9332 23.0228 98.6988 23.0879C98.471 23.1595 98.2105 23.1953 97.9176 23.1953C97.4098 23.1953 97.0029 23.0781 96.6969 22.8438C96.3974 22.6029 96.2053 22.2546 96.1207 21.7988H96.0621C95.6389 22.2676 95.1832 22.6257 94.6949 22.873C94.2132 23.1204 93.6305 23.2441 92.9469 23.2441C92.2242 23.2441 91.6285 23.0228 91.1598 22.5801C90.6975 22.1374 90.4664 21.5579 90.4664 20.8418C90.4664 20.4707 90.5185 20.1387 90.6227 19.8457C90.7268 19.5527 90.8831 19.2891 91.0914 19.0547C91.2542 18.8594 91.469 18.6868 91.7359 18.5371C92.0029 18.3809 92.2535 18.2572 92.4879 18.166C92.7809 18.0553 93.3733 17.8503 94.2652 17.5508C95.1637 17.2513 95.7691 17.0169 96.0816 16.8477V15.8809C96.0816 15.7962 96.0621 15.6335 96.023 15.3926C95.9905 15.1517 95.9156 14.9238 95.7984 14.709C95.6682 14.4681 95.4827 14.2598 95.2418 14.084C95.0074 13.9017 94.6721 13.8105 94.2359 13.8105C93.9365 13.8105 93.6565 13.8626 93.3961 13.9668C93.1422 14.0645 92.9632 14.1686 92.859 14.2793C92.859 14.4095 92.8883 14.6016 92.9469 14.8555C93.012 15.1094 93.0445 15.3438 93.0445 15.5586C93.0445 15.7865 92.9404 15.9948 92.732 16.1836C92.5302 16.3724 92.247 16.4668 91.8824 16.4668C91.5569 16.4668 91.316 16.3529 91.1598 16.125C91.01 15.8906 90.9352 15.6302 90.9352 15.3438C90.9352 15.0443 91.0393 14.7578 91.2477 14.4844C91.4625 14.2109 91.7392 13.9668 92.0777 13.752C92.3707 13.5697 92.7255 13.4167 93.1422 13.293C93.5589 13.1628 93.9658 13.0977 94.3629 13.0977C94.9098 13.0977 95.385 13.1367 95.7887 13.2148C96.1988 13.2865 96.5699 13.446 96.902 13.6934C97.234 13.9342 97.4846 14.263 97.6539 14.6797C97.8297 15.0898 97.9176 15.6204 97.9176 16.2715C97.9176 17.2025 97.9078 18.0293 97.8883 18.752C97.8687 19.4681 97.859 20.2526 97.859 21.1055C97.859 21.3594 97.9013 21.5612 97.9859 21.7109C98.0771 21.8607 98.2138 21.9876 98.3961 22.0918C98.4937 22.1504 98.6467 22.1829 98.8551 22.1895C99.0699 22.196 99.288 22.1992 99.5094 22.1992V22.8242ZM96.1012 17.668C95.5478 17.8307 95.0628 17.9902 94.6461 18.1465C94.2294 18.3027 93.8421 18.498 93.484 18.7324C93.1585 18.9538 92.9013 19.2174 92.7125 19.5234C92.5237 19.8229 92.4293 20.181 92.4293 20.5977C92.4293 21.138 92.5693 21.5352 92.8492 21.7891C93.1357 22.043 93.497 22.1699 93.9332 22.1699C94.3954 22.1699 94.8023 22.0592 95.1539 21.8379C95.5055 21.61 95.8017 21.3431 96.0426 21.0371L96.1012 17.668ZM106.344 23H101.686V22.3555C101.836 22.3424 101.989 22.3294 102.145 22.3164C102.308 22.3034 102.448 22.2773 102.565 22.2383C102.747 22.1797 102.881 22.0788 102.965 21.9355C103.056 21.7858 103.102 21.5938 103.102 21.3594V15.4121C103.102 15.2038 103.053 15.015 102.955 14.8457C102.864 14.6699 102.734 14.5234 102.565 14.4062C102.441 14.3281 102.262 14.263 102.028 14.2109C101.793 14.1523 101.579 14.1165 101.383 14.1035V13.4688L104.782 13.2539L104.918 13.3906V21.2422C104.918 21.4701 104.961 21.6589 105.045 21.8086C105.136 21.9583 105.276 22.069 105.465 22.1406C105.608 22.1992 105.748 22.248 105.885 22.2871C106.022 22.3197 106.175 22.3424 106.344 22.3555V23ZM105.114 9.45508C105.114 9.82617 104.99 10.1517 104.743 10.4316C104.502 10.7051 104.202 10.8418 103.844 10.8418C103.512 10.8418 103.222 10.7116 102.975 10.4512C102.734 10.1842 102.614 9.88151 102.614 9.54297C102.614 9.1849 102.734 8.8724 102.975 8.60547C103.222 8.33854 103.512 8.20508 103.844 8.20508C104.215 8.20508 104.518 8.33203 104.752 8.58594C104.993 8.83333 105.114 9.12305 105.114 9.45508ZM113.237 23H108.54V22.3555C108.69 22.3424 108.849 22.3294 109.019 22.3164C109.188 22.2969 109.328 22.2708 109.439 22.2383C109.621 22.1797 109.758 22.0788 109.849 21.9355C109.94 21.7858 109.986 21.5938 109.986 21.3594V10.207C109.986 9.97266 109.933 9.75456 109.829 9.55273C109.732 9.3444 109.601 9.18164 109.439 9.06445C109.321 8.98633 109.107 8.91471 108.794 8.84961C108.482 8.78451 108.231 8.74544 108.042 8.73242V8.10742L111.665 7.88281L111.802 8.0293V21.2422C111.802 21.4701 111.844 21.6589 111.929 21.8086C112.014 21.9518 112.15 22.0625 112.339 22.1406C112.482 22.2057 112.622 22.2546 112.759 22.2871C112.902 22.3197 113.062 22.3424 113.237 22.3555V23ZM129.887 24.1621C129.236 24.7285 128.461 25.1842 127.562 25.5293C126.671 25.8809 125.674 26.0566 124.574 26.0566C123.591 26.0566 122.624 25.8971 121.674 25.5781C120.723 25.2656 119.867 24.7871 119.105 24.1426C118.35 23.498 117.742 22.6973 117.279 21.7402C116.817 20.7767 116.586 19.6439 116.586 18.3418C116.586 17.2285 116.794 16.1478 117.211 15.0996C117.628 14.0514 118.223 13.1172 118.998 12.2969C119.747 11.4961 120.671 10.8516 121.771 10.3633C122.878 9.86849 124.083 9.62109 125.385 9.62109C126.511 9.62109 127.488 9.80339 128.314 10.168C129.141 10.526 129.818 11.0013 130.346 11.5938C130.873 12.1797 131.267 12.8535 131.527 13.6152C131.794 14.377 131.928 15.1712 131.928 15.998C131.928 17.5866 131.492 18.931 130.619 20.0312C129.747 21.125 128.643 21.6719 127.309 21.6719C126.755 21.6719 126.286 21.5352 125.902 21.2617C125.518 20.9818 125.303 20.5911 125.258 20.0898L125.189 20.0703C124.877 20.5456 124.519 20.9264 124.115 21.2129C123.718 21.4928 123.314 21.6328 122.904 21.6328C122.637 21.6328 122.364 21.5905 122.084 21.5059C121.811 21.4147 121.566 21.2682 121.352 21.0664C121.137 20.8516 120.964 20.5716 120.834 20.2266C120.71 19.8815 120.648 19.4551 120.648 18.9473C120.648 18.472 120.756 17.9414 120.971 17.3555C121.192 16.763 121.488 16.1999 121.859 15.666C122.23 15.1257 122.709 14.6569 123.295 14.2598C123.887 13.8626 124.525 13.6641 125.209 13.6641C125.574 13.6641 125.896 13.7682 126.176 13.9766C126.462 14.1784 126.638 14.4779 126.703 14.875H126.762L127.182 13.7812H128.637L126.791 19.0352C126.732 19.1979 126.684 19.3867 126.645 19.6016C126.612 19.8099 126.596 19.9759 126.596 20.0996C126.596 20.4316 126.68 20.6758 126.85 20.832C127.019 20.9818 127.237 21.0566 127.504 21.0566C128.513 21.0566 129.356 20.5846 130.033 19.6406C130.71 18.6901 131.049 17.4401 131.049 15.8906C131.049 15.1224 130.928 14.4128 130.688 13.7617C130.447 13.1042 130.079 12.5247 129.584 12.0234C129.109 11.5286 128.51 11.138 127.787 10.8516C127.064 10.5651 126.238 10.4219 125.307 10.4219C124.421 10.4219 123.559 10.5944 122.719 10.9395C121.879 11.2845 121.114 11.7923 120.424 12.4629C119.753 13.1139 119.21 13.9245 118.793 14.8945C118.376 15.8646 118.168 16.9616 118.168 18.1855C118.168 19.3639 118.331 20.4023 118.656 21.3008C118.982 22.1927 119.441 22.9414 120.033 23.5469C120.613 24.1328 121.296 24.5723 122.084 24.8652C122.872 25.1582 123.725 25.3047 124.643 25.3047C125.678 25.3047 126.599 25.1647 127.406 24.8848C128.214 24.6048 128.939 24.1979 129.584 23.6641L129.887 24.1621ZM126.488 15.7539C126.397 15.2266 126.251 14.8424 126.049 14.6016C125.847 14.3607 125.551 14.2402 125.16 14.2402C124.743 14.2402 124.359 14.4095 124.008 14.748C123.663 15.0801 123.37 15.4772 123.129 15.9395C122.875 16.4212 122.676 16.9486 122.533 17.5215C122.396 18.0879 122.328 18.612 122.328 19.0938C122.328 19.6471 122.393 20.0736 122.523 20.373C122.66 20.666 122.882 20.8125 123.188 20.8125C123.63 20.8125 124.027 20.6595 124.379 20.3535C124.73 20.0475 125.059 19.6146 125.365 19.0547L126.488 15.7539ZM149.124 23H145.237C144.488 21.8411 143.655 20.6921 142.737 19.5527C141.826 18.4069 140.869 17.2969 139.866 16.2227H139.612V21.0469C139.612 21.2617 139.651 21.4538 139.729 21.623C139.814 21.7923 139.964 21.929 140.179 22.0332C140.283 22.0788 140.475 22.1341 140.755 22.1992C141.041 22.2643 141.279 22.3001 141.468 22.3066V23H135.716V22.3066C135.865 22.2936 136.083 22.2741 136.37 22.248C136.656 22.222 136.858 22.1829 136.975 22.1309C137.171 22.0462 137.311 21.9225 137.395 21.7598C137.486 21.5905 137.532 21.3887 137.532 21.1543V11.1543C137.532 10.9329 137.493 10.7409 137.415 10.5781C137.343 10.4154 137.197 10.2819 136.975 10.1777C136.8 10.0931 136.591 10.0182 136.35 9.95312C136.11 9.88802 135.898 9.84896 135.716 9.83594V9.14258H141.468V9.83594C141.285 9.84245 141.057 9.87174 140.784 9.92383C140.511 9.97591 140.309 10.0247 140.179 10.0703C139.957 10.1484 139.807 10.2786 139.729 10.4609C139.651 10.6432 139.612 10.8418 139.612 11.0566V15.8418H139.807C140.393 15.347 140.97 14.8327 141.536 14.2988C142.102 13.7585 142.617 13.2214 143.079 12.6875C143.593 12.0951 143.968 11.623 144.202 11.2715C144.443 10.9134 144.563 10.5977 144.563 10.3242C144.563 10.2266 144.501 10.1484 144.378 10.0898C144.261 10.0247 144.124 9.97266 143.968 9.93359C143.785 9.89453 143.623 9.87174 143.479 9.86523C143.336 9.85221 143.219 9.84245 143.128 9.83594V9.14258H148.323V9.83594C148.304 9.83594 148.261 9.83919 148.196 9.8457C148.131 9.85221 148.056 9.85872 147.971 9.86523C147.88 9.87174 147.789 9.88477 147.698 9.9043C147.607 9.92383 147.49 9.94661 147.346 9.97266C147.119 10.0247 146.881 10.1094 146.634 10.2266C146.393 10.3372 146.194 10.4772 146.038 10.6465C145.367 11.4082 144.667 12.196 143.938 13.0098C143.209 13.8236 142.486 14.5658 141.77 15.2363C142.76 16.3561 143.577 17.3197 144.221 18.127C144.873 18.9342 145.563 19.7969 146.292 20.7148C146.572 21.0664 146.852 21.3496 147.132 21.5645C147.412 21.7728 147.652 21.929 147.854 22.0332C148.024 22.1178 148.235 22.1829 148.489 22.2285C148.743 22.2741 148.955 22.3001 149.124 22.3066V23ZM159.63 22.8242C159.324 22.9349 159.054 23.0228 158.82 23.0879C158.592 23.1595 158.332 23.1953 158.039 23.1953C157.531 23.1953 157.124 23.0781 156.818 22.8438C156.518 22.6029 156.326 22.2546 156.242 21.7988H156.183C155.76 22.2676 155.304 22.6257 154.816 22.873C154.334 23.1204 153.752 23.2441 153.068 23.2441C152.345 23.2441 151.75 23.0228 151.281 22.5801C150.819 22.1374 150.588 21.5579 150.588 20.8418C150.588 20.4707 150.64 20.1387 150.744 19.8457C150.848 19.5527 151.004 19.2891 151.213 19.0547C151.375 18.8594 151.59 18.6868 151.857 18.5371C152.124 18.3809 152.375 18.2572 152.609 18.166C152.902 18.0553 153.494 17.8503 154.386 17.5508C155.285 17.2513 155.89 17.0169 156.203 16.8477V15.8809C156.203 15.7962 156.183 15.6335 156.144 15.3926C156.112 15.1517 156.037 14.9238 155.92 14.709C155.789 14.4681 155.604 14.2598 155.363 14.084C155.129 13.9017 154.793 13.8105 154.357 13.8105C154.058 13.8105 153.778 13.8626 153.517 13.9668C153.263 14.0645 153.084 14.1686 152.98 14.2793C152.98 14.4095 153.009 14.6016 153.068 14.8555C153.133 15.1094 153.166 15.3438 153.166 15.5586C153.166 15.7865 153.061 15.9948 152.853 16.1836C152.651 16.3724 152.368 16.4668 152.004 16.4668C151.678 16.4668 151.437 16.3529 151.281 16.125C151.131 15.8906 151.056 15.6302 151.056 15.3438C151.056 15.0443 151.16 14.7578 151.369 14.4844C151.584 14.2109 151.86 13.9668 152.199 13.752C152.492 13.5697 152.847 13.4167 153.263 13.293C153.68 13.1628 154.087 13.0977 154.484 13.0977C155.031 13.0977 155.506 13.1367 155.91 13.2148C156.32 13.2865 156.691 13.446 157.023 13.6934C157.355 13.9342 157.606 14.263 157.775 14.6797C157.951 15.0898 158.039 15.6204 158.039 16.2715C158.039 17.2025 158.029 18.0293 158.009 18.752C157.99 19.4681 157.98 20.2526 157.98 21.1055C157.98 21.3594 158.022 21.5612 158.107 21.7109C158.198 21.8607 158.335 21.9876 158.517 22.0918C158.615 22.1504 158.768 22.1829 158.976 22.1895C159.191 22.196 159.409 22.1992 159.63 22.1992V22.8242ZM156.222 17.668C155.669 17.8307 155.184 17.9902 154.767 18.1465C154.351 18.3027 153.963 18.498 153.605 18.7324C153.28 18.9538 153.022 19.2174 152.834 19.5234C152.645 19.8229 152.55 20.181 152.55 20.5977C152.55 21.138 152.69 21.5352 152.97 21.7891C153.257 22.043 153.618 22.1699 154.054 22.1699C154.517 22.1699 154.923 22.0592 155.275 21.8379C155.627 21.61 155.923 21.3431 156.164 21.0371L156.222 17.668ZM169.161 14.6113C169.161 14.9434 169.079 15.2396 168.916 15.5C168.754 15.7539 168.503 15.8809 168.164 15.8809C167.8 15.8809 167.52 15.7865 167.325 15.5977C167.136 15.4089 167.041 15.2005 167.041 14.9727C167.041 14.8294 167.051 14.6992 167.071 14.582C167.097 14.4648 167.12 14.3477 167.139 14.2305C166.833 14.2305 166.475 14.3542 166.065 14.6016C165.655 14.849 165.306 15.2005 165.02 15.6562V21.2617C165.02 21.4896 165.062 21.6751 165.147 21.8184C165.238 21.9616 165.378 22.069 165.567 22.1406C165.73 22.2057 165.938 22.2546 166.192 22.2871C166.452 22.3197 166.677 22.3424 166.866 22.3555V23H161.787V22.3555C161.937 22.3424 162.09 22.3294 162.246 22.3164C162.409 22.3034 162.549 22.2773 162.666 22.2383C162.849 22.1797 162.982 22.0788 163.067 21.9355C163.158 21.7858 163.204 21.5938 163.204 21.3594V15.4121C163.204 15.2103 163.155 15.0117 163.057 14.8164C162.966 14.6211 162.836 14.4648 162.666 14.3477C162.543 14.2695 162.396 14.2142 162.227 14.1816C162.058 14.1426 161.875 14.1165 161.68 14.1035V13.4688L164.883 13.2539L165.02 13.3906V14.748H165.069C165.472 14.2207 165.922 13.8203 166.416 13.5469C166.911 13.2734 167.364 13.1367 167.774 13.1367C168.184 13.1367 168.516 13.2702 168.77 13.5371C169.03 13.804 169.161 14.1621 169.161 14.6113ZM170.458 26.1445C170.458 25.819 170.546 25.5521 170.722 25.3438C170.904 25.1419 171.129 25.041 171.396 25.041C171.604 25.041 171.783 25.0801 171.933 25.1582C172.083 25.2363 172.216 25.3372 172.333 25.4609C172.431 25.5586 172.535 25.6921 172.646 25.8613C172.756 26.0306 172.844 26.1706 172.909 26.2812C173.235 26.1055 173.622 25.6465 174.071 24.9043C174.527 24.1621 174.856 23.5111 175.058 22.9512C174.439 21.4082 173.879 20.028 173.378 18.8105C172.877 17.5931 172.353 16.3333 171.806 15.0312C171.682 14.7318 171.474 14.5007 171.181 14.3379C170.888 14.1686 170.595 14.0612 170.302 14.0156V13.3711H174.696V14.0547C174.501 14.0612 174.267 14.1035 173.993 14.1816C173.72 14.2533 173.583 14.3379 173.583 14.4355C173.583 14.4746 173.596 14.5397 173.622 14.6309C173.655 14.722 173.691 14.8164 173.73 14.9141C173.977 15.5586 174.355 16.4896 174.863 17.707C175.37 18.918 175.764 19.888 176.044 20.6172C176.337 19.9206 176.64 19.2012 176.952 18.459C177.271 17.7103 177.626 16.8281 178.017 15.8125C178.062 15.6888 178.127 15.5195 178.212 15.3047C178.297 15.0833 178.339 14.8945 178.339 14.7383C178.339 14.569 178.189 14.4128 177.89 14.2695C177.597 14.1198 177.317 14.0286 177.05 13.9961V13.3711H180.624V13.9766C180.429 14.0091 180.172 14.123 179.853 14.3184C179.534 14.5072 179.296 14.7773 179.14 15.1289C178.365 16.9258 177.675 18.5632 177.07 20.041C176.471 21.5189 176.015 22.6061 175.702 23.3027C175.292 24.2142 174.924 24.9238 174.599 25.4316C174.28 25.946 173.967 26.3496 173.661 26.6426C173.362 26.916 173.088 27.0983 172.841 27.1895C172.6 27.2871 172.349 27.3359 172.089 27.3359C171.581 27.3359 171.181 27.2155 170.888 26.9746C170.601 26.7337 170.458 26.457 170.458 26.1445ZM198.729 23H194.031V22.3555C194.181 22.3424 194.331 22.3294 194.48 22.3164C194.637 22.3034 194.773 22.2773 194.891 22.2383C195.073 22.1797 195.206 22.0788 195.291 21.9355C195.382 21.7858 195.428 21.5938 195.428 21.3594V16.3887C195.428 15.7116 195.271 15.1908 194.959 14.8262C194.653 14.4551 194.269 14.2695 193.807 14.2695C193.488 14.2695 193.188 14.3184 192.908 14.416C192.628 14.5137 192.371 14.6504 192.137 14.8262C191.948 14.9694 191.788 15.1257 191.658 15.2949C191.535 15.4577 191.44 15.5944 191.375 15.7051V21.2617C191.375 21.4896 191.414 21.6784 191.492 21.8281C191.57 21.9714 191.704 22.082 191.893 22.1602C192.042 22.2188 192.176 22.2643 192.293 22.2969C192.417 22.3229 192.576 22.3424 192.771 22.3555V23H188.172V22.3555C188.322 22.3424 188.465 22.3294 188.602 22.3164C188.745 22.3034 188.875 22.2773 188.992 22.2383C189.174 22.1797 189.308 22.0788 189.393 21.9355C189.484 21.7858 189.529 21.5938 189.529 21.3594V16.3887C189.529 15.7116 189.373 15.1908 189.061 14.8262C188.755 14.4551 188.37 14.2695 187.908 14.2695C187.589 14.2695 187.29 14.3216 187.01 14.4258C186.73 14.5234 186.473 14.6602 186.238 14.8359C186.049 14.9792 185.89 15.1419 185.76 15.3242C185.63 15.5 185.532 15.6335 185.467 15.7246V21.2422C185.467 21.4635 185.512 21.6491 185.604 21.7988C185.695 21.9486 185.831 22.0625 186.014 22.1406C186.15 22.2057 186.29 22.2546 186.434 22.2871C186.577 22.3197 186.736 22.3424 186.912 22.3555V23H182.234V22.3555C182.384 22.3424 182.537 22.3294 182.693 22.3164C182.856 22.3034 182.996 22.2773 183.113 22.2383C183.296 22.1797 183.429 22.0788 183.514 21.9355C183.605 21.7858 183.65 21.5938 183.65 21.3594V15.373C183.65 15.1647 183.602 14.9792 183.504 14.8164C183.413 14.6471 183.283 14.5039 183.113 14.3867C182.99 14.3086 182.837 14.2467 182.654 14.2012C182.472 14.1491 182.283 14.1165 182.088 14.1035V13.4688L185.311 13.2539L185.447 13.3906V14.7676H185.516C185.678 14.6048 185.877 14.4128 186.111 14.1914C186.346 13.9701 186.564 13.791 186.766 13.6543C186.993 13.498 187.277 13.3678 187.615 13.2637C187.96 13.1595 188.331 13.1074 188.729 13.1074C189.354 13.1074 189.891 13.2767 190.34 13.6152C190.789 13.9473 191.111 14.3509 191.307 14.8262C191.541 14.5983 191.746 14.3997 191.922 14.2305C192.104 14.0547 192.342 13.8691 192.635 13.6738C192.882 13.5046 193.172 13.3678 193.504 13.2637C193.842 13.1595 194.217 13.1074 194.627 13.1074C195.441 13.1074 196.085 13.3743 196.561 13.9082C197.036 14.4421 197.273 15.2624 197.273 16.3691V21.2617C197.273 21.4896 197.312 21.6784 197.391 21.8281C197.469 21.9714 197.602 22.082 197.791 22.1602C197.941 22.2188 198.087 22.2643 198.23 22.2969C198.38 22.3229 198.546 22.3424 198.729 22.3555V23ZM210.173 22.8242C209.867 22.9349 209.596 23.0228 209.362 23.0879C209.134 23.1595 208.874 23.1953 208.581 23.1953C208.073 23.1953 207.666 23.0781 207.36 22.8438C207.061 22.6029 206.869 22.2546 206.784 21.7988H206.725C206.302 22.2676 205.846 22.6257 205.358 22.873C204.876 23.1204 204.294 23.2441 203.61 23.2441C202.887 23.2441 202.292 23.0228 201.823 22.5801C201.361 22.1374 201.13 21.5579 201.13 20.8418C201.13 20.4707 201.182 20.1387 201.286 19.8457C201.39 19.5527 201.546 19.2891 201.755 19.0547C201.917 18.8594 202.132 18.6868 202.399 18.5371C202.666 18.3809 202.917 18.2572 203.151 18.166C203.444 18.0553 204.037 17.8503 204.929 17.5508C205.827 17.2513 206.432 17.0169 206.745 16.8477V15.8809C206.745 15.7962 206.725 15.6335 206.686 15.3926C206.654 15.1517 206.579 14.9238 206.462 14.709C206.332 14.4681 206.146 14.2598 205.905 14.084C205.671 13.9017 205.335 13.8105 204.899 13.8105C204.6 13.8105 204.32 13.8626 204.059 13.9668C203.805 14.0645 203.626 14.1686 203.522 14.2793C203.522 14.4095 203.552 14.6016 203.61 14.8555C203.675 15.1094 203.708 15.3438 203.708 15.5586C203.708 15.7865 203.604 15.9948 203.395 16.1836C203.193 16.3724 202.91 16.4668 202.546 16.4668C202.22 16.4668 201.979 16.3529 201.823 16.125C201.673 15.8906 201.598 15.6302 201.598 15.3438C201.598 15.0443 201.703 14.7578 201.911 14.4844C202.126 14.2109 202.402 13.9668 202.741 13.752C203.034 13.5697 203.389 13.4167 203.805 13.293C204.222 13.1628 204.629 13.0977 205.026 13.0977C205.573 13.0977 206.048 13.1367 206.452 13.2148C206.862 13.2865 207.233 13.446 207.565 13.6934C207.897 13.9342 208.148 14.263 208.317 14.6797C208.493 15.0898 208.581 15.6204 208.581 16.2715C208.581 17.2025 208.571 18.0293 208.552 18.752C208.532 19.4681 208.522 20.2526 208.522 21.1055C208.522 21.3594 208.565 21.5612 208.649 21.7109C208.74 21.8607 208.877 21.9876 209.059 22.0918C209.157 22.1504 209.31 22.1829 209.518 22.1895C209.733 22.196 209.951 22.1992 210.173 22.1992V22.8242ZM206.764 17.668C206.211 17.8307 205.726 17.9902 205.309 18.1465C204.893 18.3027 204.505 18.498 204.147 18.7324C203.822 18.9538 203.565 19.2174 203.376 19.5234C203.187 19.8229 203.093 20.181 203.093 20.5977C203.093 21.138 203.233 21.5352 203.512 21.7891C203.799 22.043 204.16 22.1699 204.596 22.1699C205.059 22.1699 205.466 22.0592 205.817 21.8379C206.169 21.61 206.465 21.3431 206.706 21.0371L206.764 17.668ZM211.597 26.1445C211.597 25.819 211.685 25.5521 211.861 25.3438C212.043 25.1419 212.268 25.041 212.535 25.041C212.743 25.041 212.922 25.0801 213.072 25.1582C213.222 25.2363 213.355 25.3372 213.472 25.4609C213.57 25.5586 213.674 25.6921 213.785 25.8613C213.895 26.0306 213.983 26.1706 214.048 26.2812C214.374 26.1055 214.761 25.6465 215.211 24.9043C215.666 24.1621 215.995 23.5111 216.197 22.9512C215.578 21.4082 215.018 20.028 214.517 18.8105C214.016 17.5931 213.492 16.3333 212.945 15.0312C212.821 14.7318 212.613 14.5007 212.32 14.3379C212.027 14.1686 211.734 14.0612 211.441 14.0156V13.3711H215.836V14.0547C215.64 14.0612 215.406 14.1035 215.132 14.1816C214.859 14.2533 214.722 14.3379 214.722 14.4355C214.722 14.4746 214.735 14.5397 214.761 14.6309C214.794 14.722 214.83 14.8164 214.869 14.9141C215.116 15.5586 215.494 16.4896 216.002 17.707C216.509 18.918 216.903 19.888 217.183 20.6172C217.476 19.9206 217.779 19.2012 218.091 18.459C218.41 17.7103 218.765 16.8281 219.156 15.8125C219.201 15.6888 219.267 15.5195 219.351 15.3047C219.436 15.0833 219.478 14.8945 219.478 14.7383C219.478 14.569 219.328 14.4128 219.029 14.2695C218.736 14.1198 218.456 14.0286 218.189 13.9961V13.3711H221.763V13.9766C221.568 14.0091 221.311 14.123 220.992 14.3184C220.673 14.5072 220.435 14.7773 220.279 15.1289C219.504 16.9258 218.814 18.5632 218.209 20.041C217.61 21.5189 217.154 22.6061 216.841 23.3027C216.431 24.2142 216.063 24.9238 215.738 25.4316C215.419 25.946 215.106 26.3496 214.8 26.6426C214.501 26.916 214.227 27.0983 213.98 27.1895C213.739 27.2871 213.489 27.3359 213.228 27.3359C212.72 27.3359 212.32 27.2155 212.027 26.9746C211.74 26.7337 211.597 26.457 211.597 26.1445ZM226.723 21.877C226.723 22.2415 226.59 22.554 226.323 22.8145C226.062 23.0684 225.75 23.1953 225.385 23.1953C225.021 23.1953 224.705 23.0684 224.438 22.8145C224.177 22.554 224.047 22.2415 224.047 21.877C224.047 21.5124 224.177 21.1999 224.438 20.9395C224.705 20.6725 225.021 20.5391 225.385 20.5391C225.75 20.5391 226.062 20.6725 226.323 20.9395C226.59 21.1999 226.723 21.5124 226.723 21.877ZM239.739 18.1758C239.739 19.6211 239.284 20.8353 238.372 21.8184C237.461 22.8014 236.403 23.293 235.198 23.293C234.671 23.293 234.15 23.2116 233.636 23.0488C233.128 22.8861 232.65 22.668 232.2 22.3945L231.478 23.5176L230.872 23.3809C230.905 22.8991 230.928 22.3197 230.941 21.6426C230.954 20.9655 230.96 20.3112 230.96 19.6797V10.1484C230.96 9.92708 230.908 9.70573 230.804 9.48438C230.706 9.26302 230.579 9.10352 230.423 9.00586C230.299 8.92122 230.091 8.85938 229.798 8.82031C229.512 8.77474 229.28 8.74544 229.105 8.73242V8.10742L232.64 7.88281L232.777 8.0293V14.377L232.845 14.3965C233.249 13.9668 233.688 13.6445 234.163 13.4297C234.645 13.2148 235.117 13.1074 235.579 13.1074C236.764 13.1074 237.754 13.5762 238.548 14.5137C239.342 15.4512 239.739 16.6719 239.739 18.1758ZM237.698 18.2441C237.698 17.7624 237.646 17.2708 237.542 16.7695C237.438 16.2682 237.275 15.832 237.054 15.4609C236.833 15.0833 236.543 14.7773 236.185 14.543C235.827 14.3086 235.397 14.1914 234.896 14.1914C234.44 14.1914 234.04 14.2826 233.695 14.4648C233.356 14.6406 233.05 14.8815 232.777 15.1875V20.793C232.816 20.9492 232.89 21.1315 233.001 21.3398C233.118 21.5482 233.275 21.7467 233.47 21.9355C233.665 22.1178 233.887 22.2676 234.134 22.3848C234.381 22.4954 234.684 22.5508 235.042 22.5508C235.836 22.5508 236.478 22.1667 236.966 21.3984C237.454 20.6302 237.698 19.5788 237.698 18.2441ZM241.643 26.1445C241.643 25.819 241.73 25.5521 241.906 25.3438C242.089 25.1419 242.313 25.041 242.58 25.041C242.788 25.041 242.967 25.0801 243.117 25.1582C243.267 25.2363 243.4 25.3372 243.518 25.4609C243.615 25.5586 243.719 25.6921 243.83 25.8613C243.941 26.0306 244.029 26.1706 244.094 26.2812C244.419 26.1055 244.807 25.6465 245.256 24.9043C245.712 24.1621 246.04 23.5111 246.242 22.9512C245.624 21.4082 245.064 20.028 244.562 18.8105C244.061 17.5931 243.537 16.3333 242.99 15.0312C242.867 14.7318 242.658 14.5007 242.365 14.3379C242.072 14.1686 241.779 14.0612 241.486 14.0156V13.3711H245.881V14.0547C245.686 14.0612 245.451 14.1035 245.178 14.1816C244.904 14.2533 244.768 14.3379 244.768 14.4355C244.768 14.4746 244.781 14.5397 244.807 14.6309C244.839 14.722 244.875 14.8164 244.914 14.9141C245.161 15.5586 245.539 16.4896 246.047 17.707C246.555 18.918 246.949 19.888 247.229 20.6172C247.521 19.9206 247.824 19.2012 248.137 18.459C248.456 17.7103 248.811 16.8281 249.201 15.8125C249.247 15.6888 249.312 15.5195 249.396 15.3047C249.481 15.0833 249.523 14.8945 249.523 14.7383C249.523 14.569 249.374 14.4128 249.074 14.2695C248.781 14.1198 248.501 14.0286 248.234 13.9961V13.3711H251.809V13.9766C251.613 14.0091 251.356 14.123 251.037 14.3184C250.718 14.5072 250.48 14.7773 250.324 15.1289C249.549 16.9258 248.859 18.5632 248.254 20.041C247.655 21.5189 247.199 22.6061 246.887 23.3027C246.477 24.2142 246.109 24.9238 245.783 25.4316C245.464 25.946 245.152 26.3496 244.846 26.6426C244.546 26.916 244.273 27.0983 244.025 27.1895C243.785 27.2871 243.534 27.3359 243.273 27.3359C242.766 27.3359 242.365 27.2155 242.072 26.9746C241.786 26.7337 241.643 26.457 241.643 26.1445Z" fill="#B6A56E"/>
<path d="M39.315 3H0.684964C0.5033 3 0.329077 3.07325 0.200621 3.20362C0.0721657 3.334 0 3.51084 0 3.69522V28.3048C0 28.4892 0.0721657 28.666 0.200621 28.7964C0.329077 28.9268 0.5033 29 0.684964 29H39.315C39.4967 29 39.6709 28.9268 39.7994 28.7964C39.9278 28.666 40 28.4892 40 28.3048V3.69522C40 3.51084 39.9278 3.334 39.7994 3.20362C39.6709 3.07325 39.4967 3 39.315 3ZM32.5774 18.0331C32.6846 18.5259 32.7954 19.0355 32.6513 19.2882C32.4966 19.5596 31.9966 19.7173 31.5131 19.8699C31.1316 19.9902 30.7373 20.1147 30.3857 20.3212C30.0461 20.5206 29.7523 20.8001 29.4683 21.0704C29.0772 21.4426 28.7079 21.794 28.374 21.794C28.04 21.794 27.6706 21.4425 27.2797 21.0704C26.9956 20.8001 26.7018 20.5205 26.3622 20.3212C26.0107 20.1147 25.6163 19.9903 25.2348 19.8699C24.7513 19.7173 24.2513 19.5596 24.0967 19.2882C23.9526 19.0355 24.0633 18.5259 24.1705 18.0331C24.2584 17.6285 24.3493 17.2103 24.3493 16.7821C24.3493 16.354 24.2584 15.9356 24.1705 15.5311C24.0633 15.0383 23.9526 14.5288 24.0967 14.2759C24.2513 14.0046 24.7513 13.8468 25.2348 13.6942C25.6163 13.5739 26.0107 13.4494 26.3622 13.243C26.7018 13.0435 26.9956 12.764 27.2797 12.4937C27.6706 12.1216 28.04 11.7701 28.374 11.7701C28.7079 11.7701 29.0773 12.1216 29.4683 12.4937C29.7523 12.764 30.0461 13.0435 30.3857 13.243C30.7373 13.4493 31.1316 13.5738 31.5131 13.6941C31.9966 13.8467 32.4966 14.0045 32.6512 14.2758C32.7954 14.5286 32.6846 15.0381 32.5774 15.5309C32.4895 15.9354 32.3986 16.3537 32.3986 16.7819C32.3986 17.2102 32.4895 17.6286 32.5774 18.0331ZM30.5975 11.6608C30.5345 11.6024 30.4705 11.5416 30.4053 11.4795C29.8904 10.9896 29.2497 10.3798 28.374 10.3798C27.4982 10.3798 26.8574 10.9896 26.3426 11.4795C26.1045 11.7061 25.8796 11.9201 25.6761 12.0396C25.4574 12.168 25.1518 12.2645 24.8281 12.3666C24.1275 12.5876 23.3336 12.8381 22.9109 13.5797C22.5001 14.3004 22.6768 15.1134 22.8328 15.8307C22.9081 16.1777 22.9794 16.5055 22.9794 16.7821C22.9794 17.0587 22.9081 17.3866 22.8328 17.7336C22.6975 18.3556 22.5473 19.0496 22.7775 19.693L19.9997 22.5464L2.32449 4.39044H37.6748L30.5975 11.6608ZM11.7007 16L1.36993 26.6116V5.38812L11.7007 16ZM12.6635 16.989L19.5124 24.0242C19.5761 24.0896 19.6519 24.1416 19.7356 24.177C19.8192 24.2125 19.9089 24.2308 19.9996 24.2308C20.0902 24.2308 20.18 24.2125 20.2636 24.177C20.3472 24.1416 20.4231 24.0896 20.4868 24.0242L23.6841 20.7398C24.044 20.9494 24.4495 21.0781 24.8281 21.1976C25.1518 21.2998 25.4575 21.3962 25.6761 21.5245C25.8796 21.644 26.1044 21.8581 26.3426 22.0846C26.8574 22.5746 27.4982 23.1844 28.374 23.1844C29.2496 23.1844 29.8904 22.5746 30.4053 22.0846C30.6434 21.858 30.8682 21.644 31.0718 21.5244C31.2043 21.4466 31.3691 21.3806 31.5502 21.3179L37.675 27.6094H2.32431L12.6635 16.989ZM32.9664 20.7946C33.3117 20.6108 33.6223 20.3612 33.8371 19.9846C34.2479 19.2639 34.0711 18.4508 33.9151 17.7336C33.8398 17.3866 33.7686 17.0587 33.7686 16.7821C33.7686 16.5055 33.8398 16.1777 33.9151 15.8307C34.0711 15.1134 34.2479 14.3005 33.837 13.5797C33.4142 12.8381 32.6203 12.5876 31.9197 12.3666L31.8559 12.3463L38.6301 5.38738V26.6122L32.9664 20.7946Z" fill="#B6A56E"/>
<path d="M28.374 13.2424C26.451 13.2424 24.8865 14.8302 24.8865 16.782C24.8865 18.7337 26.451 20.3215 28.374 20.3215C30.297 20.3215 31.8614 18.7337 31.8614 16.782C31.8614 14.8302 30.2969 13.2424 28.374 13.2424ZM28.374 18.9311C27.2064 18.9311 26.2564 17.967 26.2564 16.782C26.2564 15.5969 27.2063 14.6328 28.374 14.6328C29.5416 14.6328 30.4915 15.5969 30.4915 16.782C30.4915 17.967 29.5415 18.9311 28.374 18.9311Z" fill="#B6A56E"/>
</svg>
