<svg width="135" height="36" viewBox="0 0 135 36" fill="none" xmlns="http://www.w3.org/2000/svg">
<path d="M58.709 7.60938H57.9766C57.8398 7.09505 57.5534 6.54492 57.1172 5.95898C56.6875 5.37305 56.2741 5.05078 55.877 4.99219C55.6751 4.96615 55.4342 4.94661 55.1543 4.93359C54.8809 4.92057 54.5684 4.91406 54.2168 4.91406H51.8926V10.4805H53.4844C53.9661 10.4805 54.3405 10.4316 54.6074 10.334C54.8743 10.2298 55.1022 10.0736 55.291 9.86523C55.4212 9.72201 55.5384 9.50065 55.6426 9.20117C55.7533 8.89518 55.8249 8.56966 55.8574 8.22461H56.5996V13.6641H55.8574C55.8379 13.3776 55.7695 13.0521 55.6523 12.6875C55.5417 12.3229 55.4212 12.0592 55.291 11.8965C55.0957 11.6556 54.8483 11.4928 54.5488 11.4082C54.2559 11.3171 53.901 11.2715 53.4844 11.2715H51.8926V16.0469C51.8926 16.2617 51.9349 16.4538 52.0195 16.623C52.1042 16.7923 52.2539 16.929 52.4688 17.0332C52.5664 17.0788 52.778 17.1341 53.1035 17.1992C53.429 17.2643 53.6764 17.3001 53.8457 17.3066V18H47.8398V17.3066C48.0352 17.2936 48.2956 17.2741 48.6211 17.248C48.9466 17.2155 49.1582 17.1764 49.2559 17.1309C49.4512 17.0462 49.5911 16.9225 49.6758 16.7598C49.7669 16.5905 49.8125 16.3887 49.8125 16.1543V6.1543C49.8125 5.93945 49.7767 5.75065 49.7051 5.58789C49.6335 5.41862 49.4837 5.2819 49.2559 5.17773C49.0801 5.0931 48.8424 5.01823 48.543 4.95312C48.25 4.88802 48.0156 4.84896 47.8398 4.83594V4.14258H58.709V7.60938ZM65.573 18H60.9148V17.3555C61.0646 17.3424 61.2176 17.3294 61.3738 17.3164C61.5366 17.3034 61.6766 17.2773 61.7937 17.2383C61.976 17.1797 62.1095 17.0788 62.1941 16.9355C62.2853 16.7858 62.3309 16.5938 62.3309 16.3594V10.4121C62.3309 10.2038 62.282 10.015 62.1844 9.8457C62.0932 9.66992 61.963 9.52344 61.7937 9.40625C61.6701 9.32812 61.491 9.26302 61.2566 9.21094C61.0223 9.15234 60.8074 9.11654 60.6121 9.10352V8.46875L64.0105 8.25391L64.1473 8.39062V16.2422C64.1473 16.4701 64.1896 16.6589 64.2742 16.8086C64.3654 16.9583 64.5053 17.069 64.6941 17.1406C64.8374 17.1992 64.9773 17.248 65.1141 17.2871C65.2508 17.3197 65.4038 17.3424 65.573 17.3555V18ZM64.3426 4.45508C64.3426 4.82617 64.2189 5.15169 63.9715 5.43164C63.7306 5.70508 63.4311 5.8418 63.073 5.8418C62.741 5.8418 62.4513 5.71159 62.2039 5.45117C61.963 5.18424 61.8426 4.88151 61.8426 4.54297C61.8426 4.1849 61.963 3.8724 62.2039 3.60547C62.4513 3.33854 62.741 3.20508 63.073 3.20508C63.4441 3.20508 63.7469 3.33203 63.9812 3.58594C64.2221 3.83333 64.3426 4.12305 64.3426 4.45508ZM76.2066 17.0039C76.4671 17.2513 76.6721 17.5312 76.8219 17.8438C76.9716 18.1562 77.0465 18.5436 77.0465 19.0059C77.0465 19.4681 76.9456 19.901 76.7437 20.3047C76.5419 20.7148 76.2359 21.0697 75.8258 21.3691C75.3896 21.6751 74.8687 21.9128 74.2633 22.082C73.6578 22.2513 72.9091 22.3359 72.0172 22.3359C70.5589 22.3359 69.4684 22.1211 68.7457 21.6914C68.023 21.2682 67.6617 20.6465 67.6617 19.8262C67.6617 19.1621 67.9221 18.638 68.443 18.2539C68.9638 17.8698 69.6279 17.6615 70.4352 17.6289V17.4922C70.2398 17.4336 70.038 17.362 69.8297 17.2773C69.6214 17.1862 69.4423 17.082 69.2926 16.9648C69.1233 16.8281 68.9866 16.6686 68.8824 16.4863C68.7783 16.2975 68.7262 16.0664 68.7262 15.793C68.7262 15.4479 68.8466 15.1322 69.0875 14.8457C69.3349 14.5527 69.706 14.3021 70.2008 14.0938V13.9473C69.5758 13.6543 69.0908 13.2799 68.7457 12.8242C68.4007 12.362 68.2281 11.8281 68.2281 11.2227C68.2281 10.3112 68.5667 9.5625 69.2437 8.97656C69.9273 8.39062 70.7997 8.09766 71.8609 8.09766C72.1539 8.09766 72.4436 8.12695 72.7301 8.18555C73.023 8.24414 73.3193 8.31901 73.6187 8.41016H76.9781V9.34766H74.7125V9.40625C74.9534 9.6862 75.1324 9.99544 75.2496 10.334C75.3668 10.6725 75.4254 11.0046 75.4254 11.3301C75.4254 12.1764 75.0803 12.8926 74.3902 13.4785C73.7066 14.0645 72.9091 14.3574 71.9977 14.3574H70.816C70.6663 14.4095 70.51 14.5039 70.3473 14.6406C70.1845 14.7773 70.1031 14.9629 70.1031 15.1973C70.1031 15.4382 70.1715 15.6237 70.3082 15.7539C70.4449 15.8776 70.6109 15.9622 70.8062 16.0078C70.9951 16.0599 71.2132 16.0924 71.4605 16.1055C71.7145 16.1185 71.9749 16.1283 72.2418 16.1348C72.5283 16.1413 72.9189 16.1608 73.4137 16.1934C73.915 16.2259 74.2698 16.2454 74.4781 16.252C74.7776 16.265 75.0771 16.3366 75.3766 16.4668C75.6826 16.597 75.9592 16.776 76.2066 17.0039ZM73.5699 11.291C73.5699 10.5293 73.4137 9.92383 73.1012 9.47461C72.7952 9.01888 72.3622 8.79102 71.8023 8.79102C71.4964 8.79102 71.2327 8.85612 71.0113 8.98633C70.7965 9.11003 70.6207 9.28906 70.484 9.52344C70.3538 9.73828 70.2594 9.9987 70.2008 10.3047C70.1487 10.6042 70.1227 10.9134 70.1227 11.2324C70.1227 11.9551 70.2789 12.5443 70.5914 13C70.9104 13.4557 71.3206 13.6836 71.8219 13.6836C72.3818 13.6836 72.8115 13.459 73.1109 13.0098C73.4169 12.554 73.5699 11.9811 73.5699 11.291ZM75.4449 19.3672C75.4449 19.0026 75.3603 18.7031 75.191 18.4688C75.0217 18.2344 74.7646 18.0749 74.4195 17.9902C74.2372 17.9642 73.8629 17.9349 73.2965 17.9023C72.7301 17.8698 72.0725 17.8535 71.3238 17.8535C70.6207 17.9902 70.1194 18.2181 69.8199 18.5371C69.527 18.8626 69.3805 19.2793 69.3805 19.7871C69.3805 20.015 69.4293 20.2331 69.527 20.4414C69.6246 20.6497 69.7939 20.8418 70.0348 21.0176C70.2626 21.1868 70.5686 21.3236 70.9527 21.4277C71.3368 21.5384 71.8056 21.5938 72.359 21.5938C73.316 21.5938 74.068 21.4082 74.6148 21.0371C75.1682 20.6725 75.4449 20.1159 75.4449 19.3672ZM95.8441 18H91.1469V17.3555C91.2966 17.3424 91.4464 17.3294 91.5961 17.3164C91.7523 17.3034 91.8891 17.2773 92.0063 17.2383C92.1885 17.1797 92.322 17.0788 92.4066 16.9355C92.4978 16.7858 92.5434 16.5938 92.5434 16.3594V11.3887C92.5434 10.7116 92.3871 10.1908 92.0746 9.82617C91.7686 9.45508 91.3845 9.26953 90.9223 9.26953C90.6033 9.26953 90.3038 9.31836 90.0238 9.41602C89.7439 9.51367 89.4867 9.65039 89.2523 9.82617C89.0635 9.9694 88.904 10.1257 88.7738 10.2949C88.6501 10.4577 88.5557 10.5944 88.4906 10.7051V16.2617C88.4906 16.4896 88.5297 16.6784 88.6078 16.8281C88.6859 16.9714 88.8194 17.082 89.0082 17.1602C89.1579 17.2188 89.2914 17.2643 89.4086 17.2969C89.5323 17.3229 89.6918 17.3424 89.8871 17.3555V18H85.2875V17.3555C85.4372 17.3424 85.5805 17.3294 85.7172 17.3164C85.8604 17.3034 85.9906 17.2773 86.1078 17.2383C86.2901 17.1797 86.4236 17.0788 86.5082 16.9355C86.5993 16.7858 86.6449 16.5938 86.6449 16.3594V11.3887C86.6449 10.7116 86.4887 10.1908 86.1762 9.82617C85.8702 9.45508 85.4861 9.26953 85.0238 9.26953C84.7048 9.26953 84.4053 9.32161 84.1254 9.42578C83.8454 9.52344 83.5883 9.66016 83.3539 9.83594C83.1651 9.97917 83.0056 10.1419 82.8754 10.3242C82.7452 10.5 82.6475 10.6335 82.5824 10.7246V16.2422C82.5824 16.4635 82.628 16.6491 82.7191 16.7988C82.8103 16.9486 82.947 17.0625 83.1293 17.1406C83.266 17.2057 83.406 17.2546 83.5492 17.2871C83.6924 17.3197 83.852 17.3424 84.0277 17.3555V18H79.35V17.3555C79.4997 17.3424 79.6527 17.3294 79.809 17.3164C79.9717 17.3034 80.1117 17.2773 80.2289 17.2383C80.4112 17.1797 80.5447 17.0788 80.6293 16.9355C80.7204 16.7858 80.766 16.5938 80.766 16.3594V10.373C80.766 10.1647 80.7172 9.97917 80.6195 9.81641C80.5284 9.64714 80.3982 9.50391 80.2289 9.38672C80.1052 9.30859 79.9522 9.24674 79.7699 9.20117C79.5876 9.14909 79.3988 9.11654 79.2035 9.10352V8.46875L82.4262 8.25391L82.5629 8.39062V9.76758H82.6313C82.794 9.60482 82.9926 9.41276 83.227 9.19141C83.4613 8.97005 83.6794 8.79102 83.8813 8.6543C84.1091 8.49805 84.3923 8.36784 84.7309 8.26367C85.0759 8.15951 85.447 8.10742 85.8441 8.10742C86.4691 8.10742 87.0063 8.27669 87.4555 8.61523C87.9047 8.94727 88.227 9.35091 88.4223 9.82617C88.6566 9.59831 88.8617 9.39974 89.0375 9.23047C89.2198 9.05469 89.4574 8.86914 89.7504 8.67383C89.9978 8.50456 90.2875 8.36784 90.6195 8.26367C90.9581 8.15951 91.3324 8.10742 91.7426 8.10742C92.5564 8.10742 93.2009 8.37435 93.6762 8.9082C94.1514 9.44206 94.3891 10.2624 94.3891 11.3691V16.2617C94.3891 16.4896 94.4281 16.6784 94.5063 16.8281C94.5844 16.9714 94.7178 17.082 94.9066 17.1602C95.0564 17.2188 95.2029 17.2643 95.3461 17.2969C95.4958 17.3229 95.6618 17.3424 95.8441 17.3555V18ZM107.288 17.8242C106.982 17.9349 106.712 18.0228 106.478 18.0879C106.25 18.1595 105.989 18.1953 105.696 18.1953C105.189 18.1953 104.782 18.0781 104.476 17.8438C104.176 17.6029 103.984 17.2546 103.9 16.7988H103.841C103.418 17.2676 102.962 17.6257 102.474 17.873C101.992 18.1204 101.409 18.2441 100.726 18.2441C100.003 18.2441 99.4074 18.0228 98.9387 17.5801C98.4764 17.1374 98.2453 16.5579 98.2453 15.8418C98.2453 15.4707 98.2974 15.1387 98.4016 14.8457C98.5057 14.5527 98.662 14.2891 98.8703 14.0547C99.0331 13.8594 99.2479 13.6868 99.5148 13.5371C99.7818 13.3809 100.032 13.2572 100.267 13.166C100.56 13.0553 101.152 12.8503 102.044 12.5508C102.943 12.2513 103.548 12.0169 103.861 11.8477V10.8809C103.861 10.7962 103.841 10.6335 103.802 10.3926C103.769 10.1517 103.695 9.92383 103.577 9.70898C103.447 9.4681 103.262 9.25977 103.021 9.08398C102.786 8.90169 102.451 8.81055 102.015 8.81055C101.715 8.81055 101.435 8.86263 101.175 8.9668C100.921 9.06445 100.742 9.16862 100.638 9.2793C100.638 9.40951 100.667 9.60156 100.726 9.85547C100.791 10.1094 100.823 10.3438 100.823 10.5586C100.823 10.7865 100.719 10.9948 100.511 11.1836C100.309 11.3724 100.026 11.4668 99.6613 11.4668C99.3358 11.4668 99.0949 11.3529 98.9387 11.125C98.7889 10.8906 98.7141 10.6302 98.7141 10.3438C98.7141 10.0443 98.8182 9.75781 99.0266 9.48438C99.2414 9.21094 99.5181 8.9668 99.8566 8.75195C100.15 8.56966 100.504 8.41667 100.921 8.29297C101.338 8.16276 101.745 8.09766 102.142 8.09766C102.689 8.09766 103.164 8.13672 103.568 8.21484C103.978 8.28646 104.349 8.44596 104.681 8.69336C105.013 8.93424 105.264 9.26302 105.433 9.67969C105.609 10.0898 105.696 10.6204 105.696 11.2715C105.696 12.2025 105.687 13.0293 105.667 13.752C105.648 14.4681 105.638 15.2526 105.638 16.1055C105.638 16.3594 105.68 16.5612 105.765 16.7109C105.856 16.8607 105.993 16.9876 106.175 17.0918C106.273 17.1504 106.426 17.1829 106.634 17.1895C106.849 17.196 107.067 17.1992 107.288 17.1992V17.8242ZM103.88 12.668C103.327 12.8307 102.842 12.9902 102.425 13.1465C102.008 13.3027 101.621 13.498 101.263 13.7324C100.937 13.9538 100.68 14.2174 100.491 14.5234C100.303 14.8229 100.208 15.181 100.208 15.5977C100.208 16.138 100.348 16.5352 100.628 16.7891C100.915 17.043 101.276 17.1699 101.712 17.1699C102.174 17.1699 102.581 17.0592 102.933 16.8379C103.284 16.61 103.581 16.3431 103.821 16.0371L103.88 12.668Z" fill="#B6A56E"/>
<path d="M10.0208 5.23865C10.0208 2.34542 12.4306 0 15.4032 0H24.6385C27.6111 0 30.0208 2.34542 30.0208 5.23865C30.0208 7.07066 29.0547 8.68306 27.5911 9.61937C29.0547 10.5557 30.0208 12.1681 30.0208 14.0001C30.0208 16.8934 27.6111 19.2388 24.6385 19.2388H24.5216C23.1281 19.2388 21.8582 18.7233 20.9024 17.8776V22.7044C20.9024 25.6362 18.4296 28 15.4322 28C12.467 28 10.0208 25.6617 10.0208 22.7613C10.0208 20.9294 10.987 19.3171 12.4503 18.3807C10.987 17.4444 10.0208 15.832 10.0208 14.0001C10.0208 12.1681 10.987 10.5557 12.4505 9.61937C10.987 8.68306 10.0208 7.07066 10.0208 5.23865ZM19.1393 10.4774H15.4032C13.4043 10.4774 11.7839 12.0546 11.7839 14.0001C11.7839 15.9381 13.3918 17.5106 15.38 17.5227C15.3877 17.5227 15.3954 17.5227 15.4032 17.5227H19.1393V10.4774ZM20.9024 14.0001C20.9024 15.9456 22.5227 17.5228 24.5216 17.5228H24.6385C26.6374 17.5228 28.2578 15.9456 28.2578 14.0001C28.2578 12.0546 26.6374 10.4774 24.6385 10.4774H24.5216C22.5227 10.4774 20.9024 12.0546 20.9024 14.0001ZM15.4032 19.2388C15.3954 19.2388 15.3877 19.2387 15.38 19.2387C13.3918 19.2508 11.7839 20.8233 11.7839 22.7613C11.7839 24.6997 13.4259 26.284 15.4322 26.284C17.4707 26.284 19.1393 24.6742 19.1393 22.7044V19.2388H15.4032ZM15.4032 1.71597C13.4043 1.71597 11.7839 3.29313 11.7839 5.23865C11.7839 7.18419 13.4043 8.76132 15.4032 8.76132H19.1393V1.71597H15.4032ZM20.9024 8.76132H24.6385C26.6374 8.76132 28.2578 7.18419 28.2578 5.23865C28.2578 3.29313 26.6374 1.71597 24.6385 1.71597H20.9024V8.76132Z" fill="#B6A56E"/>
</svg>
