<svg width="178" height="30" viewBox="0 0 178 30" fill="none" xmlns="http://www.w3.org/2000/svg">
<path fill-rule="evenodd" clip-rule="evenodd" d="M15 0C6.71652 0 0 6.88429 0 15.3825C0 22.1797 4.29911 27.939 10.2589 29.9748C11.0089 30.1154 11.2835 29.64 11.2835 29.2315C11.2835 28.8631 11.2701 27.8988 11.2634 26.613C7.09152 27.5439 6.20759 24.5504 6.20759 24.5504C5.52455 22.7758 4.54018 22.3003 4.54018 22.3003C3.1808 21.3426 4.64063 21.3627 4.64063 21.3627C6.14732 21.4699 6.9375 22.9499 6.9375 22.9499C8.27679 25.3004 10.4464 24.6241 11.3036 24.229C11.4375 23.2378 11.8259 22.5548 12.2545 22.173C8.92634 21.7846 5.42411 20.4654 5.42411 14.5722C5.42411 12.8913 6.0067 11.5185 6.96429 10.447C6.81027 10.0586 6.29464 8.49152 7.11161 6.37534C7.11161 6.37534 8.37054 5.96014 11.2366 7.94908C12.4353 7.60754 13.7143 7.44013 14.9933 7.43343C16.2656 7.44013 17.5513 7.60754 18.75 7.94908C21.6161 5.96014 22.8683 6.37534 22.8683 6.37534C23.6853 8.49152 23.1696 10.0586 23.0156 10.447C23.9732 11.5252 24.5558 12.898 24.5558 14.5722C24.5558 20.4788 21.0469 21.7779 17.7054 22.1597C18.2411 22.6351 18.7232 23.5727 18.7232 25.0058C18.7232 27.0617 18.7031 28.7225 18.7031 29.2248C18.7031 29.6333 18.971 30.1154 19.7344 29.9614C25.7076 27.9323 30 22.173 30 15.3825C30 6.88429 23.2835 0 15 0Z" fill="#B6A56E"/>
<path d="M57.3652 17.4629C57.209 17.4824 56.9974 17.515 56.7305 17.5605C56.4701 17.5996 56.2585 17.6582 56.0957 17.7363C55.9004 17.834 55.7604 17.974 55.6758 18.1562C55.5977 18.332 55.5586 18.5404 55.5586 18.7812V19.8555C55.5586 20.6367 55.5618 21.1641 55.5684 21.4375C55.5814 21.7109 55.5944 21.9355 55.6074 22.1113C54.7415 22.502 53.8789 22.8014 53.0195 23.0098C52.1602 23.2181 51.3171 23.3223 50.4902 23.3223C49.6048 23.3223 48.752 23.1562 47.9316 22.8242C47.1113 22.4922 46.3952 22.0202 45.7832 21.4082C45.1647 20.7897 44.6732 20.0378 44.3086 19.1523C43.944 18.2669 43.7617 17.2773 43.7617 16.1836C43.7617 15.1289 43.9342 14.1523 44.2793 13.2539C44.6309 12.349 45.1257 11.5645 45.7637 10.9004C46.3822 10.2493 47.1178 9.74479 47.9707 9.38672C48.8301 9.02214 49.748 8.83984 50.7246 8.83984C51.5059 8.83984 52.1862 8.93424 52.7656 9.12305C53.3451 9.31185 53.8561 9.53971 54.2988 9.80664L54.6992 9.14258H55.4805L55.5684 13.9863H54.7676C54.6309 13.4525 54.4616 12.9284 54.2598 12.4141C54.0579 11.8932 53.7975 11.4277 53.4785 11.0176C53.1595 10.6074 52.7689 10.2819 52.3066 10.041C51.8509 9.79362 51.304 9.66992 50.666 9.66992C49.9694 9.66992 49.3477 9.81315 48.8008 10.0996C48.2539 10.3796 47.7786 10.7995 47.375 11.3594C46.9779 11.8997 46.6719 12.5736 46.457 13.3809C46.2422 14.1882 46.1348 15.0898 46.1348 16.0859C46.1348 16.9648 46.2389 17.7949 46.4473 18.5762C46.6621 19.3509 46.9714 20.0215 47.375 20.5879C47.7786 21.1673 48.2832 21.623 48.8887 21.9551C49.4941 22.2871 50.181 22.4531 50.9492 22.4531C51.5221 22.4531 52.043 22.3652 52.5117 22.1895C52.987 22.0137 53.3223 21.8281 53.5176 21.6328C53.5697 21.2943 53.5957 20.9525 53.5957 20.6074C53.6022 20.2624 53.6055 19.9694 53.6055 19.7285V18.9668C53.6055 18.6934 53.5664 18.4525 53.4883 18.2441C53.4167 18.0293 53.2637 17.873 53.0293 17.7754C52.8145 17.6777 52.5215 17.6061 52.1504 17.5605C51.7858 17.5085 51.4993 17.4759 51.291 17.4629V16.75H57.3652V17.4629ZM64.0926 23H59.4344V22.3555C59.5841 22.3424 59.7371 22.3294 59.8934 22.3164C60.0561 22.3034 60.1961 22.2773 60.3133 22.2383C60.4956 22.1797 60.629 22.0788 60.7137 21.9355C60.8048 21.7858 60.8504 21.5938 60.8504 21.3594V15.4121C60.8504 15.2038 60.8016 15.015 60.7039 14.8457C60.6128 14.6699 60.4826 14.5234 60.3133 14.4062C60.1896 14.3281 60.0105 14.263 59.7762 14.2109C59.5418 14.1523 59.327 14.1165 59.1316 14.1035V13.4688L62.5301 13.2539L62.6668 13.3906V21.2422C62.6668 21.4701 62.7091 21.6589 62.7937 21.8086C62.8849 21.9583 63.0249 22.069 63.2137 22.1406C63.3569 22.1992 63.4969 22.248 63.6336 22.2871C63.7703 22.3197 63.9233 22.3424 64.0926 22.3555V23ZM62.8621 9.45508C62.8621 9.82617 62.7384 10.1517 62.491 10.4316C62.2501 10.7051 61.9507 10.8418 61.5926 10.8418C61.2605 10.8418 60.9708 10.7116 60.7234 10.4512C60.4826 10.1842 60.3621 9.88151 60.3621 9.54297C60.3621 9.1849 60.4826 8.8724 60.7234 8.60547C60.9708 8.33854 61.2605 8.20508 61.5926 8.20508C61.9637 8.20508 62.2664 8.33203 62.5008 8.58594C62.7417 8.83333 62.8621 9.12305 62.8621 9.45508ZM72.4215 22.5801C71.9983 22.7559 71.5979 22.9023 71.2203 23.0195C70.8427 23.1432 70.3805 23.2051 69.8336 23.2051C69.0263 23.2051 68.4566 23.0033 68.1246 22.5996C67.7991 22.1895 67.6363 21.6133 67.6363 20.8711V14.3477H65.898V13.4102H67.6754V10.4121H69.4527V13.4102H72.2164V14.3477H69.4723V19.7285C69.4723 20.1322 69.4853 20.4707 69.5113 20.7441C69.5439 21.0111 69.6155 21.2454 69.7262 21.4473C69.8303 21.6361 69.9866 21.7793 70.1949 21.877C70.4033 21.9746 70.6832 22.0234 71.0348 22.0234C71.1975 22.0234 71.4352 22.0104 71.7477 21.9844C72.0667 21.9518 72.2913 21.9128 72.4215 21.8672V22.5801ZM85.0473 23H80.3207V22.3555C80.4704 22.3424 80.6365 22.3294 80.8188 22.3164C81.001 22.3034 81.1508 22.2773 81.268 22.2383C81.4503 22.1797 81.5837 22.0788 81.6684 21.9355C81.7595 21.7858 81.8051 21.5938 81.8051 21.3594V16.4082C81.8051 15.7246 81.6423 15.1973 81.3168 14.8262C80.9978 14.4551 80.6072 14.2695 80.1449 14.2695C79.8064 14.2695 79.4906 14.3249 79.1977 14.4355C78.9112 14.5397 78.654 14.6699 78.4262 14.8262C78.2048 14.9889 78.0355 15.1517 77.9184 15.3145C77.8012 15.4772 77.71 15.6139 77.6449 15.7246V21.2617C77.6449 21.4831 77.6872 21.6654 77.7719 21.8086C77.863 21.9518 77.9997 22.0625 78.182 22.1406C78.3253 22.2057 78.4717 22.2546 78.6215 22.2871C78.7777 22.3197 78.947 22.3424 79.1293 22.3555V23H74.4027V22.3555C74.5525 22.3424 74.7087 22.3294 74.8715 22.3164C75.0342 22.2969 75.171 22.2708 75.2816 22.2383C75.4639 22.1797 75.6007 22.0788 75.6918 21.9355C75.7829 21.7858 75.8285 21.5938 75.8285 21.3594V10.1484C75.8285 9.92708 75.7764 9.70573 75.6723 9.48438C75.5746 9.26302 75.4444 9.09701 75.2816 8.98633C75.1645 8.90169 74.9561 8.8431 74.6566 8.81055C74.3637 8.77148 74.126 8.74544 73.9438 8.73242V8.10742L77.5082 7.88281L77.6449 8.0293V14.748H77.684C77.8988 14.5332 78.0941 14.3444 78.2699 14.1816C78.4457 14.0124 78.6768 13.8366 78.9633 13.6543C79.2107 13.498 79.5004 13.3678 79.8324 13.2637C80.171 13.1595 80.5486 13.1074 80.9652 13.1074C81.8246 13.1074 82.4854 13.3809 82.9477 13.9277C83.4099 14.4681 83.641 15.2493 83.641 16.2715V21.2812C83.641 21.5091 83.6801 21.6947 83.7582 21.8379C83.8428 21.9746 83.9796 22.082 84.1684 22.1602C84.3181 22.2188 84.4516 22.2643 84.5688 22.2969C84.6924 22.3229 84.852 22.3424 85.0473 22.3555V23ZM97.7512 22.8242L94.6164 23.0391L94.4699 22.9023V21.6816H94.4113C94.2551 21.8444 94.0793 22.0202 93.884 22.209C93.6887 22.3913 93.4641 22.5573 93.2102 22.707C92.9172 22.8828 92.634 23.0163 92.3605 23.1074C92.0871 23.1986 91.6997 23.2441 91.1984 23.2441C90.3456 23.2441 89.6945 22.9674 89.2453 22.4141C88.8026 21.8542 88.5812 21.0436 88.5812 19.9824V15.373C88.5812 15.1387 88.5357 14.9434 88.4445 14.7871C88.3599 14.6243 88.2329 14.4844 88.0637 14.3672C87.9465 14.2891 87.8 14.2337 87.6242 14.2012C87.4484 14.1621 87.2629 14.1361 87.0676 14.123V13.4883L90.2805 13.2539L90.427 13.3906V20.0801C90.427 20.7767 90.5832 21.3008 90.8957 21.6523C91.2082 22.0039 91.5826 22.1797 92.0187 22.1797C92.3768 22.1797 92.6958 22.1243 92.9758 22.0137C93.2557 21.903 93.4901 21.7728 93.6789 21.623C93.8547 21.4863 94.0077 21.3431 94.1379 21.1934C94.2746 21.0371 94.3788 20.8939 94.4504 20.7637V15.3047C94.4504 15.0898 94.4048 14.901 94.3137 14.7383C94.2225 14.569 94.0956 14.4258 93.9328 14.3086C93.8156 14.2305 93.6398 14.1849 93.4055 14.1719C93.1776 14.1523 92.9204 14.1361 92.634 14.123V13.4883L96.1301 13.2539L96.2766 13.3906V21.0371C96.2766 21.2585 96.3221 21.4473 96.4133 21.6035C96.5044 21.7598 96.6314 21.8932 96.7941 22.0039C96.9113 22.0755 97.0513 22.1243 97.2141 22.1504C97.3768 22.1699 97.5559 22.1829 97.7512 22.1895V22.8242ZM109.908 18.1758C109.908 19.6211 109.452 20.8353 108.541 21.8184C107.63 22.8014 106.572 23.293 105.367 23.293C104.84 23.293 104.319 23.2116 103.805 23.0488C103.297 22.8861 102.818 22.668 102.369 22.3945L101.646 23.5176L101.041 23.3809C101.074 22.8991 101.096 22.3197 101.109 21.6426C101.122 20.9655 101.129 20.3112 101.129 19.6797V10.1484C101.129 9.92708 101.077 9.70573 100.973 9.48438C100.875 9.26302 100.748 9.10352 100.592 9.00586C100.468 8.92122 100.26 8.85938 99.9668 8.82031C99.6803 8.77474 99.4492 8.74544 99.2734 8.73242V8.10742L102.809 7.88281L102.945 8.0293V14.377L103.014 14.3965C103.417 13.9668 103.857 13.6445 104.332 13.4297C104.814 13.2148 105.286 13.1074 105.748 13.1074C106.933 13.1074 107.923 13.5762 108.717 14.5137C109.511 15.4512 109.908 16.6719 109.908 18.1758ZM107.867 18.2441C107.867 17.7624 107.815 17.2708 107.711 16.7695C107.607 16.2682 107.444 15.832 107.223 15.4609C107.001 15.0833 106.712 14.7773 106.354 14.543C105.995 14.3086 105.566 14.1914 105.064 14.1914C104.609 14.1914 104.208 14.2826 103.863 14.4648C103.525 14.6406 103.219 14.8815 102.945 15.1875V20.793C102.984 20.9492 103.059 21.1315 103.17 21.3398C103.287 21.5482 103.443 21.7467 103.639 21.9355C103.834 22.1178 104.055 22.2676 104.303 22.3848C104.55 22.4954 104.853 22.5508 105.211 22.5508C106.005 22.5508 106.646 22.1667 107.135 21.3984C107.623 20.6302 107.867 19.5788 107.867 18.2441Z" fill="#B6A56E"/>
</svg>
