<svg width="263" height="32" viewBox="0 0 263 32" fill="none" xmlns="http://www.w3.org/2000/svg">
<path d="M71.4551 17.1465H67.0508V21.5508H65.8105V17.1465H61.4062V15.9258H65.8105V11.5215H67.0508V15.9258H71.4551V17.1465ZM78.827 25.5645C78.215 25.5645 77.6551 25.4863 77.1473 25.3301C76.6395 25.1803 76.2033 24.9753 75.8387 24.7148C75.4741 24.4544 75.1909 24.1549 74.9891 23.8164C74.7937 23.4779 74.6961 23.1296 74.6961 22.7715C74.6961 22.4525 74.7742 22.166 74.9305 21.9121C75.0867 21.6517 75.3374 21.5215 75.6824 21.5215C76.073 21.5215 76.3693 21.6191 76.5711 21.8145C76.7794 22.0033 76.8836 22.2214 76.8836 22.4688C76.8836 22.6771 76.8478 22.9408 76.7762 23.2598C76.7111 23.5788 76.659 23.8066 76.6199 23.9434C76.6655 24.002 76.7469 24.0801 76.8641 24.1777C76.9878 24.2754 77.1375 24.3633 77.3133 24.4414C77.5216 24.5391 77.7397 24.6172 77.9676 24.6758C78.1954 24.7344 78.5177 24.7637 78.9344 24.7637C79.325 24.7637 79.6993 24.6986 80.0574 24.5684C80.422 24.4382 80.741 24.2298 81.0145 23.9434C81.3009 23.6439 81.5223 23.2923 81.6785 22.8887C81.8413 22.4915 81.9227 21.9674 81.9227 21.3164C81.9227 20.9648 81.8836 20.6165 81.8055 20.2715C81.7339 19.9264 81.5971 19.627 81.3953 19.373C81.1935 19.1191 80.9168 18.9238 80.5652 18.7871C80.2202 18.6439 79.7807 18.5723 79.2469 18.5723H77.9676V17.4492H78.8172C79.7156 17.4492 80.3634 17.2018 80.7605 16.707C81.1577 16.2122 81.3562 15.4668 81.3562 14.4707C81.3562 13.6569 81.1642 13.0449 80.7801 12.6348C80.396 12.2181 79.8523 12.0098 79.1492 12.0098C78.8107 12.0098 78.5307 12.0521 78.3094 12.1367C78.0945 12.2148 77.9187 12.293 77.782 12.3711C77.6193 12.4622 77.4858 12.5632 77.3816 12.6738C77.2775 12.7845 77.1993 12.8659 77.1473 12.918C77.1928 13.1263 77.2482 13.3835 77.3133 13.6895C77.3784 13.9889 77.4109 14.2754 77.4109 14.5488C77.4109 14.7897 77.3068 15.0078 77.0984 15.2031C76.8966 15.3919 76.5971 15.4863 76.2 15.4863C75.8549 15.4863 75.601 15.3626 75.4383 15.1152C75.282 14.8678 75.2039 14.5814 75.2039 14.2559C75.2039 13.9173 75.2983 13.5723 75.4871 13.2207C75.6759 12.8691 75.9559 12.5404 76.327 12.2344C76.698 11.9284 77.1505 11.681 77.6844 11.4922C78.2182 11.3034 78.8335 11.209 79.5301 11.209C80.3309 11.209 80.9917 11.3294 81.5125 11.5703C82.0398 11.8047 82.4533 12.0911 82.7527 12.4297C83.0457 12.7617 83.2475 13.11 83.3582 13.4746C83.4689 13.8392 83.5242 14.1517 83.5242 14.4121C83.5242 14.7376 83.4786 15.0664 83.3875 15.3984C83.2964 15.724 83.1466 16.0267 82.9383 16.3066C82.7104 16.6126 82.4077 16.8926 82.0301 17.1465C81.659 17.3939 81.1902 17.5957 80.6238 17.752V17.9082C80.9884 17.9408 81.3758 18.0221 81.7859 18.1523C82.2026 18.2826 82.577 18.4746 82.909 18.7285C83.254 18.9954 83.5372 19.3405 83.7586 19.7637C83.9799 20.1803 84.0906 20.7109 84.0906 21.3555C84.0906 22.6055 83.5893 23.6178 82.5867 24.3926C81.5841 25.1738 80.3309 25.5645 78.827 25.5645ZM96.3551 12.1562L89.3922 25.5645H88.1715L94.7242 13.1621H90.8863C90.3199 13.1621 89.8772 13.1686 89.5582 13.1816C89.2392 13.1947 88.9462 13.2565 88.6793 13.3672C88.4775 13.4518 88.2952 13.6699 88.1324 14.0215C87.9762 14.3665 87.8557 14.8092 87.7711 15.3496H87.1754V11.5215H96.3551V12.1562ZM105.797 17.4199C106.227 17.7585 106.582 18.1947 106.862 18.7285C107.148 19.2624 107.291 19.9297 107.291 20.7305C107.291 22.1302 106.813 23.2858 105.856 24.1973C104.899 25.1087 103.685 25.5645 102.213 25.5645C101.074 25.5645 100.11 25.2943 99.3227 24.7539C98.5349 24.2135 98.141 23.5853 98.141 22.8691C98.141 22.5371 98.2224 22.2474 98.3852 22C98.5479 21.7526 98.7986 21.6289 99.1371 21.6289C99.5277 21.6289 99.824 21.7331 100.026 21.9414C100.234 22.1432 100.338 22.3646 100.338 22.6055C100.338 22.8138 100.302 23.0742 100.231 23.3867C100.159 23.6992 100.104 23.9303 100.065 24.0801C100.117 24.1257 100.202 24.1875 100.319 24.2656C100.436 24.3438 100.576 24.4186 100.739 24.4902C100.908 24.5618 101.113 24.6237 101.354 24.6758C101.601 24.7344 101.888 24.7637 102.213 24.7637C102.63 24.7637 103.024 24.679 103.395 24.5098C103.766 24.3405 104.079 24.0898 104.332 23.7578C104.612 23.3932 104.821 22.9766 104.957 22.5078C105.101 22.0456 105.172 21.4564 105.172 20.7402C105.172 19.8223 104.915 19.0638 104.401 18.4648C103.893 17.8594 103.222 17.5566 102.389 17.5566C101.868 17.5566 101.38 17.6543 100.924 17.8496C100.475 18.0449 100.071 18.3704 99.7133 18.8262L99.059 18.5723L99.8891 11.5215H106.881V13.2598H100.68L100.172 17.4004C100.465 17.1921 100.849 16.987 101.325 16.7852C101.806 16.5768 102.334 16.4727 102.907 16.4727C103.382 16.4727 103.873 16.5475 104.381 16.6973C104.896 16.8405 105.368 17.0814 105.797 17.4199ZM125.941 21.1211H123.959V25.5645H122.084V21.1211H115.834V19.6172L122.68 11.2676H123.959V19.8418H125.941V21.1211ZM122.084 19.8418V13.4453L116.811 19.8418H122.084ZM138.45 21.1211H136.468V25.5645H134.593V21.1211H128.343V19.6172L135.188 11.2676H136.468V19.8418H138.45V21.1211ZM134.593 19.8418V13.4453L129.319 19.8418H134.593ZM156.983 21.1211H155V25.5645H153.125V21.1211H146.875V19.6172L153.721 11.2676H155V19.8418H156.983V21.1211ZM153.125 19.8418V13.4453L147.852 19.8418H153.125ZM167.138 17.4199C167.568 17.7585 167.922 18.1947 168.202 18.7285C168.489 19.2624 168.632 19.9297 168.632 20.7305C168.632 22.1302 168.154 23.2858 167.196 24.1973C166.239 25.1087 165.025 25.5645 163.554 25.5645C162.415 25.5645 161.451 25.2943 160.663 24.7539C159.876 24.2135 159.482 23.5853 159.482 22.8691C159.482 22.5371 159.563 22.2474 159.726 22C159.889 21.7526 160.139 21.6289 160.478 21.6289C160.868 21.6289 161.165 21.7331 161.366 21.9414C161.575 22.1432 161.679 22.3646 161.679 22.6055C161.679 22.8138 161.643 23.0742 161.571 23.3867C161.5 23.6992 161.445 23.9303 161.405 24.0801C161.458 24.1257 161.542 24.1875 161.659 24.2656C161.777 24.3438 161.917 24.4186 162.079 24.4902C162.249 24.5618 162.454 24.6237 162.695 24.6758C162.942 24.7344 163.228 24.7637 163.554 24.7637C163.971 24.7637 164.364 24.679 164.736 24.5098C165.107 24.3405 165.419 24.0898 165.673 23.7578C165.953 23.3932 166.161 22.9766 166.298 22.5078C166.441 22.0456 166.513 21.4564 166.513 20.7402C166.513 19.8223 166.256 19.0638 165.741 18.4648C165.234 17.8594 164.563 17.5566 163.73 17.5566C163.209 17.5566 162.721 17.6543 162.265 17.8496C161.816 18.0449 161.412 18.3704 161.054 18.8262L160.4 18.5723L161.23 11.5215H168.222V13.2598H162.021L161.513 17.4004C161.806 17.1921 162.19 16.987 162.665 16.7852C163.147 16.5768 163.674 16.4727 164.247 16.4727C164.723 16.4727 165.214 16.5475 165.722 16.6973C166.236 16.8405 166.708 17.0814 167.138 17.4199ZM184.596 22H178.014V21.3066C178.21 21.2936 178.512 21.2676 178.923 21.2285C179.339 21.1829 179.626 21.1374 179.782 21.0918C179.984 21.0267 180.137 20.9225 180.241 20.7793C180.352 20.6296 180.407 20.4082 180.407 20.1152V13.2598H177.975V12.4395H178.512C179.216 12.4395 179.844 12.3092 180.397 12.0488C180.957 11.7884 181.358 11.5085 181.598 11.209H182.409C182.389 11.6322 182.37 12.127 182.35 12.6934C182.331 13.2598 182.321 13.7676 182.321 14.2168V20.0078C182.321 20.2357 182.37 20.4408 182.468 20.623C182.572 20.7988 182.718 20.929 182.907 21.0137C183.076 21.0853 183.353 21.1504 183.737 21.209C184.121 21.2676 184.408 21.3001 184.596 21.3066V22ZM196.519 12.8789C196.936 13.3802 197.245 13.9694 197.447 14.6465C197.655 15.3171 197.759 16.0202 197.759 16.7559C197.759 17.6413 197.632 18.4355 197.379 19.1387C197.125 19.8353 196.776 20.4147 196.334 20.877C195.878 21.3522 195.338 21.7103 194.713 21.9512C194.088 22.1921 193.391 22.3125 192.623 22.3125C191.783 22.3125 191.034 22.1725 190.377 21.8926C189.719 21.6126 189.185 21.2285 188.775 20.7402C188.345 20.2324 188.023 19.64 187.808 18.9629C187.6 18.2793 187.496 17.5436 187.496 16.7559C187.496 15.9811 187.597 15.2682 187.798 14.6172C188.007 13.9661 188.329 13.377 188.765 12.8496C189.182 12.3418 189.719 11.9414 190.377 11.6484C191.034 11.3555 191.786 11.209 192.632 11.209C193.524 11.209 194.289 11.3587 194.927 11.6582C195.565 11.9577 196.096 12.3646 196.519 12.8789ZM195.601 16.7559C195.601 15.2064 195.334 14.0052 194.8 13.1523C194.273 12.2995 193.554 11.873 192.642 11.873C191.718 11.873 190.989 12.2995 190.455 13.1523C189.921 14.0052 189.654 15.2064 189.654 16.7559C189.654 18.2272 189.908 19.4121 190.416 20.3105C190.93 21.2025 191.666 21.6484 192.623 21.6484C193.58 21.6484 194.315 21.2025 194.83 20.3105C195.344 19.4121 195.601 18.2272 195.601 16.7559ZM214.232 17.4199C214.661 17.7585 215.016 18.1947 215.296 18.7285C215.583 19.2624 215.726 19.9297 215.726 20.7305C215.726 22.1302 215.247 23.2858 214.29 24.1973C213.333 25.1087 212.119 25.5645 210.648 25.5645C209.508 25.5645 208.545 25.2943 207.757 24.7539C206.969 24.2135 206.575 23.5853 206.575 22.8691C206.575 22.5371 206.657 22.2474 206.82 22C206.982 21.7526 207.233 21.6289 207.571 21.6289C207.962 21.6289 208.258 21.7331 208.46 21.9414C208.668 22.1432 208.773 22.3646 208.773 22.6055C208.773 22.8138 208.737 23.0742 208.665 23.3867C208.594 23.6992 208.538 23.9303 208.499 24.0801C208.551 24.1257 208.636 24.1875 208.753 24.2656C208.87 24.3438 209.01 24.4186 209.173 24.4902C209.342 24.5618 209.547 24.6237 209.788 24.6758C210.036 24.7344 210.322 24.7637 210.648 24.7637C211.064 24.7637 211.458 24.679 211.829 24.5098C212.2 24.3405 212.513 24.0898 212.767 23.7578C213.047 23.3932 213.255 22.9766 213.392 22.5078C213.535 22.0456 213.607 21.4564 213.607 20.7402C213.607 19.8223 213.349 19.0638 212.835 18.4648C212.327 17.8594 211.657 17.5566 210.823 17.5566C210.303 17.5566 209.814 17.6543 209.359 17.8496C208.909 18.0449 208.506 18.3704 208.148 18.8262L207.493 18.5723L208.323 11.5215H215.316V13.2598H209.114L208.607 17.4004C208.9 17.1921 209.284 16.987 209.759 16.7852C210.241 16.5768 210.768 16.4727 211.341 16.4727C211.816 16.4727 212.308 16.5475 212.816 16.6973C213.33 16.8405 213.802 17.0814 214.232 17.4199ZM228.352 21.1211H226.369V25.5645H224.494V21.1211H218.244V19.6172L225.09 11.2676H226.369V19.8418H228.352V21.1211ZM224.494 19.8418V13.4453L219.221 19.8418H224.494ZM240.304 12.8789C240.72 13.3802 241.029 13.9694 241.231 14.6465C241.44 15.3171 241.544 16.0202 241.544 16.7559C241.544 17.6413 241.417 18.4355 241.163 19.1387C240.909 19.8353 240.561 20.4147 240.118 20.877C239.662 21.3522 239.122 21.7103 238.497 21.9512C237.872 22.1921 237.175 22.3125 236.407 22.3125C235.567 22.3125 234.818 22.1725 234.161 21.8926C233.503 21.6126 232.97 21.2285 232.559 20.7402C232.13 20.2324 231.807 19.64 231.593 18.9629C231.384 18.2793 231.28 17.5436 231.28 16.7559C231.28 15.9811 231.381 15.2682 231.583 14.6172C231.791 13.9661 232.113 13.377 232.55 12.8496C232.966 12.3418 233.503 11.9414 234.161 11.6484C234.818 11.3555 235.57 11.209 236.417 11.209C237.309 11.209 238.074 11.3587 238.712 11.6582C239.35 11.9577 239.88 12.3646 240.304 12.8789ZM239.386 16.7559C239.386 15.2064 239.119 14.0052 238.585 13.1523C238.057 12.2995 237.338 11.873 236.427 11.873C235.502 11.873 234.773 12.2995 234.239 13.1523C233.705 14.0052 233.438 15.2064 233.438 16.7559C233.438 18.2272 233.692 19.4121 234.2 20.3105C234.714 21.2025 235.45 21.6484 236.407 21.6484C237.364 21.6484 238.1 21.2025 238.614 20.3105C239.128 19.4121 239.386 18.2272 239.386 16.7559Z" fill="#B6A56E"/>
<path d="M39.9461 8.89543L37.5102 2.9049C37.4685 2.80251 37.4043 2.71139 37.3226 2.63868C37.2408 2.56598 37.1437 2.51367 37.0389 2.48585L34.111 1.70799C25.5388 -0.569376 14.4609 -0.569281 5.88906 1.70799L2.96105 2.48585C2.85626 2.51367 2.75918 2.56598 2.67743 2.63868C2.59568 2.71139 2.53147 2.80251 2.48984 2.9049L0.0539764 8.89543C-0.0131281 9.06038 -0.0178273 9.24503 0.0407965 9.41333L1.01509 12.2089C1.07166 12.3713 1.18339 12.5075 1.32986 12.5925C1.47633 12.6775 1.64776 12.7056 1.8128 12.6717L11.0692 10.7747C11.2084 10.7462 11.3359 10.675 11.4348 10.5706C11.5337 10.4661 11.5993 10.3334 11.623 10.19L12.4245 5.32594C16.8365 4.18994 23.1635 4.18994 27.5753 5.32594L28.3769 10.19C28.4006 10.3335 28.4662 10.4663 28.5651 10.5707C28.664 10.6751 28.7915 10.7463 28.9307 10.7748L38.187 12.6718C38.352 12.7056 38.5234 12.6774 38.6699 12.5924C38.8164 12.5075 38.9281 12.3714 38.9848 12.209L39.9592 9.41343C40.0178 9.2451 40.0131 9.06043 39.9461 8.89543ZM2.13193 11.1412L1.63183 9.70624L10.5973 7.78606L10.321 9.46295L2.13193 11.1412ZM11.6222 4.0568C11.4935 4.09314 11.3777 4.16636 11.2883 4.26784C11.1989 4.36933 11.1396 4.49486 11.1174 4.62969L10.848 6.26453L1.85991 8.1896L3.65015 3.78707L6.2409 3.09877C14.5991 0.878304 25.4007 0.878208 33.7593 3.09877L36.35 3.78707L38.1403 8.1896L29.1522 6.26453L28.8828 4.62969C28.8606 4.49487 28.8013 4.36936 28.7119 4.26788C28.6224 4.1664 28.5066 4.09318 28.378 4.0568C23.6016 2.70615 16.3984 2.70615 11.6222 4.0568ZM37.8681 11.1412L29.6792 9.46295L29.4028 7.78606L38.3682 9.70624L37.8681 11.1412Z" fill="#B6A56E"/>
<path d="M33.2901 13.1186C33.261 12.9842 33.1948 12.8612 33.0995 12.7643C33.0041 12.6673 32.8836 12.6005 32.7522 12.5717L27.9776 11.526L27.3764 7.51395C27.351 7.34431 27.2672 7.18959 27.1401 7.07781C27.013 6.96603 26.851 6.90458 26.6835 6.90458H24.814V5.96398C24.814 5.56724 24.5002 5.2456 24.1129 5.2456C23.7257 5.2456 23.4119 5.56724 23.4119 5.96398V6.90458H16.5882V5.96398C16.5882 5.56724 16.2744 5.2456 15.8871 5.2456C15.4999 5.2456 15.1861 5.56724 15.1861 5.96398V6.90458H13.3166C13.1491 6.90458 12.9871 6.96603 12.86 7.07781C12.7329 7.18959 12.6491 7.34431 12.6237 7.51395L12.0224 11.526L7.24791 12.5717C7.11654 12.6005 6.996 12.6673 6.90063 12.7643C6.80527 12.8612 6.73908 12.9842 6.70996 13.1186L3.46796 28.0878C3.45692 28.1389 3.45134 28.1911 3.45132 28.2434V31.2816C3.45132 31.4721 3.52519 31.6549 3.65666 31.7896C3.78814 31.9243 3.96645 32 4.15239 32H35.8477C36.0336 32 36.212 31.9243 36.3434 31.7896C36.4749 31.6549 36.5488 31.4721 36.5488 31.2816V28.2434C36.5488 28.1911 36.5432 28.1389 36.5321 28.0878L33.2901 13.1186ZM7.98131 13.8802L12.7885 12.8273C12.9276 12.7968 13.0544 12.7238 13.152 12.6178C13.2496 12.5118 13.3134 12.3779 13.335 12.2338L13.9183 8.34134H26.0819L26.6651 12.2338C26.6867 12.3779 26.7505 12.5118 26.8481 12.6178C26.9457 12.7238 27.0725 12.7968 27.2115 12.8273L32.0189 13.8802L34.9741 27.5251H5.0261L7.98131 13.8802ZM11.7966 28.9618L10.8935 30.5632H9.82782L10.7309 28.9618H11.7966ZM13.416 28.9618H28.6721L27.769 30.5632H12.513L13.416 28.9618ZM4.85345 28.9618H9.11142L8.20836 30.5632H4.85345V28.9618ZM29.3885 30.5632L30.2916 28.9618H35.1466V30.5632H29.3885Z" fill="#B6A56E"/>
<path d="M20 26.1606C24.1492 26.1606 27.5248 22.7016 27.5248 18.45C27.5248 14.1983 24.1492 10.7393 20 10.7393C15.8509 10.7393 12.4753 14.1983 12.4753 18.45C12.4753 22.7016 15.8509 26.1606 20 26.1606ZM20 12.1761C23.3761 12.1761 26.1227 14.9905 26.1227 18.45C26.1227 21.9094 23.3761 24.7238 20 24.7238C16.624 24.7238 13.8774 21.9094 13.8774 18.45C13.8774 14.9905 16.624 12.1761 20 12.1761Z" fill="#B6A56E"/>
<path d="M20 21.1847C21.4717 21.1847 22.6691 19.9578 22.6691 18.4497C22.6691 16.9416 21.4717 15.7147 20 15.7147C18.5283 15.7147 17.3309 16.9416 17.3309 18.4497C17.3309 19.9578 18.5283 21.1847 20 21.1847ZM20 17.1514C20.6987 17.1514 21.267 17.7338 21.267 18.4497C21.267 19.1656 20.6987 19.7479 20 19.7479C19.3014 19.7479 18.733 19.1656 18.733 18.4497C18.733 17.7339 19.3014 17.1514 20 17.1514Z" fill="#B6A56E"/>
</svg>
