<svg width="262" height="45" viewBox="0 0 262 45" fill="none" xmlns="http://www.w3.org/2000/svg">
<path d="M30.9707 18.1445C30.9707 17.819 31.0586 17.5521 31.2344 17.3438C31.4167 17.1419 31.6413 17.041 31.9082 17.041C32.1165 17.041 32.2956 17.0801 32.4453 17.1582C32.5951 17.2363 32.7285 17.3372 32.8457 17.4609C32.9434 17.5586 33.0475 17.6921 33.1582 17.8613C33.2689 18.0306 33.3568 18.1706 33.4219 18.2812C33.7474 18.1055 34.1348 17.6465 34.584 16.9043C35.0397 16.1621 35.3685 15.5111 35.5703 14.9512C34.9518 13.4082 34.3919 12.028 33.8906 10.8105C33.3893 9.5931 32.8652 8.33333 32.3184 7.03125C32.1947 6.73177 31.9863 6.50065 31.6934 6.33789C31.4004 6.16862 31.1074 6.0612 30.8145 6.01562V5.37109H35.209V6.05469C35.0137 6.0612 34.7793 6.10352 34.5059 6.18164C34.2324 6.25326 34.0957 6.33789 34.0957 6.43555C34.0957 6.47461 34.1087 6.53971 34.1348 6.63086C34.1673 6.72201 34.2031 6.81641 34.2422 6.91406C34.4896 7.55859 34.8672 8.48958 35.375 9.70703C35.8828 10.918 36.2767 11.888 36.5566 12.6172C36.8496 11.9206 37.1523 11.2012 37.4648 10.459C37.7839 9.71029 38.1387 8.82812 38.5293 7.8125C38.5749 7.6888 38.64 7.51953 38.7246 7.30469C38.8092 7.08333 38.8516 6.89453 38.8516 6.73828C38.8516 6.56901 38.7018 6.41276 38.4023 6.26953C38.1094 6.11979 37.8294 6.02865 37.5625 5.99609V5.37109H41.1367V5.97656C40.9414 6.00911 40.6842 6.12305 40.3652 6.31836C40.0462 6.50716 39.8086 6.77734 39.6523 7.12891C38.8776 8.92578 38.1875 10.5632 37.582 12.041C36.9831 13.5189 36.5273 14.6061 36.2148 15.3027C35.8047 16.2142 35.4368 16.9238 35.1113 17.4316C34.7923 17.946 34.4798 18.3496 34.1738 18.6426C33.8743 18.916 33.6009 19.0983 33.3535 19.1895C33.1126 19.2871 32.862 19.3359 32.6016 19.3359C32.0938 19.3359 31.6934 19.2155 31.4004 18.9746C31.1139 18.7337 30.9707 18.457 30.9707 18.1445ZM52.9812 15H48.2742V14.3555C48.424 14.3424 48.577 14.3294 48.7332 14.3164C48.8895 14.3034 49.0262 14.2773 49.1434 14.2383C49.3257 14.1797 49.4656 14.0788 49.5633 13.9355C49.6609 13.7858 49.7098 13.5938 49.7098 13.3594V6.17188H47.034C47.034 7.76042 46.9233 9.1276 46.702 10.2734C46.4806 11.4193 46.1941 12.3535 45.8426 13.0762C45.4975 13.7858 45.1069 14.3164 44.6707 14.668C44.2345 15.0195 43.7885 15.1953 43.3328 15.1953C42.8641 15.1953 42.5092 15.0749 42.2684 14.834C42.0275 14.5866 41.907 14.3001 41.907 13.9746C41.907 13.7402 41.9819 13.5189 42.1316 13.3105C42.2879 13.1022 42.5125 12.998 42.8055 12.998C43.0789 12.998 43.3263 13.0762 43.5477 13.2324C43.769 13.3887 43.9839 13.6068 44.1922 13.8867C44.3484 13.7435 44.5307 13.4798 44.7391 13.0957C44.9539 12.7051 45.1492 12.2233 45.325 11.6504C45.5203 11.0319 45.6798 10.3906 45.8035 9.72656C45.9272 9.0625 45.9891 8.30078 45.9891 7.44141C45.9891 7.10286 45.9467 6.85221 45.8621 6.68945C45.7775 6.52669 45.644 6.39974 45.4617 6.30859C45.338 6.24349 45.1362 6.1849 44.8562 6.13281C44.5763 6.07422 44.3484 6.03516 44.1727 6.01562V5.37109H52.9422V6.01562C52.7534 6.02865 52.5874 6.04492 52.4441 6.06445C52.3074 6.08398 52.1805 6.10677 52.0633 6.13281C51.881 6.1849 51.7443 6.28906 51.6531 6.44531C51.5685 6.59505 51.5262 6.78385 51.5262 7.01172V13.2617C51.5262 13.4896 51.5652 13.6751 51.6434 13.8184C51.7215 13.9551 51.8549 14.0625 52.0437 14.1406C52.1805 14.2057 52.327 14.2546 52.4832 14.2871C52.646 14.3197 52.812 14.3424 52.9812 14.3555V15ZM58.9176 13.877C58.9176 14.2415 58.7841 14.554 58.5172 14.8145C58.2568 15.0684 57.9443 15.1953 57.5797 15.1953C57.2151 15.1953 56.8993 15.0684 56.6324 14.8145C56.372 14.554 56.2418 14.2415 56.2418 13.877C56.2418 13.5124 56.372 13.1999 56.6324 12.9395C56.8993 12.6725 57.2151 12.5391 57.5797 12.5391C57.9443 12.5391 58.2568 12.6725 58.5172 12.9395C58.7841 13.1999 58.9176 13.5124 58.9176 13.877ZM85.1164 15H78.9934V14.3066C79.2147 14.3001 79.4979 14.2773 79.843 14.2383C80.1945 14.1992 80.4354 14.1439 80.5656 14.0723C80.7674 13.9486 80.9139 13.8086 81.0051 13.6523C81.1027 13.4896 81.1516 13.2878 81.1516 13.0469V2.96875H81.0051L76.2785 14.7754H75.7902L71.2883 2.72461H71.1613V10.9961C71.1613 11.7969 71.2102 12.4056 71.3078 12.8223C71.412 13.2389 71.5682 13.5384 71.7766 13.7207C71.9198 13.8574 72.216 13.9876 72.6652 14.1113C73.1145 14.235 73.4074 14.3001 73.5441 14.3066V15H67.9484V14.3066C68.2414 14.2806 68.5474 14.2318 68.8664 14.1602C69.1919 14.0885 69.4426 13.9811 69.6184 13.8379C69.8462 13.6556 70.0025 13.3757 70.0871 12.998C70.1717 12.6204 70.2141 11.9889 70.2141 11.1035V4.01367C70.2141 3.60352 70.1652 3.26823 70.0676 3.00781C69.9699 2.7474 69.8299 2.53581 69.6477 2.37305C69.4458 2.19727 69.1984 2.06706 68.9055 1.98242C68.6125 1.89779 68.3228 1.84896 68.0363 1.83594V1.14258H72.7629L76.7277 11.5332L80.1164 2.8418C80.2401 2.52279 80.3443 2.19076 80.4289 1.8457C80.5201 1.49414 80.5689 1.25977 80.5754 1.14258H85.0969V1.83594C84.9146 1.84245 84.6802 1.87174 84.3937 1.92383C84.1138 1.97591 83.9087 2.02474 83.7785 2.07031C83.5572 2.14844 83.4074 2.27865 83.3293 2.46094C83.2512 2.64323 83.2121 2.8418 83.2121 3.05664V13.0469C83.2121 13.2747 83.2512 13.4668 83.3293 13.623C83.4074 13.7793 83.5572 13.916 83.7785 14.0332C83.8957 14.0983 84.104 14.1602 84.4035 14.2188C84.703 14.2708 84.9406 14.3001 85.1164 14.3066V15ZM97.3223 10.0879C97.3223 10.765 97.2148 11.4323 97 12.0898C96.7852 12.7409 96.4792 13.2943 96.082 13.75C95.6328 14.2708 95.112 14.6582 94.5195 14.9121C93.9271 15.166 93.263 15.293 92.5273 15.293C91.9154 15.293 91.3327 15.179 90.7793 14.9512C90.2259 14.7168 89.7344 14.3783 89.3047 13.9355C88.8815 13.4993 88.543 12.9688 88.2891 12.3438C88.0417 11.7122 87.918 11.0059 87.918 10.2246C87.918 8.7207 88.3542 7.49023 89.2266 6.5332C90.1055 5.57617 91.2546 5.09766 92.6738 5.09766C94.0215 5.09766 95.1315 5.55339 96.0039 6.46484C96.8828 7.36979 97.3223 8.57747 97.3223 10.0879ZM95.3008 10.1074C95.3008 9.61914 95.252 9.10482 95.1543 8.56445C95.0566 8.01758 94.9102 7.55534 94.7148 7.17773C94.5065 6.77409 94.2331 6.45182 93.8945 6.21094C93.556 5.96354 93.1426 5.83984 92.6543 5.83984C92.153 5.83984 91.7233 5.96354 91.3652 6.21094C91.0137 6.45833 90.7272 6.79688 90.5059 7.22656C90.2975 7.6237 90.151 8.07617 90.0664 8.58398C89.9818 9.0918 89.9395 9.58333 89.9395 10.0586C89.9395 10.6836 89.9883 11.263 90.0859 11.7969C90.1901 12.3242 90.3529 12.7962 90.5742 13.2129C90.7956 13.6296 91.0723 13.9583 91.4043 14.1992C91.7428 14.4336 92.1595 14.5508 92.6543 14.5508C93.4681 14.5508 94.1126 14.1569 94.5879 13.3691C95.0632 12.5814 95.3008 11.4941 95.3008 10.1074ZM104.372 15.2539C102.979 15.2539 101.888 14.7917 101.1 13.8672C100.313 12.9427 99.9187 11.7025 99.9187 10.1465C99.9187 9.4694 100.023 8.83789 100.231 8.25195C100.446 7.65951 100.755 7.1224 101.159 6.64062C101.543 6.17839 102.025 5.80729 102.604 5.52734C103.184 5.24089 103.815 5.09766 104.499 5.09766C105.443 5.09766 106.211 5.32552 106.804 5.78125C107.396 6.23047 107.692 6.8457 107.692 7.62695C107.692 7.95247 107.614 8.24219 107.458 8.49609C107.302 8.74349 107.044 8.86719 106.686 8.86719C106.302 8.86719 106.003 8.76953 105.788 8.57422C105.58 8.37891 105.475 8.16081 105.475 7.91992C105.475 7.62695 105.514 7.32747 105.593 7.02148C105.671 6.70898 105.716 6.48112 105.729 6.33789C105.612 6.13607 105.436 6.0026 105.202 5.9375C104.974 5.86589 104.727 5.83008 104.46 5.83008C104.147 5.83008 103.848 5.89844 103.561 6.03516C103.281 6.16536 103.008 6.40951 102.741 6.76758C102.5 7.0931 102.305 7.53255 102.155 8.08594C102.005 8.63932 101.93 9.30013 101.93 10.0684C101.93 11.2793 102.197 12.2689 102.731 13.0371C103.272 13.7988 103.978 14.1797 104.85 14.1797C105.482 14.1797 106.009 14.0267 106.432 13.7207C106.862 13.4147 107.259 12.9557 107.624 12.3438L108.249 12.7539C107.819 13.5221 107.253 14.1309 106.55 14.5801C105.846 15.0293 105.121 15.2539 104.372 15.2539ZM120.416 15H117.105C116.942 14.4661 116.796 14.0104 116.666 13.6328C116.535 13.2487 116.343 12.806 116.089 12.3047C115.783 11.6927 115.445 11.25 115.074 10.9766C114.709 10.7031 114.237 10.5664 113.658 10.5664H113.433V13.2617C113.433 13.4831 113.479 13.6654 113.57 13.8086C113.661 13.9518 113.798 14.0625 113.98 14.1406C114.117 14.2057 114.263 14.2546 114.42 14.2871C114.582 14.3197 114.748 14.3424 114.918 14.3555V15H110.22V14.3555C110.37 14.3424 110.523 14.3294 110.679 14.3164C110.842 14.3034 110.982 14.2773 111.099 14.2383C111.282 14.1797 111.415 14.0788 111.5 13.9355C111.591 13.7858 111.636 13.5938 111.636 13.3594V7.10938C111.636 6.89453 111.591 6.71549 111.5 6.57227C111.408 6.42253 111.272 6.30859 111.089 6.23047C110.92 6.15234 110.754 6.10026 110.591 6.07422C110.435 6.04818 110.289 6.02865 110.152 6.01562V5.37109H114.849V6.01562C114.66 6.02865 114.494 6.04492 114.351 6.06445C114.214 6.08398 114.088 6.10677 113.97 6.13281C113.788 6.1849 113.651 6.28906 113.56 6.44531C113.476 6.59505 113.433 6.78385 113.433 7.01172V9.83398H114.048C114.263 9.83398 114.478 9.79167 114.693 9.70703C114.908 9.6224 115.087 9.50521 115.23 9.35547C115.412 9.16016 115.575 8.90299 115.718 8.58398C115.862 8.26497 115.982 7.96549 116.08 7.68555C116.184 7.39258 116.301 7.08984 116.431 6.77734C116.568 6.46484 116.705 6.22396 116.841 6.05469C117.082 5.76172 117.339 5.55664 117.613 5.43945C117.893 5.31576 118.199 5.25391 118.531 5.25391C119.032 5.25391 119.4 5.36133 119.634 5.57617C119.869 5.79102 119.986 6.0612 119.986 6.38672C119.986 6.66667 119.892 6.90755 119.703 7.10938C119.52 7.3112 119.276 7.41211 118.97 7.41211C118.677 7.41211 118.446 7.33724 118.277 7.1875C118.114 7.03776 117.886 6.78711 117.593 6.43555C117.47 6.54622 117.349 6.7806 117.232 7.13867C117.121 7.49023 117.014 7.79948 116.91 8.06641C116.714 8.59375 116.513 9.00065 116.304 9.28711C116.102 9.57357 115.865 9.80469 115.591 9.98047V10.1074C116.184 10.2246 116.653 10.4395 116.998 10.752C117.349 11.0645 117.645 11.4583 117.886 11.9336C118.004 12.1615 118.134 12.4414 118.277 12.7734C118.427 13.099 118.524 13.3138 118.57 13.418C118.7 13.7109 118.856 13.9128 119.039 14.0234C119.221 14.1276 119.39 14.1927 119.546 14.2188C119.696 14.2513 119.846 14.2806 119.996 14.3066C120.152 14.3262 120.292 14.3424 120.416 14.3555V15ZM131.821 10.0879C131.821 10.765 131.713 11.4323 131.498 12.0898C131.284 12.7409 130.978 13.2943 130.58 13.75C130.131 14.2708 129.61 14.6582 129.018 14.9121C128.426 15.166 127.761 15.293 127.026 15.293C126.414 15.293 125.831 15.179 125.278 14.9512C124.724 14.7168 124.233 14.3783 123.803 13.9355C123.38 13.4993 123.041 12.9688 122.787 12.3438C122.54 11.7122 122.416 11.0059 122.416 10.2246C122.416 8.7207 122.853 7.49023 123.725 6.5332C124.604 5.57617 125.753 5.09766 127.172 5.09766C128.52 5.09766 129.63 5.55339 130.502 6.46484C131.381 7.36979 131.821 8.57747 131.821 10.0879ZM129.799 10.1074C129.799 9.61914 129.75 9.10482 129.653 8.56445C129.555 8.01758 129.409 7.55534 129.213 7.17773C129.005 6.77409 128.732 6.45182 128.393 6.21094C128.054 5.96354 127.641 5.83984 127.153 5.83984C126.651 5.83984 126.222 5.96354 125.864 6.21094C125.512 6.45833 125.226 6.79688 125.004 7.22656C124.796 7.6237 124.649 8.07617 124.565 8.58398C124.48 9.0918 124.438 9.58333 124.438 10.0586C124.438 10.6836 124.487 11.263 124.584 11.7969C124.689 12.3242 124.851 12.7962 125.073 13.2129C125.294 13.6296 125.571 13.9583 125.903 14.1992C126.241 14.4336 126.658 14.5508 127.153 14.5508C127.967 14.5508 128.611 14.1569 129.086 13.3691C129.562 12.5814 129.799 11.4941 129.799 10.1074ZM141.38 12.168C141.38 11.5951 141.168 11.1426 140.745 10.8105C140.322 10.4785 139.717 10.3125 138.929 10.3125C138.584 10.3125 138.31 10.319 138.109 10.332C137.913 10.3451 137.76 10.3516 137.65 10.3516V13.5352C137.65 13.7891 137.757 13.9876 137.972 14.1309C138.187 14.2676 138.515 14.3359 138.958 14.3359C139.427 14.3359 139.824 14.2741 140.15 14.1504C140.475 14.0267 140.729 13.8574 140.911 13.6426C141.087 13.4342 141.208 13.2064 141.273 12.959C141.344 12.7116 141.38 12.4479 141.38 12.168ZM143.333 12.3145C143.333 12.7897 143.226 13.1999 143.011 13.5449C142.796 13.89 142.5 14.1732 142.122 14.3945C141.777 14.5964 141.383 14.7493 140.941 14.8535C140.498 14.9512 140.026 15 139.525 15H134.437V14.3555C134.586 14.3424 134.739 14.3294 134.896 14.3164C135.058 14.3034 135.198 14.2773 135.316 14.2383C135.498 14.1797 135.631 14.0788 135.716 13.9355C135.807 13.7858 135.853 13.5938 135.853 13.3594V7.10938C135.853 6.89453 135.807 6.71549 135.716 6.57227C135.625 6.42253 135.488 6.30859 135.306 6.23047C135.137 6.15234 134.971 6.10026 134.808 6.07422C134.652 6.04818 134.505 6.02865 134.368 6.01562V5.37109C134.948 5.37109 135.664 5.36784 136.517 5.36133C137.376 5.35482 138.271 5.35156 139.202 5.35156C139.697 5.35156 140.156 5.38737 140.579 5.45898C141.009 5.52409 141.39 5.63802 141.722 5.80078C142.067 5.97005 142.334 6.20117 142.523 6.49414C142.711 6.7806 142.806 7.12891 142.806 7.53906C142.806 8.18359 142.604 8.69466 142.2 9.07227C141.803 9.44336 141.279 9.69727 140.628 9.83398V9.94141C140.96 9.98698 141.286 10.0618 141.605 10.166C141.93 10.2702 142.22 10.4134 142.474 10.5957C142.734 10.7845 142.943 11.0189 143.099 11.2988C143.255 11.5723 143.333 11.9108 143.333 12.3145ZM140.872 7.61719C140.872 7.29167 140.81 7.02799 140.687 6.82617C140.57 6.61784 140.41 6.45508 140.208 6.33789C140.006 6.2207 139.779 6.14258 139.525 6.10352C139.277 6.05794 139.02 6.03516 138.753 6.03516C138.584 6.03516 138.395 6.04167 138.187 6.05469C137.985 6.0612 137.806 6.06771 137.65 6.07422V9.58984H138.597C139.046 9.58984 139.424 9.53776 139.73 9.43359C140.036 9.32943 140.267 9.18945 140.423 9.01367C140.586 8.8444 140.7 8.64258 140.765 8.4082C140.836 8.17383 140.872 7.91016 140.872 7.61719ZM150.441 15.2539C149.048 15.2539 147.958 14.7917 147.17 13.8672C146.382 12.9427 145.988 11.7025 145.988 10.1465C145.988 9.4694 146.092 8.83789 146.301 8.25195C146.516 7.65951 146.825 7.1224 147.229 6.64062C147.613 6.17839 148.094 5.80729 148.674 5.52734C149.253 5.24089 149.885 5.09766 150.568 5.09766C151.512 5.09766 152.281 5.32552 152.873 5.78125C153.465 6.23047 153.762 6.8457 153.762 7.62695C153.762 7.95247 153.684 8.24219 153.527 8.49609C153.371 8.74349 153.114 8.86719 152.756 8.86719C152.372 8.86719 152.072 8.76953 151.857 8.57422C151.649 8.37891 151.545 8.16081 151.545 7.91992C151.545 7.62695 151.584 7.32747 151.662 7.02148C151.74 6.70898 151.786 6.48112 151.799 6.33789C151.682 6.13607 151.506 6.0026 151.271 5.9375C151.044 5.86589 150.796 5.83008 150.529 5.83008C150.217 5.83008 149.917 5.89844 149.631 6.03516C149.351 6.16536 149.077 6.40951 148.811 6.76758C148.57 7.0931 148.374 7.53255 148.225 8.08594C148.075 8.63932 148 9.30013 148 10.0684C148 11.2793 148.267 12.2689 148.801 13.0371C149.341 13.7988 150.048 14.1797 150.92 14.1797C151.551 14.1797 152.079 14.0267 152.502 13.7207C152.932 13.4147 153.329 12.9557 153.693 12.3438L154.318 12.7539C153.889 13.5221 153.322 14.1309 152.619 14.5801C151.916 15.0293 151.19 15.2539 150.441 15.2539ZM166.485 15H163.175C163.012 14.4661 162.865 14.0104 162.735 13.6328C162.605 13.2487 162.413 12.806 162.159 12.3047C161.853 11.6927 161.514 11.25 161.143 10.9766C160.779 10.7031 160.307 10.5664 159.727 10.5664H159.503V13.2617C159.503 13.4831 159.548 13.6654 159.639 13.8086C159.731 13.9518 159.867 14.0625 160.05 14.1406C160.186 14.2057 160.333 14.2546 160.489 14.2871C160.652 14.3197 160.818 14.3424 160.987 14.3555V15H156.29V14.3555C156.44 14.3424 156.593 14.3294 156.749 14.3164C156.912 14.3034 157.052 14.2773 157.169 14.2383C157.351 14.1797 157.485 14.0788 157.569 13.9355C157.66 13.7858 157.706 13.5938 157.706 13.3594V7.10938C157.706 6.89453 157.66 6.71549 157.569 6.57227C157.478 6.42253 157.341 6.30859 157.159 6.23047C156.99 6.15234 156.824 6.10026 156.661 6.07422C156.505 6.04818 156.358 6.02865 156.221 6.01562V5.37109H160.919V6.01562C160.73 6.02865 160.564 6.04492 160.421 6.06445C160.284 6.08398 160.157 6.10677 160.04 6.13281C159.858 6.1849 159.721 6.28906 159.63 6.44531C159.545 6.59505 159.503 6.78385 159.503 7.01172V9.83398H160.118C160.333 9.83398 160.548 9.79167 160.762 9.70703C160.977 9.6224 161.156 9.50521 161.3 9.35547C161.482 9.16016 161.645 8.90299 161.788 8.58398C161.931 8.26497 162.052 7.96549 162.149 7.68555C162.253 7.39258 162.371 7.08984 162.501 6.77734C162.637 6.46484 162.774 6.22396 162.911 6.05469C163.152 5.76172 163.409 5.55664 163.682 5.43945C163.962 5.31576 164.268 5.25391 164.6 5.25391C165.102 5.25391 165.47 5.36133 165.704 5.57617C165.938 5.79102 166.055 6.0612 166.055 6.38672C166.055 6.66667 165.961 6.90755 165.772 7.10938C165.59 7.3112 165.346 7.41211 165.04 7.41211C164.747 7.41211 164.516 7.33724 164.346 7.1875C164.184 7.03776 163.956 6.78711 163.663 6.43555C163.539 6.54622 163.419 6.7806 163.302 7.13867C163.191 7.49023 163.083 7.79948 162.979 8.06641C162.784 8.59375 162.582 9.00065 162.374 9.28711C162.172 9.57357 161.934 9.80469 161.661 9.98047V10.1074C162.253 10.2246 162.722 10.4395 163.067 10.752C163.419 11.0645 163.715 11.4583 163.956 11.9336C164.073 12.1615 164.203 12.4414 164.346 12.7734C164.496 13.099 164.594 13.3138 164.639 13.418C164.77 13.7109 164.926 13.9128 165.108 14.0234C165.29 14.1276 165.46 14.1927 165.616 14.2188C165.766 14.2513 165.915 14.2806 166.065 14.3066C166.221 14.3262 166.361 14.3424 166.485 14.3555V15ZM177.627 14.8242C177.321 14.9349 177.05 15.0228 176.816 15.0879C176.588 15.1595 176.328 15.1953 176.035 15.1953C175.527 15.1953 175.12 15.0781 174.814 14.8438C174.515 14.6029 174.323 14.2546 174.238 13.7988H174.179C173.756 14.2676 173.3 14.6257 172.812 14.873C172.33 15.1204 171.748 15.2441 171.064 15.2441C170.341 15.2441 169.746 15.0228 169.277 14.5801C168.815 14.1374 168.584 13.5579 168.584 12.8418C168.584 12.4707 168.636 12.1387 168.74 11.8457C168.844 11.5527 169 11.2891 169.209 11.0547C169.371 10.8594 169.586 10.6868 169.853 10.5371C170.12 10.3809 170.371 10.2572 170.605 10.166C170.898 10.0553 171.49 9.85026 172.382 9.55078C173.281 9.2513 173.886 9.01693 174.199 8.84766V7.88086C174.199 7.79622 174.179 7.63346 174.14 7.39258C174.108 7.15169 174.033 6.92383 173.916 6.70898C173.785 6.4681 173.6 6.25977 173.359 6.08398C173.125 5.90169 172.789 5.81055 172.353 5.81055C172.054 5.81055 171.774 5.86263 171.513 5.9668C171.259 6.06445 171.08 6.16862 170.976 6.2793C170.976 6.40951 171.005 6.60156 171.064 6.85547C171.129 7.10938 171.162 7.34375 171.162 7.55859C171.162 7.78646 171.058 7.99479 170.849 8.18359C170.647 8.3724 170.364 8.4668 170 8.4668C169.674 8.4668 169.433 8.35286 169.277 8.125C169.127 7.89062 169.052 7.63021 169.052 7.34375C169.052 7.04427 169.157 6.75781 169.365 6.48438C169.58 6.21094 169.856 5.9668 170.195 5.75195C170.488 5.56966 170.843 5.41667 171.259 5.29297C171.676 5.16276 172.083 5.09766 172.48 5.09766C173.027 5.09766 173.502 5.13672 173.906 5.21484C174.316 5.28646 174.687 5.44596 175.019 5.69336C175.351 5.93424 175.602 6.26302 175.771 6.67969C175.947 7.08984 176.035 7.62044 176.035 8.27148C176.035 9.20247 176.025 10.0293 176.005 10.752C175.986 11.4681 175.976 12.2526 175.976 13.1055C175.976 13.3594 176.018 13.5612 176.103 13.7109C176.194 13.8607 176.331 13.9876 176.513 14.0918C176.611 14.1504 176.764 14.1829 176.972 14.1895C177.187 14.196 177.405 14.1992 177.627 14.1992V14.8242ZM174.218 9.66797C173.665 9.83073 173.18 9.99023 172.763 10.1465C172.347 10.3027 171.959 10.498 171.601 10.7324C171.276 10.9538 171.018 11.2174 170.83 11.5234C170.641 11.8229 170.546 12.181 170.546 12.5977C170.546 13.138 170.686 13.5352 170.966 13.7891C171.253 14.043 171.614 14.1699 172.05 14.1699C172.513 14.1699 172.92 14.0592 173.271 13.8379C173.623 13.61 173.919 13.3431 174.16 13.0371L174.218 9.66797ZM186.082 9.94141V6.06445H184.989C184.305 6.06445 183.739 6.22396 183.289 6.54297C182.84 6.86198 182.616 7.33398 182.616 7.95898C182.616 8.60352 182.853 9.09505 183.329 9.43359C183.804 9.77214 184.481 9.94141 185.36 9.94141H186.082ZM183.133 10.3516V10.293C182.254 10.1172 181.613 9.82747 181.209 9.42383C180.812 9.01367 180.614 8.49609 180.614 7.87109C180.614 7.10286 180.959 6.49414 181.649 6.04492C182.345 5.5957 183.224 5.37109 184.286 5.37109H189.315V6.01562C189.126 6.02865 188.96 6.04492 188.817 6.06445C188.68 6.08398 188.553 6.10677 188.436 6.13281C188.254 6.1849 188.117 6.28906 188.026 6.44531C187.941 6.59505 187.899 6.78385 187.899 7.01172V13.2617C187.899 13.4896 187.938 13.6751 188.016 13.8184C188.094 13.9551 188.228 14.0625 188.416 14.1406C188.553 14.2057 188.7 14.2546 188.856 14.2871C189.019 14.3197 189.185 14.3424 189.354 14.3555V15H184.637V14.3555C184.787 14.3424 184.94 14.3294 185.096 14.3164C185.259 14.3034 185.399 14.2773 185.516 14.2383C185.698 14.1797 185.838 14.0788 185.936 13.9355C186.034 13.7858 186.082 13.5938 186.082 13.3594V10.6543H185.672C185.067 10.6543 184.592 10.7715 184.246 11.0059C183.908 11.2337 183.582 11.6667 183.27 12.3047C183.042 12.7799 182.853 13.2194 182.704 13.623C182.56 14.0267 182.411 14.4857 182.254 15H178.963V14.3555C179.113 14.3359 179.253 14.3164 179.383 14.2969C179.52 14.2773 179.666 14.2546 179.823 14.2285C180.024 14.1895 180.207 14.1113 180.37 13.9941C180.539 13.877 180.685 13.6849 180.809 13.418C180.874 13.2682 180.962 13.0697 181.073 12.8223C181.19 12.5684 181.327 12.2852 181.483 11.9727C181.691 11.5625 181.922 11.2272 182.176 10.9668C182.437 10.7064 182.756 10.5013 183.133 10.3516ZM207.486 15H198.336V13.6719C198.512 13.4701 198.756 13.2454 199.068 12.998C199.381 12.7441 199.752 12.4707 200.182 12.1777C200.442 12.002 200.755 11.8099 201.119 11.6016C201.484 11.3932 201.897 11.1654 202.359 10.918C202.874 10.6445 203.268 10.4036 203.541 10.1953C203.821 9.98698 204.075 9.72982 204.303 9.42383C204.452 9.22201 204.573 8.97135 204.664 8.67188C204.755 8.36589 204.801 7.93294 204.801 7.37305C204.801 6.55924 204.583 5.96354 204.146 5.58594C203.71 5.20182 203.15 5.00977 202.467 5.00977C202.044 5.00977 201.643 5.0944 201.266 5.26367C200.888 5.42643 200.605 5.6543 200.416 5.94727C200.462 6.1556 200.517 6.40299 200.582 6.68945C200.654 6.97591 200.689 7.25586 200.689 7.5293C200.689 7.77669 200.585 7.99805 200.377 8.19336C200.175 8.38216 199.872 8.47656 199.469 8.47656C199.143 8.47656 198.893 8.36589 198.717 8.14453C198.541 7.91667 198.453 7.61393 198.453 7.23633C198.453 6.88477 198.551 6.5332 198.746 6.18164C198.941 5.82357 199.221 5.49479 199.586 5.19531C199.944 4.90234 200.387 4.66471 200.914 4.48242C201.441 4.30013 202.011 4.20898 202.623 4.20898C203.958 4.20898 205.016 4.50846 205.797 5.10742C206.585 5.69987 206.979 6.49414 206.979 7.49023C206.979 7.96549 206.907 8.39844 206.764 8.78906C206.627 9.17969 206.402 9.52474 206.09 9.82422C205.745 10.1562 205.341 10.4427 204.879 10.6836C204.417 10.918 203.71 11.2467 202.76 11.6699C202.193 11.9238 201.666 12.1908 201.178 12.4707C200.689 12.7441 200.289 13.0111 199.977 13.2715H207.486V15ZM220.132 10.498C220.132 11.1751 220.008 11.8099 219.761 12.4023C219.52 12.9948 219.194 13.4993 218.784 13.916C218.309 14.3913 217.781 14.7428 217.202 14.9707C216.629 15.1986 216.03 15.3125 215.405 15.3125C214.682 15.3125 214.028 15.179 213.442 14.9121C212.856 14.6452 212.358 14.2676 211.948 13.7793C211.531 13.2845 211.209 12.679 210.981 11.9629C210.753 11.2467 210.639 10.4427 210.639 9.55078C210.639 7.22656 211.33 5.26693 212.71 3.67188C214.096 2.07682 215.952 1.11979 218.276 0.800781L218.452 1.67969L217.573 1.83594C216.16 2.29167 215.067 3.0013 214.292 3.96484C213.524 4.92839 213.026 6.09701 212.798 7.4707C213.358 6.98242 213.911 6.63737 214.458 6.43555C215.005 6.23372 215.581 6.13281 216.186 6.13281C217.274 6.13281 218.201 6.54948 218.97 7.38281C219.744 8.21615 220.132 9.25456 220.132 10.498ZM218.012 10.7617C218.012 9.70703 217.768 8.86068 217.28 8.22266C216.798 7.58464 216.151 7.26562 215.337 7.26562C214.848 7.26562 214.393 7.35677 213.97 7.53906C213.553 7.72135 213.149 8.02734 212.759 8.45703C212.752 8.53516 212.742 8.71745 212.729 9.00391C212.716 9.28385 212.71 9.50521 212.71 9.66797C212.71 11.1914 212.957 12.3861 213.452 13.252C213.953 14.1113 214.611 14.541 215.425 14.541C216.199 14.541 216.824 14.2057 217.3 13.5352C217.775 12.8581 218.012 11.9336 218.012 10.7617ZM232.211 5.15625L225.248 18.5645H224.027L230.58 6.16211H226.742C226.175 6.16211 225.733 6.16862 225.414 6.18164C225.095 6.19466 224.802 6.25651 224.535 6.36719C224.333 6.45182 224.151 6.66992 223.988 7.02148C223.832 7.36654 223.711 7.80924 223.627 8.34961H223.031V4.52148H232.211V5.15625ZM242.971 13.2715V1.96289H239.084C239.084 4.28711 238.791 6.5332 238.205 8.70117C237.626 10.8691 236.894 12.6855 236.008 14.1504H242.063C242.375 14.1504 242.603 14.0788 242.746 13.9355C242.896 13.7923 242.971 13.571 242.971 13.2715ZM236.35 14.9707C236.09 15.0033 235.836 15.1497 235.588 15.4102C235.347 15.6771 235.129 15.9798 234.934 16.3184C234.752 16.6309 234.589 16.9759 234.446 17.3535C234.302 17.7376 234.202 18.0306 234.143 18.2324H233.411V14.1504H234.758C235.546 12.9655 236.262 11.3509 236.907 9.30664C237.558 7.26237 237.883 5.44271 237.883 3.84766C237.883 3.35938 237.838 2.98828 237.746 2.73438C237.662 2.47396 237.496 2.28516 237.248 2.16797C237.086 2.08984 236.829 2.02148 236.477 1.96289C236.125 1.89779 235.868 1.85547 235.705 1.83594V1.14258H246.868V1.83594C246.685 1.84245 246.461 1.87174 246.194 1.92383C245.933 1.97591 245.738 2.02474 245.608 2.07031C245.386 2.14844 245.237 2.27865 245.159 2.46094C245.087 2.64323 245.051 2.8418 245.051 3.05664V13.1934C245.051 13.5579 245.142 13.8118 245.325 13.9551C245.507 14.0918 245.8 14.1602 246.204 14.1602H247.024V18.2324H246.291C246.226 17.9785 246.142 17.6986 246.038 17.3926C245.933 17.0866 245.771 16.7285 245.549 16.3184C245.354 15.9538 245.149 15.6478 244.934 15.4004C244.719 15.153 244.468 15.0098 244.182 14.9707H236.35ZM253.263 14.6582C253.263 15.127 253.155 15.5697 252.941 15.9863C252.732 16.403 252.491 16.7611 252.218 17.0605C251.938 17.373 251.642 17.6497 251.329 17.8906C251.017 18.1315 250.73 18.3203 250.47 18.457L250.021 17.8027C250.333 17.6074 250.613 17.4121 250.861 17.2168C251.108 17.0215 251.31 16.8262 251.466 16.6309C251.661 16.403 251.827 16.1556 251.964 15.8887C252.101 15.6217 252.189 15.319 252.228 14.9805H251.73C251.293 14.9805 250.952 14.8665 250.704 14.6387C250.463 14.4108 250.343 14.1048 250.343 13.7207C250.343 13.4473 250.454 13.1836 250.675 12.9297C250.896 12.6693 251.199 12.5391 251.583 12.5391C252.143 12.5391 252.563 12.7279 252.843 13.1055C253.123 13.4766 253.263 13.9941 253.263 14.6582ZM36.5762 38H31.7227V37.3555C31.8724 37.3424 32.0254 37.3294 32.1816 37.3164C32.3444 37.3034 32.4844 37.2773 32.6016 37.2383C32.7839 37.1797 32.9173 37.0788 33.002 36.9355C33.0931 36.7858 33.1387 36.5938 33.1387 36.3594V30.1094C33.1387 29.8945 33.0931 29.7155 33.002 29.5723C32.9108 29.4225 32.7741 29.3086 32.5918 29.2305C32.4225 29.1523 32.2467 29.1003 32.0645 29.0742C31.8822 29.0482 31.7259 29.0286 31.5957 29.0156V28.3711H39.623V31.5645H39.0176C38.972 31.4212 38.8906 31.2129 38.7734 30.9395C38.6562 30.666 38.5228 30.4089 38.373 30.168C38.2233 29.9076 38.0573 29.6829 37.875 29.4941C37.6992 29.2988 37.5137 29.1882 37.3184 29.1621C37.1361 29.1426 36.9147 29.1296 36.6543 29.123C36.3939 29.11 36.1725 29.1035 35.9902 29.1035H34.9551V36.2617C34.9551 36.4831 35.0007 36.6654 35.0918 36.8086C35.1829 36.9518 35.3197 37.0625 35.502 37.1406C35.6452 37.2057 35.8145 37.2546 36.0098 37.2871C36.2116 37.3197 36.4004 37.3424 36.5762 37.3555V38ZM45.0613 36.877C45.0613 37.2415 44.9279 37.554 44.6609 37.8145C44.4005 38.0684 44.088 38.1953 43.7234 38.1953C43.3589 38.1953 43.0431 38.0684 42.7762 37.8145C42.5158 37.554 42.3855 37.2415 42.3855 36.877C42.3855 36.5124 42.5158 36.1999 42.7762 35.9395C43.0431 35.6725 43.3589 35.5391 43.7234 35.5391C44.088 35.5391 44.4005 35.6725 44.6609 35.9395C44.9279 36.1999 45.0613 36.5124 45.0613 36.877ZM63.4477 33.752C63.4477 32.8665 63.1482 32.1634 62.5492 31.6426C61.9568 31.1152 61.169 30.8516 60.1859 30.8516C59.7367 30.8516 59.3786 30.8581 59.1117 30.8711C58.8513 30.8776 58.6527 30.8841 58.516 30.8906V35.9688C58.516 36.3984 58.643 36.7174 58.8969 36.9258C59.1508 37.1276 59.6521 37.2285 60.4008 37.2285C61.3904 37.2285 62.1456 36.9323 62.6664 36.3398C63.1872 35.7409 63.4477 34.8783 63.4477 33.752ZM65.8695 33.918C65.8695 34.6146 65.7296 35.2266 65.4496 35.7539C65.1762 36.2812 64.8051 36.7109 64.3363 37.043C63.8936 37.362 63.3923 37.6029 62.8324 37.7656C62.279 37.9219 61.7061 38 61.1137 38H54.5512V37.3066C54.7074 37.2936 54.9353 37.2676 55.2348 37.2285C55.5342 37.1829 55.7491 37.1309 55.8793 37.0723C56.0811 36.9811 56.2243 36.8607 56.309 36.7109C56.3936 36.5547 56.4359 36.3561 56.4359 36.1152V26.1543C56.4359 25.9329 56.3969 25.7376 56.3188 25.5684C56.2471 25.3991 56.1007 25.2624 55.8793 25.1582C55.684 25.0605 55.4659 24.9857 55.225 24.9336C54.9841 24.8815 54.7823 24.849 54.6195 24.8359V24.1426H65.0297V27.5312H64.2973C64.1605 27.0169 63.8741 26.4798 63.4379 25.9199C63.0082 25.3535 62.6013 25.0443 62.2172 24.9922C62.0154 24.9661 61.7745 24.9466 61.4945 24.9336C61.2146 24.9206 60.8956 24.9141 60.5375 24.9141H58.516V30.0312C58.835 30.0247 59.154 30.0182 59.473 30.0117C59.7921 30.0052 60.1013 30.002 60.4008 30.002C61.1365 30.002 61.8331 30.0703 62.4906 30.207C63.1547 30.3372 63.7406 30.5586 64.2484 30.8711C64.7497 31.1771 65.1436 31.584 65.4301 32.0918C65.723 32.5931 65.8695 33.2018 65.8695 33.918ZM77.3527 29.5137C77.7368 29.9694 78.0331 30.5 78.2414 31.1055C78.4562 31.7044 78.5637 32.3913 78.5637 33.166C78.5637 33.9277 78.4367 34.6243 78.1828 35.2559C77.9289 35.8809 77.5936 36.4147 77.177 36.8574C76.7408 37.3066 76.2557 37.6517 75.7219 37.8926C75.188 38.1335 74.6216 38.2539 74.0227 38.2539C73.4432 38.2539 72.968 38.1888 72.5969 38.0586C72.2258 37.9284 71.923 37.7754 71.6887 37.5996H71.6105V40.4902C71.6105 40.7246 71.6561 40.9199 71.7473 41.0762C71.8384 41.2324 71.9784 41.3464 72.1672 41.418C72.3234 41.4766 72.5448 41.5319 72.8312 41.584C73.1242 41.6426 73.3651 41.6751 73.5539 41.6816V42.3359H68.173V41.6816C68.3749 41.6686 68.5702 41.6523 68.759 41.6328C68.9478 41.6133 69.1171 41.5807 69.2668 41.5352C69.4621 41.4701 69.5988 41.3561 69.677 41.1934C69.7551 41.0306 69.7941 40.8385 69.7941 40.6172V30.373C69.7941 30.1777 69.7453 29.9889 69.6477 29.8066C69.55 29.6243 69.423 29.4779 69.2668 29.3672C69.1496 29.2891 68.9868 29.2305 68.7785 29.1914C68.5702 29.1458 68.3684 29.1165 68.173 29.1035V28.4688L71.4543 28.2539L71.591 28.3711V29.4551L71.6691 29.4746C72.0077 29.084 72.4276 28.7585 72.9289 28.498C73.4302 28.2376 73.9283 28.1074 74.423 28.1074C75.022 28.1074 75.5689 28.2344 76.0637 28.4883C76.565 28.7422 76.9947 29.084 77.3527 29.5137ZM75.7609 36.4375C76.0214 36.0339 76.2134 35.5651 76.3371 35.0312C76.4608 34.4974 76.5227 33.9017 76.5227 33.2441C76.5227 32.7624 76.4706 32.2708 76.3664 31.7695C76.2622 31.2682 76.0995 30.832 75.8781 30.4609C75.6568 30.0833 75.3671 29.7773 75.009 29.543C74.6509 29.3086 74.2212 29.1914 73.7199 29.1914C73.2382 29.1914 72.828 29.2988 72.4895 29.5137C72.1509 29.722 71.8579 29.9727 71.6105 30.2656V35.959C71.6691 36.1348 71.7635 36.3171 71.8937 36.5059C72.0305 36.6947 72.1802 36.8574 72.343 36.9941C72.5448 37.1569 72.7629 37.2904 72.9973 37.3945C73.2316 37.4922 73.5181 37.541 73.8566 37.541C74.2212 37.541 74.5728 37.4466 74.9113 37.2578C75.2499 37.0625 75.5331 36.7891 75.7609 36.4375ZM89.7344 35.7344C89.3307 36.5026 88.7904 37.1146 88.1133 37.5703C87.4362 38.026 86.6582 38.2539 85.7793 38.2539C85.0046 38.2539 84.3242 38.1172 83.7383 37.8438C83.1589 37.5703 82.6803 37.1992 82.3027 36.7305C81.9251 36.2617 81.6419 35.7148 81.4531 35.0898C81.2708 34.4648 81.1797 33.804 81.1797 33.1074C81.1797 32.4824 81.2773 31.8704 81.4727 31.2715C81.6745 30.666 81.9674 30.1224 82.3516 29.6406C82.7227 29.1784 83.1816 28.8073 83.7285 28.5273C84.2819 28.2409 84.9004 28.0977 85.584 28.0977C86.2871 28.0977 86.8893 28.2083 87.3906 28.4297C87.8919 28.651 88.2988 28.9538 88.6113 29.3379C88.9108 29.7025 89.1322 30.1322 89.2754 30.627C89.4251 31.1217 89.5 31.6589 89.5 32.2383V32.8828H83.123C83.123 33.5143 83.1816 34.0872 83.2988 34.6016C83.4225 35.1159 83.6146 35.5684 83.875 35.959C84.1289 36.3366 84.4609 36.6361 84.8711 36.8574C85.2812 37.0723 85.7695 37.1797 86.3359 37.1797C86.9154 37.1797 87.4134 37.0462 87.8301 36.7793C88.2533 36.5059 88.6602 36.0176 89.0508 35.3145L89.7344 35.7344ZM87.5762 32.0625C87.5762 31.6979 87.5436 31.3073 87.4785 30.8906C87.4199 30.474 87.3223 30.1257 87.1855 29.8457C87.0358 29.5462 86.8307 29.3021 86.5703 29.1133C86.3099 28.9245 85.9746 28.8301 85.5645 28.8301C84.8809 28.8301 84.3112 29.1165 83.8555 29.6895C83.4062 30.2559 83.1621 31.0469 83.123 32.0625H87.5762ZM96.5008 38.2539C95.1076 38.2539 94.0171 37.7917 93.2293 36.8672C92.4415 35.9427 92.0477 34.7025 92.0477 33.1465C92.0477 32.4694 92.1518 31.8379 92.3602 31.252C92.575 30.6595 92.8842 30.1224 93.2879 29.6406C93.672 29.1784 94.1538 28.8073 94.7332 28.5273C95.3126 28.2409 95.9441 28.0977 96.6277 28.0977C97.5717 28.0977 98.34 28.3255 98.9324 28.7812C99.5249 29.2305 99.8211 29.8457 99.8211 30.627C99.8211 30.9525 99.743 31.2422 99.5867 31.4961C99.4305 31.7435 99.1733 31.8672 98.8152 31.8672C98.4311 31.8672 98.1316 31.7695 97.9168 31.5742C97.7085 31.3789 97.6043 31.1608 97.6043 30.9199C97.6043 30.627 97.6434 30.3275 97.7215 30.0215C97.7996 29.709 97.8452 29.4811 97.8582 29.3379C97.741 29.1361 97.5652 29.0026 97.3309 28.9375C97.103 28.8659 96.8556 28.8301 96.5887 28.8301C96.2762 28.8301 95.9767 28.8984 95.6902 29.0352C95.4103 29.1654 95.1368 29.4095 94.8699 29.7676C94.629 30.0931 94.4337 30.5326 94.284 31.0859C94.1342 31.6393 94.0594 32.3001 94.0594 33.0684C94.0594 34.2793 94.3263 35.2689 94.8602 36.0371C95.4005 36.7988 96.1069 37.1797 96.9793 37.1797C97.6108 37.1797 98.1382 37.0267 98.5613 36.7207C98.991 36.4147 99.3882 35.9557 99.7527 35.3438L100.378 35.7539C99.948 36.5221 99.3816 37.1309 98.6785 37.5801C97.9754 38.0293 97.2495 38.2539 96.5008 38.2539ZM110.826 31.457H110.23C110.171 31.2747 110.084 31.0599 109.966 30.8125C109.856 30.5651 109.732 30.3307 109.595 30.1094C109.452 29.8685 109.289 29.6569 109.107 29.4746C108.931 29.2858 108.746 29.1784 108.55 29.1523C108.349 29.1328 108.124 29.1198 107.877 29.1133C107.629 29.1003 107.418 29.0938 107.242 29.0938V36.2617C107.242 36.4831 107.287 36.6654 107.379 36.8086C107.47 36.9518 107.606 37.0625 107.789 37.1406C107.932 37.2057 108.095 37.2546 108.277 37.2871C108.459 37.3197 108.638 37.3424 108.814 37.3555V38H103.912V37.3555C104.061 37.3424 104.231 37.3294 104.42 37.3164C104.615 37.3034 104.771 37.2773 104.888 37.2383C105.071 37.1797 105.204 37.0788 105.289 36.9355C105.38 36.7858 105.425 36.5938 105.425 36.3594V29.0938C105.217 29.1003 104.983 29.11 104.722 29.123C104.462 29.1296 104.257 29.1393 104.107 29.1523C103.938 29.1654 103.755 29.2728 103.56 29.4746C103.371 29.6764 103.205 29.888 103.062 30.1094C102.925 30.3307 102.798 30.5781 102.681 30.8516C102.564 31.1185 102.483 31.3203 102.437 31.457H101.841V28.3711H110.826V31.457Z" fill="#B6A56E"/>
<path d="M11 11C4.93471 11 0 15.7852 0 21.6667C0 23.4323 0.455231 25.1829 1.32064 26.7357L10.3985 42.6562C10.5193 42.8685 10.7496 43 11 43C11.2504 43 11.4807 42.8685 11.6015 42.6562L20.6827 26.7304C21.5448 25.1829 22 23.4323 22 21.6666C22 15.7852 17.0653 11 11 11ZM19.4762 26.0905L11 40.9557L2.52714 26.0964C1.77317 24.7435 1.37504 23.2116 1.37504 21.6667C1.37504 16.5202 5.69275 12.3334 11 12.3334C16.3073 12.3334 20.625 16.5203 20.625 21.6667C20.625 23.2116 20.2268 24.7435 19.4762 26.0905Z" fill="#B6A56E"/>
<path d="M11 16.3333C7.96737 16.3333 5.50005 18.7259 5.50005 21.6666C5.50005 24.6074 7.96737 27 11 27C14.0327 27 16.5 24.6074 16.5 21.6667C16.5 18.7259 14.0327 16.3333 11 16.3333ZM11 25.6667C8.72534 25.6667 6.87502 23.8724 6.87502 21.6667C6.87502 19.4609 8.72534 17.6667 11 17.6667C13.2747 17.6667 15.125 19.4609 15.125 21.6667C15.125 23.8724 13.2747 25.6667 11 25.6667Z" fill="#B6A56E"/>
</svg>
