<svg width="287" height="32" viewBox="0 0 287 32" fill="none" xmlns="http://www.w3.org/2000/svg">
<path d="M30.9707 30.1445C30.9707 29.819 31.0586 29.5521 31.2344 29.3438C31.4167 29.1419 31.6413 29.041 31.9082 29.041C32.1165 29.041 32.2956 29.0801 32.4453 29.1582C32.5951 29.2363 32.7285 29.3372 32.8457 29.4609C32.9434 29.5586 33.0475 29.6921 33.1582 29.8613C33.2689 30.0306 33.3568 30.1706 33.4219 30.2812C33.7474 30.1055 34.1348 29.6465 34.584 28.9043C35.0397 28.1621 35.3685 27.5111 35.5703 26.9512C34.9518 25.4082 34.3919 24.028 33.8906 22.8105C33.3893 21.5931 32.8652 20.3333 32.3184 19.0312C32.1947 18.7318 31.9863 18.5007 31.6934 18.3379C31.4004 18.1686 31.1074 18.0612 30.8145 18.0156V17.3711H35.209V18.0547C35.0137 18.0612 34.7793 18.1035 34.5059 18.1816C34.2324 18.2533 34.0957 18.3379 34.0957 18.4355C34.0957 18.4746 34.1087 18.5397 34.1348 18.6309C34.1673 18.722 34.2031 18.8164 34.2422 18.9141C34.4896 19.5586 34.8672 20.4896 35.375 21.707C35.8828 22.918 36.2767 23.888 36.5566 24.6172C36.8496 23.9206 37.1523 23.2012 37.4648 22.459C37.7839 21.7103 38.1387 20.8281 38.5293 19.8125C38.5749 19.6888 38.64 19.5195 38.7246 19.3047C38.8092 19.0833 38.8516 18.8945 38.8516 18.7383C38.8516 18.569 38.7018 18.4128 38.4023 18.2695C38.1094 18.1198 37.8294 18.0286 37.5625 17.9961V17.3711H41.1367V17.9766C40.9414 18.0091 40.6842 18.123 40.3652 18.3184C40.0462 18.5072 39.8086 18.7773 39.6523 19.1289C38.8776 20.9258 38.1875 22.5632 37.582 24.041C36.9831 25.5189 36.5273 26.6061 36.2148 27.3027C35.8047 28.2142 35.4368 28.9238 35.1113 29.4316C34.7923 29.946 34.4798 30.3496 34.1738 30.6426C33.8743 30.916 33.6009 31.0983 33.3535 31.1895C33.1126 31.2871 32.862 31.3359 32.6016 31.3359C32.0938 31.3359 31.6934 31.2155 31.4004 30.9746C31.1139 30.7337 30.9707 30.457 30.9707 30.1445ZM52.9812 27H48.2742V26.3555C48.424 26.3424 48.577 26.3294 48.7332 26.3164C48.8895 26.3034 49.0262 26.2773 49.1434 26.2383C49.3257 26.1797 49.4656 26.0788 49.5633 25.9355C49.6609 25.7858 49.7098 25.5938 49.7098 25.3594V18.1719H47.034C47.034 19.7604 46.9233 21.1276 46.702 22.2734C46.4806 23.4193 46.1941 24.3535 45.8426 25.0762C45.4975 25.7858 45.1069 26.3164 44.6707 26.668C44.2345 27.0195 43.7885 27.1953 43.3328 27.1953C42.8641 27.1953 42.5092 27.0749 42.2684 26.834C42.0275 26.5866 41.907 26.3001 41.907 25.9746C41.907 25.7402 41.9819 25.5189 42.1316 25.3105C42.2879 25.1022 42.5125 24.998 42.8055 24.998C43.0789 24.998 43.3263 25.0762 43.5477 25.2324C43.769 25.3887 43.9839 25.6068 44.1922 25.8867C44.3484 25.7435 44.5307 25.4798 44.7391 25.0957C44.9539 24.7051 45.1492 24.2233 45.325 23.6504C45.5203 23.0319 45.6798 22.3906 45.8035 21.7266C45.9272 21.0625 45.9891 20.3008 45.9891 19.4414C45.9891 19.1029 45.9467 18.8522 45.8621 18.6895C45.7775 18.5267 45.644 18.3997 45.4617 18.3086C45.338 18.2435 45.1362 18.1849 44.8562 18.1328C44.5763 18.0742 44.3484 18.0352 44.1727 18.0156V17.3711H52.9422V18.0156C52.7534 18.0286 52.5874 18.0449 52.4441 18.0645C52.3074 18.084 52.1805 18.1068 52.0633 18.1328C51.881 18.1849 51.7443 18.2891 51.6531 18.4453C51.5685 18.5951 51.5262 18.7839 51.5262 19.0117V25.2617C51.5262 25.4896 51.5652 25.6751 51.6434 25.8184C51.7215 25.9551 51.8549 26.0625 52.0437 26.1406C52.1805 26.2057 52.327 26.2546 52.4832 26.2871C52.646 26.3197 52.812 26.3424 52.9812 26.3555V27ZM58.9176 25.877C58.9176 26.2415 58.7841 26.554 58.5172 26.8145C58.2568 27.0684 57.9443 27.1953 57.5797 27.1953C57.2151 27.1953 56.8993 27.0684 56.6324 26.8145C56.372 26.554 56.2418 26.2415 56.2418 25.877C56.2418 25.5124 56.372 25.1999 56.6324 24.9395C56.8993 24.6725 57.2151 24.5391 57.5797 24.5391C57.9443 24.5391 58.2568 24.6725 58.5172 24.9395C58.7841 25.1999 58.9176 25.5124 58.9176 25.877ZM74.5402 27.3223C73.7134 27.3223 72.9191 27.1595 72.1574 26.834C71.4022 26.5085 70.7316 26.0397 70.1457 25.4277C69.5663 24.8158 69.104 24.0703 68.759 23.1914C68.4139 22.306 68.2414 21.3099 68.2414 20.2031C68.2414 19.0964 68.4107 18.0938 68.7492 17.1953C69.0878 16.2904 69.5565 15.5124 70.1555 14.8613C70.7479 14.2168 71.4478 13.7188 72.2551 13.3672C73.0624 13.0156 73.925 12.8398 74.843 12.8398C75.5266 12.8398 76.1451 12.9245 76.6984 13.0938C77.2518 13.263 77.7792 13.5007 78.2805 13.8066L78.6809 13.1426H79.4621L79.55 18.084H78.7492C78.6451 17.6022 78.4888 17.0814 78.2805 16.5215C78.0721 15.9551 77.828 15.4766 77.548 15.0859C77.2355 14.6432 76.8645 14.2982 76.4348 14.0508C76.0051 13.7969 75.5135 13.6699 74.9602 13.6699C74.3286 13.6699 73.7395 13.8099 73.1926 14.0898C72.6522 14.3698 72.1835 14.7832 71.7863 15.3301C71.4087 15.8574 71.1125 16.528 70.8977 17.3418C70.6828 18.1556 70.5754 19.0638 70.5754 20.0664C70.5754 20.9518 70.6861 21.7656 70.9074 22.5078C71.1353 23.2435 71.4576 23.8913 71.8742 24.4512C72.2909 25.0046 72.7824 25.4375 73.3488 25.75C73.9217 26.0625 74.5598 26.2188 75.2629 26.2188C75.7902 26.2188 76.2753 26.1374 76.718 25.9746C77.1607 25.8053 77.5448 25.584 77.8703 25.3105C78.1958 25.0241 78.4823 24.6986 78.7297 24.334C78.9771 23.9694 79.1789 23.5723 79.3352 23.1426L80.0676 23.4941C79.5077 24.8678 78.7655 25.8509 77.841 26.4434C76.9165 27.0293 75.8163 27.3223 74.5402 27.3223ZM81.502 30.1445C81.502 29.819 81.5898 29.5521 81.7656 29.3438C81.9479 29.1419 82.1725 29.041 82.4395 29.041C82.6478 29.041 82.8268 29.0801 82.9766 29.1582C83.1263 29.2363 83.2598 29.3372 83.377 29.4609C83.4746 29.5586 83.5788 29.6921 83.6895 29.8613C83.8001 30.0306 83.888 30.1706 83.9531 30.2812C84.2786 30.1055 84.666 29.6465 85.1152 28.9043C85.571 28.1621 85.8997 27.5111 86.1016 26.9512C85.4831 25.4082 84.9232 24.028 84.4219 22.8105C83.9206 21.5931 83.3965 20.3333 82.8496 19.0312C82.7259 18.7318 82.5176 18.5007 82.2246 18.3379C81.9316 18.1686 81.6387 18.0612 81.3457 18.0156V17.3711H85.7402V18.0547C85.5449 18.0612 85.3105 18.1035 85.0371 18.1816C84.7637 18.2533 84.627 18.3379 84.627 18.4355C84.627 18.4746 84.64 18.5397 84.666 18.6309C84.6986 18.722 84.7344 18.8164 84.7734 18.9141C85.0208 19.5586 85.3984 20.4896 85.9062 21.707C86.4141 22.918 86.8079 23.888 87.0879 24.6172C87.3809 23.9206 87.6836 23.2012 87.9961 22.459C88.3151 21.7103 88.6699 20.8281 89.0605 19.8125C89.1061 19.6888 89.1712 19.5195 89.2559 19.3047C89.3405 19.0833 89.3828 18.8945 89.3828 18.7383C89.3828 18.569 89.2331 18.4128 88.9336 18.2695C88.6406 18.1198 88.3607 18.0286 88.0938 17.9961V17.3711H91.668V17.9766C91.4727 18.0091 91.2155 18.123 90.8965 18.3184C90.5775 18.5072 90.3398 18.7773 90.1836 19.1289C89.4089 20.9258 88.7188 22.5632 88.1133 24.041C87.5143 25.5189 87.0586 26.6061 86.7461 27.3027C86.3359 28.2142 85.9681 28.9238 85.6426 29.4316C85.3236 29.946 85.0111 30.3496 84.7051 30.6426C84.4056 30.916 84.1322 31.0983 83.8848 31.1895C83.6439 31.2871 83.3932 31.3359 83.1328 31.3359C82.625 31.3359 82.2246 31.2155 81.9316 30.9746C81.6452 30.7337 81.502 30.457 81.502 30.1445ZM100.241 24.168C100.241 23.5951 100.029 23.1426 99.6063 22.8105C99.1831 22.4785 98.5776 22.3125 97.7898 22.3125C97.4448 22.3125 97.1714 22.319 96.9695 22.332C96.7742 22.3451 96.6212 22.3516 96.5105 22.3516V25.5352C96.5105 25.7891 96.618 25.9876 96.8328 26.1309C97.0477 26.2676 97.3764 26.3359 97.8191 26.3359C98.2879 26.3359 98.685 26.2741 99.0105 26.1504C99.3361 26.0267 99.59 25.8574 99.7723 25.6426C99.948 25.4342 100.068 25.2064 100.134 24.959C100.205 24.7116 100.241 24.4479 100.241 24.168ZM102.194 24.3145C102.194 24.7897 102.087 25.1999 101.872 25.5449C101.657 25.89 101.361 26.1732 100.983 26.3945C100.638 26.5964 100.244 26.7493 99.8016 26.8535C99.3589 26.9512 98.8868 27 98.3855 27H93.2977V26.3555C93.4474 26.3424 93.6004 26.3294 93.7566 26.3164C93.9194 26.3034 94.0594 26.2773 94.1766 26.2383C94.3589 26.1797 94.4923 26.0788 94.577 25.9355C94.6681 25.7858 94.7137 25.5938 94.7137 25.3594V19.1094C94.7137 18.8945 94.6681 18.7155 94.577 18.5723C94.4858 18.4225 94.3491 18.3086 94.1668 18.2305C93.9975 18.1523 93.8315 18.1003 93.6688 18.0742C93.5125 18.0482 93.366 18.0286 93.2293 18.0156V17.3711C93.8087 17.3711 94.5249 17.3678 95.3777 17.3613C96.2371 17.3548 97.1323 17.3516 98.0633 17.3516C98.5581 17.3516 99.0171 17.3874 99.4402 17.459C99.8699 17.5241 100.251 17.638 100.583 17.8008C100.928 17.9701 101.195 18.2012 101.384 18.4941C101.572 18.7806 101.667 19.1289 101.667 19.5391C101.667 20.1836 101.465 20.6947 101.061 21.0723C100.664 21.4434 100.14 21.6973 99.4891 21.834V21.9414C99.8211 21.987 100.147 22.0618 100.466 22.166C100.791 22.2702 101.081 22.4134 101.335 22.5957C101.595 22.7845 101.804 23.0189 101.96 23.2988C102.116 23.5723 102.194 23.9108 102.194 24.3145ZM99.7332 19.6172C99.7332 19.2917 99.6714 19.028 99.5477 18.8262C99.4305 18.6178 99.271 18.4551 99.0691 18.3379C98.8673 18.2207 98.6395 18.1426 98.3855 18.1035C98.1382 18.0579 97.881 18.0352 97.6141 18.0352C97.4448 18.0352 97.256 18.0417 97.0477 18.0547C96.8458 18.0612 96.6668 18.0677 96.5105 18.0742V21.5898H97.4578C97.907 21.5898 98.2846 21.5378 98.5906 21.4336C98.8966 21.3294 99.1277 21.1895 99.284 21.0137C99.4467 20.8444 99.5607 20.6426 99.6258 20.4082C99.6974 20.1738 99.7332 19.9102 99.7332 19.6172ZM114.234 22.0879C114.234 22.765 114.127 23.4323 113.912 24.0898C113.697 24.7409 113.391 25.2943 112.994 25.75C112.545 26.2708 112.024 26.6582 111.431 26.9121C110.839 27.166 110.175 27.293 109.439 27.293C108.827 27.293 108.244 27.179 107.691 26.9512C107.138 26.7168 106.646 26.3783 106.216 25.9355C105.793 25.4993 105.455 24.9688 105.201 24.3438C104.953 23.7122 104.83 23.0059 104.83 22.2246C104.83 20.7207 105.266 19.4902 106.138 18.5332C107.017 17.5762 108.166 17.0977 109.586 17.0977C110.933 17.0977 112.043 17.5534 112.916 18.4648C113.795 19.3698 114.234 20.5775 114.234 22.0879ZM112.213 22.1074C112.213 21.6191 112.164 21.1048 112.066 20.5645C111.968 20.0176 111.822 19.5553 111.627 19.1777C111.418 18.7741 111.145 18.4518 110.806 18.2109C110.468 17.9635 110.054 17.8398 109.566 17.8398C109.065 17.8398 108.635 17.9635 108.277 18.2109C107.925 18.4583 107.639 18.7969 107.418 19.2266C107.209 19.6237 107.063 20.0762 106.978 20.584C106.893 21.0918 106.851 21.5833 106.851 22.0586C106.851 22.6836 106.9 23.263 106.998 23.7969C107.102 24.3242 107.265 24.7962 107.486 25.2129C107.707 25.6296 107.984 25.9583 108.316 26.1992C108.655 26.4336 109.071 26.5508 109.566 26.5508C110.38 26.5508 111.024 26.1569 111.5 25.3691C111.975 24.5814 112.213 23.4941 112.213 22.1074ZM125.629 18.5137C126.013 18.9694 126.31 19.5 126.518 20.1055C126.733 20.7044 126.84 21.3913 126.84 22.166C126.84 22.9277 126.713 23.6243 126.459 24.2559C126.205 24.8809 125.87 25.4147 125.454 25.8574C125.017 26.3066 124.532 26.6517 123.998 26.8926C123.465 27.1335 122.898 27.2539 122.299 27.2539C121.72 27.2539 121.245 27.1888 120.873 27.0586C120.502 26.9284 120.2 26.7754 119.965 26.5996H119.887V29.4902C119.887 29.7246 119.933 29.9199 120.024 30.0762C120.115 30.2324 120.255 30.3464 120.444 30.418C120.6 30.4766 120.821 30.5319 121.108 30.584C121.401 30.6426 121.642 30.6751 121.83 30.6816V31.3359H116.45V30.6816C116.651 30.6686 116.847 30.6523 117.036 30.6328C117.224 30.6133 117.394 30.5807 117.543 30.5352C117.739 30.4701 117.875 30.3561 117.954 30.1934C118.032 30.0306 118.071 29.8385 118.071 29.6172V19.373C118.071 19.1777 118.022 18.9889 117.924 18.8066C117.827 18.6243 117.7 18.4779 117.543 18.3672C117.426 18.2891 117.263 18.2305 117.055 18.1914C116.847 18.1458 116.645 18.1165 116.45 18.1035V17.4688L119.731 17.2539L119.868 17.3711V18.4551L119.946 18.4746C120.284 18.084 120.704 17.7585 121.205 17.498C121.707 17.2376 122.205 17.1074 122.7 17.1074C123.299 17.1074 123.845 17.2344 124.34 17.4883C124.842 17.7422 125.271 18.084 125.629 18.5137ZM124.037 25.4375C124.298 25.0339 124.49 24.5651 124.614 24.0312C124.737 23.4974 124.799 22.9017 124.799 22.2441C124.799 21.7624 124.747 21.2708 124.643 20.7695C124.539 20.2682 124.376 19.832 124.155 19.4609C123.933 19.0833 123.644 18.7773 123.286 18.543C122.927 18.3086 122.498 18.1914 121.996 18.1914C121.515 18.1914 121.105 18.2988 120.766 18.5137C120.427 18.722 120.135 18.9727 119.887 19.2656V24.959C119.946 25.1348 120.04 25.3171 120.17 25.5059C120.307 25.6947 120.457 25.8574 120.62 25.9941C120.821 26.1569 121.039 26.2904 121.274 26.3945C121.508 26.4922 121.795 26.541 122.133 26.541C122.498 26.541 122.849 26.4466 123.188 26.2578C123.526 26.0625 123.81 25.7891 124.037 25.4375ZM138.841 22.0879C138.841 22.765 138.734 23.4323 138.519 24.0898C138.304 24.7409 137.998 25.2943 137.601 25.75C137.152 26.2708 136.631 26.6582 136.038 26.9121C135.446 27.166 134.782 27.293 134.046 27.293C133.434 27.293 132.851 27.179 132.298 26.9512C131.745 26.7168 131.253 26.3783 130.823 25.9355C130.4 25.4993 130.062 24.9688 129.808 24.3438C129.56 23.7122 129.437 23.0059 129.437 22.2246C129.437 20.7207 129.873 19.4902 130.745 18.5332C131.624 17.5762 132.773 17.0977 134.193 17.0977C135.54 17.0977 136.65 17.5534 137.523 18.4648C138.402 19.3698 138.841 20.5775 138.841 22.0879ZM136.82 22.1074C136.82 21.6191 136.771 21.1048 136.673 20.5645C136.575 20.0176 136.429 19.5553 136.234 19.1777C136.025 18.7741 135.752 18.4518 135.413 18.2109C135.075 17.9635 134.661 17.8398 134.173 17.8398C133.672 17.8398 133.242 17.9635 132.884 18.2109C132.532 18.4583 132.246 18.7969 132.025 19.2266C131.816 19.6237 131.67 20.0762 131.585 20.584C131.501 21.0918 131.458 21.5833 131.458 22.0586C131.458 22.6836 131.507 23.263 131.605 23.7969C131.709 24.3242 131.872 24.7962 132.093 25.2129C132.314 25.6296 132.591 25.9583 132.923 26.1992C133.262 26.4336 133.678 26.5508 134.173 26.5508C134.987 26.5508 135.631 26.1569 136.107 25.3691C136.582 24.5814 136.82 23.4941 136.82 22.1074ZM148.4 24.168C148.4 23.5951 148.189 23.1426 147.766 22.8105C147.342 22.4785 146.737 22.3125 145.949 22.3125C145.604 22.3125 145.331 22.319 145.129 22.332C144.934 22.3451 144.781 22.3516 144.67 22.3516V25.5352C144.67 25.7891 144.777 25.9876 144.992 26.1309C145.207 26.2676 145.536 26.3359 145.979 26.3359C146.447 26.3359 146.844 26.2741 147.17 26.1504C147.495 26.0267 147.749 25.8574 147.932 25.6426C148.107 25.4342 148.228 25.2064 148.293 24.959C148.365 24.7116 148.4 24.4479 148.4 24.168ZM150.354 24.3145C150.354 24.7897 150.246 25.1999 150.031 25.5449C149.816 25.89 149.52 26.1732 149.143 26.3945C148.798 26.5964 148.404 26.7493 147.961 26.8535C147.518 26.9512 147.046 27 146.545 27H141.457V26.3555C141.607 26.3424 141.76 26.3294 141.916 26.3164C142.079 26.3034 142.219 26.2773 142.336 26.2383C142.518 26.1797 142.652 26.0788 142.736 25.9355C142.827 25.7858 142.873 25.5938 142.873 25.3594V19.1094C142.873 18.8945 142.827 18.7155 142.736 18.5723C142.645 18.4225 142.508 18.3086 142.326 18.2305C142.157 18.1523 141.991 18.1003 141.828 18.0742C141.672 18.0482 141.525 18.0286 141.389 18.0156V17.3711C141.968 17.3711 142.684 17.3678 143.537 17.3613C144.396 17.3548 145.292 17.3516 146.223 17.3516C146.717 17.3516 147.176 17.3874 147.6 17.459C148.029 17.5241 148.41 17.638 148.742 17.8008C149.087 17.9701 149.354 18.2012 149.543 18.4941C149.732 18.7806 149.826 19.1289 149.826 19.5391C149.826 20.1836 149.624 20.6947 149.221 21.0723C148.824 21.4434 148.299 21.6973 147.648 21.834V21.9414C147.98 21.987 148.306 22.0618 148.625 22.166C148.951 22.2702 149.24 22.4134 149.494 22.5957C149.755 22.7845 149.963 23.0189 150.119 23.2988C150.275 23.5723 150.354 23.9108 150.354 24.3145ZM147.893 19.6172C147.893 19.2917 147.831 19.028 147.707 18.8262C147.59 18.6178 147.43 18.4551 147.229 18.3379C147.027 18.2207 146.799 18.1426 146.545 18.1035C146.298 18.0579 146.04 18.0352 145.773 18.0352C145.604 18.0352 145.415 18.0417 145.207 18.0547C145.005 18.0612 144.826 18.0677 144.67 18.0742V21.5898H145.617C146.066 21.5898 146.444 21.5378 146.75 21.4336C147.056 21.3294 147.287 21.1895 147.443 21.0137C147.606 20.8444 147.72 20.6426 147.785 20.4082C147.857 20.1738 147.893 19.9102 147.893 19.6172ZM162.13 26.8242C161.824 26.9349 161.554 27.0228 161.319 27.0879C161.091 27.1595 160.831 27.1953 160.538 27.1953C160.03 27.1953 159.623 27.0781 159.317 26.8438C159.018 26.6029 158.826 26.2546 158.741 25.7988H158.682C158.259 26.2676 157.804 26.6257 157.315 26.873C156.833 27.1204 156.251 27.2441 155.567 27.2441C154.845 27.2441 154.249 27.0228 153.78 26.5801C153.318 26.1374 153.087 25.5579 153.087 24.8418C153.087 24.4707 153.139 24.1387 153.243 23.8457C153.347 23.5527 153.503 23.2891 153.712 23.0547C153.874 22.8594 154.089 22.6868 154.356 22.5371C154.623 22.3809 154.874 22.2572 155.108 22.166C155.401 22.0553 155.994 21.8503 156.886 21.5508C157.784 21.2513 158.389 21.0169 158.702 20.8477V19.8809C158.702 19.7962 158.682 19.6335 158.643 19.3926C158.611 19.1517 158.536 18.9238 158.419 18.709C158.289 18.4681 158.103 18.2598 157.862 18.084C157.628 17.9017 157.292 17.8105 156.856 17.8105C156.557 17.8105 156.277 17.8626 156.016 17.9668C155.762 18.0645 155.583 18.1686 155.479 18.2793C155.479 18.4095 155.509 18.6016 155.567 18.8555C155.632 19.1094 155.665 19.3438 155.665 19.5586C155.665 19.7865 155.561 19.9948 155.352 20.1836C155.151 20.3724 154.867 20.4668 154.503 20.4668C154.177 20.4668 153.936 20.3529 153.78 20.125C153.63 19.8906 153.555 19.6302 153.555 19.3438C153.555 19.0443 153.66 18.7578 153.868 18.4844C154.083 18.2109 154.36 17.9668 154.698 17.752C154.991 17.5697 155.346 17.4167 155.762 17.293C156.179 17.1628 156.586 17.0977 156.983 17.0977C157.53 17.0977 158.005 17.1367 158.409 17.2148C158.819 17.2865 159.19 17.446 159.522 17.6934C159.854 17.9342 160.105 18.263 160.274 18.6797C160.45 19.0898 160.538 19.6204 160.538 20.2715C160.538 21.2025 160.528 22.0293 160.509 22.752C160.489 23.4681 160.479 24.2526 160.479 25.1055C160.479 25.3594 160.522 25.5612 160.606 25.7109C160.697 25.8607 160.834 25.9876 161.016 26.0918C161.114 26.1504 161.267 26.1829 161.475 26.1895C161.69 26.196 161.908 26.1992 162.13 26.1992V26.8242ZM158.721 21.668C158.168 21.8307 157.683 21.9902 157.266 22.1465C156.85 22.3027 156.462 22.498 156.104 22.7324C155.779 22.9538 155.522 23.2174 155.333 23.5234C155.144 23.8229 155.05 24.181 155.05 24.5977C155.05 25.138 155.19 25.5352 155.47 25.7891C155.756 26.043 156.117 26.1699 156.554 26.1699C157.016 26.1699 157.423 26.0592 157.774 25.8379C158.126 25.61 158.422 25.3431 158.663 25.0371L158.721 21.668ZM174.364 30.5645C173.752 30.5645 173.192 30.4863 172.684 30.3301C172.176 30.1803 171.74 29.9753 171.375 29.7148C171.011 29.4544 170.728 29.1549 170.526 28.8164C170.33 28.4779 170.233 28.1296 170.233 27.7715C170.233 27.4525 170.311 27.166 170.467 26.9121C170.623 26.6517 170.874 26.5215 171.219 26.5215C171.61 26.5215 171.906 26.6191 172.108 26.8145C172.316 27.0033 172.42 27.2214 172.42 27.4688C172.42 27.6771 172.385 27.9408 172.313 28.2598C172.248 28.5788 172.196 28.8066 172.157 28.9434C172.202 29.002 172.284 29.0801 172.401 29.1777C172.524 29.2754 172.674 29.3633 172.85 29.4414C173.058 29.5391 173.276 29.6172 173.504 29.6758C173.732 29.7344 174.054 29.7637 174.471 29.7637C174.862 29.7637 175.236 29.6986 175.594 29.5684C175.959 29.4382 176.278 29.2298 176.551 28.9434C176.838 28.6439 177.059 28.2923 177.215 27.8887C177.378 27.4915 177.459 26.9674 177.459 26.3164C177.459 25.9648 177.42 25.6165 177.342 25.2715C177.271 24.9264 177.134 24.627 176.932 24.373C176.73 24.1191 176.454 23.9238 176.102 23.7871C175.757 23.6439 175.317 23.5723 174.784 23.5723H173.504V22.4492H174.354C175.252 22.4492 175.9 22.2018 176.297 21.707C176.694 21.2122 176.893 20.4668 176.893 19.4707C176.893 18.6569 176.701 18.0449 176.317 17.6348C175.933 17.2181 175.389 17.0098 174.686 17.0098C174.347 17.0098 174.067 17.0521 173.846 17.1367C173.631 17.2148 173.455 17.293 173.319 17.3711C173.156 17.4622 173.023 17.5632 172.918 17.6738C172.814 17.7845 172.736 17.8659 172.684 17.918C172.73 18.1263 172.785 18.3835 172.85 18.6895C172.915 18.9889 172.948 19.2754 172.948 19.5488C172.948 19.7897 172.843 20.0078 172.635 20.2031C172.433 20.3919 172.134 20.4863 171.737 20.4863C171.392 20.4863 171.138 20.3626 170.975 20.1152C170.819 19.8678 170.741 19.5814 170.741 19.2559C170.741 18.9173 170.835 18.5723 171.024 18.2207C171.213 17.8691 171.493 17.5404 171.864 17.2344C172.235 16.9284 172.687 16.681 173.221 16.4922C173.755 16.3034 174.37 16.209 175.067 16.209C175.868 16.209 176.528 16.3294 177.049 16.5703C177.577 16.8047 177.99 17.0911 178.289 17.4297C178.582 17.7617 178.784 18.11 178.895 18.4746C179.006 18.8392 179.061 19.1517 179.061 19.4121C179.061 19.7376 179.015 20.0664 178.924 20.3984C178.833 20.724 178.683 21.0267 178.475 21.3066C178.247 21.6126 177.944 21.8926 177.567 22.1465C177.196 22.3939 176.727 22.5957 176.161 22.752V22.9082C176.525 22.9408 176.913 23.0221 177.323 23.1523C177.739 23.2826 178.114 23.4746 178.446 23.7285C178.791 23.9954 179.074 24.3405 179.295 24.7637C179.517 25.1803 179.627 25.7109 179.627 26.3555C179.627 27.6055 179.126 28.6178 178.123 29.3926C177.121 30.1738 175.868 30.5645 174.364 30.5645ZM190.075 22.4199C190.505 22.7585 190.86 23.1947 191.14 23.7285C191.426 24.2624 191.57 24.9297 191.57 25.7305C191.57 27.1302 191.091 28.2858 190.134 29.1973C189.177 30.1087 187.963 30.5645 186.491 30.5645C185.352 30.5645 184.389 30.2943 183.601 29.7539C182.813 29.2135 182.419 28.5853 182.419 27.8691C182.419 27.5371 182.501 27.2474 182.663 27C182.826 26.7526 183.077 26.6289 183.415 26.6289C183.806 26.6289 184.102 26.7331 184.304 26.9414C184.512 27.1432 184.616 27.3646 184.616 27.6055C184.616 27.8138 184.581 28.0742 184.509 28.3867C184.437 28.6992 184.382 28.9303 184.343 29.0801C184.395 29.1257 184.48 29.1875 184.597 29.2656C184.714 29.3438 184.854 29.4186 185.017 29.4902C185.186 29.5618 185.391 29.6237 185.632 29.6758C185.879 29.7344 186.166 29.7637 186.491 29.7637C186.908 29.7637 187.302 29.679 187.673 29.5098C188.044 29.3405 188.357 29.0898 188.611 28.7578C188.89 28.3932 189.099 27.9766 189.236 27.5078C189.379 27.0456 189.45 26.4564 189.45 25.7402C189.45 24.8223 189.193 24.0638 188.679 23.4648C188.171 22.8594 187.501 22.5566 186.667 22.5566C186.146 22.5566 185.658 22.6543 185.202 22.8496C184.753 23.0449 184.349 23.3704 183.991 23.8262L183.337 23.5723L184.167 16.5215H191.159V18.2598H184.958L184.45 22.4004C184.743 22.1921 185.127 21.987 185.603 21.7852C186.085 21.5768 186.612 21.4727 187.185 21.4727C187.66 21.4727 188.152 21.5475 188.659 21.6973C189.174 21.8405 189.646 22.0814 190.075 22.4199ZM197.799 26.6582C197.799 27.127 197.691 27.5697 197.477 27.9863C197.268 28.403 197.027 28.7611 196.754 29.0605C196.474 29.373 196.178 29.6497 195.865 29.8906C195.553 30.1315 195.266 30.3203 195.006 30.457L194.557 29.8027C194.869 29.6074 195.149 29.4121 195.396 29.2168C195.644 29.0215 195.846 28.8262 196.002 28.6309C196.197 28.403 196.363 28.1556 196.5 27.8887C196.637 27.6217 196.725 27.319 196.764 26.9805H196.266C195.829 26.9805 195.488 26.8665 195.24 26.6387C194.999 26.4108 194.879 26.1048 194.879 25.7207C194.879 25.4473 194.99 25.1836 195.211 24.9297C195.432 24.6693 195.735 24.5391 196.119 24.5391C196.679 24.5391 197.099 24.7279 197.379 25.1055C197.659 25.4766 197.799 25.9941 197.799 26.6582ZM211.8 27H206.947V26.3555C207.097 26.3424 207.25 26.3294 207.406 26.3164C207.569 26.3034 207.709 26.2773 207.826 26.2383C208.008 26.1797 208.142 26.0788 208.226 25.9355C208.317 25.7858 208.363 25.5938 208.363 25.3594V19.1094C208.363 18.8945 208.317 18.7155 208.226 18.5723C208.135 18.4225 207.998 18.3086 207.816 18.2305C207.647 18.1523 207.471 18.1003 207.289 18.0742C207.106 18.0482 206.95 18.0286 206.82 18.0156V17.3711H214.847V20.5645H214.242C214.196 20.4212 214.115 20.2129 213.998 19.9395C213.88 19.666 213.747 19.4089 213.597 19.168C213.448 18.9076 213.282 18.6829 213.099 18.4941C212.923 18.2988 212.738 18.1882 212.543 18.1621C212.36 18.1426 212.139 18.1296 211.879 18.123C211.618 18.11 211.397 18.1035 211.214 18.1035H210.179V25.2617C210.179 25.4831 210.225 25.6654 210.316 25.8086C210.407 25.9518 210.544 26.0625 210.726 26.1406C210.869 26.2057 211.039 26.2546 211.234 26.2871C211.436 26.3197 211.625 26.3424 211.8 26.3555V27ZM220.286 25.877C220.286 26.2415 220.152 26.554 219.885 26.8145C219.625 27.0684 219.312 27.1953 218.948 27.1953C218.583 27.1953 218.267 27.0684 218 26.8145C217.74 26.554 217.61 26.2415 217.61 25.877C217.61 25.5124 217.74 25.1999 218 24.9395C218.267 24.6725 218.583 24.5391 218.948 24.5391C219.312 24.5391 219.625 24.6725 219.885 24.9395C220.152 25.1999 220.286 25.5124 220.286 25.877ZM238.672 22.752C238.672 21.8665 238.372 21.1634 237.773 20.6426C237.181 20.1152 236.393 19.8516 235.41 19.8516C234.961 19.8516 234.603 19.8581 234.336 19.8711C234.076 19.8776 233.877 19.8841 233.74 19.8906V24.9688C233.74 25.3984 233.867 25.7174 234.121 25.9258C234.375 26.1276 234.876 26.2285 235.625 26.2285C236.615 26.2285 237.37 25.9323 237.891 25.3398C238.411 24.7409 238.672 23.8783 238.672 22.752ZM241.094 22.918C241.094 23.6146 240.954 24.2266 240.674 24.7539C240.4 25.2812 240.029 25.7109 239.561 26.043C239.118 26.362 238.617 26.6029 238.057 26.7656C237.503 26.9219 236.93 27 236.338 27H229.775V26.3066C229.932 26.2936 230.16 26.2676 230.459 26.2285C230.758 26.1829 230.973 26.1309 231.104 26.0723C231.305 25.9811 231.449 25.8607 231.533 25.7109C231.618 25.5547 231.66 25.3561 231.66 25.1152V15.1543C231.66 14.9329 231.621 14.7376 231.543 14.5684C231.471 14.3991 231.325 14.2624 231.104 14.1582C230.908 14.0605 230.69 13.9857 230.449 13.9336C230.208 13.8815 230.007 13.849 229.844 13.8359V13.1426H240.254V16.5312H239.521C239.385 16.0169 239.098 15.4798 238.662 14.9199C238.232 14.3535 237.826 14.0443 237.441 13.9922C237.24 13.9661 236.999 13.9466 236.719 13.9336C236.439 13.9206 236.12 13.9141 235.762 13.9141H233.74V19.0312C234.059 19.0247 234.378 19.0182 234.697 19.0117C235.016 19.0052 235.326 19.002 235.625 19.002C236.361 19.002 237.057 19.0703 237.715 19.207C238.379 19.3372 238.965 19.5586 239.473 19.8711C239.974 20.1771 240.368 20.584 240.654 21.0918C240.947 21.5931 241.094 22.2018 241.094 22.918ZM252.577 18.5137C252.961 18.9694 253.257 19.5 253.466 20.1055C253.68 20.7044 253.788 21.3913 253.788 22.166C253.788 22.9277 253.661 23.6243 253.407 24.2559C253.153 24.8809 252.818 25.4147 252.401 25.8574C251.965 26.3066 251.48 26.6517 250.946 26.8926C250.412 27.1335 249.846 27.2539 249.247 27.2539C248.667 27.2539 248.192 27.1888 247.821 27.0586C247.45 26.9284 247.147 26.7754 246.913 26.5996H246.835V29.4902C246.835 29.7246 246.88 29.9199 246.971 30.0762C247.063 30.2324 247.203 30.3464 247.391 30.418C247.548 30.4766 247.769 30.5319 248.055 30.584C248.348 30.6426 248.589 30.6751 248.778 30.6816V31.3359H243.397V30.6816C243.599 30.6686 243.794 30.6523 243.983 30.6328C244.172 30.6133 244.341 30.5807 244.491 30.5352C244.686 30.4701 244.823 30.3561 244.901 30.1934C244.979 30.0306 245.018 29.8385 245.018 29.6172V19.373C245.018 19.1777 244.97 18.9889 244.872 18.8066C244.774 18.6243 244.647 18.4779 244.491 18.3672C244.374 18.2891 244.211 18.2305 244.003 18.1914C243.794 18.1458 243.593 18.1165 243.397 18.1035V17.4688L246.679 17.2539L246.815 17.3711V18.4551L246.893 18.4746C247.232 18.084 247.652 17.7585 248.153 17.498C248.654 17.2376 249.152 17.1074 249.647 17.1074C250.246 17.1074 250.793 17.2344 251.288 17.4883C251.789 17.7422 252.219 18.084 252.577 18.5137ZM250.985 25.4375C251.246 25.0339 251.438 24.5651 251.561 24.0312C251.685 23.4974 251.747 22.9017 251.747 22.2441C251.747 21.7624 251.695 21.2708 251.591 20.7695C251.486 20.2682 251.324 19.832 251.102 19.4609C250.881 19.0833 250.591 18.7773 250.233 18.543C249.875 18.3086 249.445 18.1914 248.944 18.1914C248.462 18.1914 248.052 18.2988 247.714 18.5137C247.375 18.722 247.082 18.9727 246.835 19.2656V24.959C246.893 25.1348 246.988 25.3171 247.118 25.5059C247.255 25.6947 247.404 25.8574 247.567 25.9941C247.769 26.1569 247.987 26.2904 248.221 26.3945C248.456 26.4922 248.742 26.541 249.081 26.541C249.445 26.541 249.797 26.4466 250.136 26.2578C250.474 26.0625 250.757 25.7891 250.985 25.4375ZM264.959 24.7344C264.555 25.5026 264.015 26.1146 263.337 26.5703C262.66 27.026 261.882 27.2539 261.004 27.2539C260.229 27.2539 259.548 27.1172 258.962 26.8438C258.383 26.5703 257.905 26.1992 257.527 25.7305C257.149 25.2617 256.866 24.7148 256.677 24.0898C256.495 23.4648 256.404 22.804 256.404 22.1074C256.404 21.4824 256.502 20.8704 256.697 20.2715C256.899 19.666 257.192 19.1224 257.576 18.6406C257.947 18.1784 258.406 17.8073 258.953 17.5273C259.506 17.2409 260.125 17.0977 260.808 17.0977C261.511 17.0977 262.114 17.2083 262.615 17.4297C263.116 17.651 263.523 17.9538 263.836 18.3379C264.135 18.7025 264.356 19.1322 264.5 19.627C264.649 20.1217 264.724 20.6589 264.724 21.2383V21.8828H258.347C258.347 22.5143 258.406 23.0872 258.523 23.6016C258.647 24.1159 258.839 24.5684 259.099 24.959C259.353 25.3366 259.685 25.6361 260.095 25.8574C260.505 26.0723 260.994 26.1797 261.56 26.1797C262.14 26.1797 262.638 26.0462 263.054 25.7793C263.477 25.5059 263.884 25.0176 264.275 24.3145L264.959 24.7344ZM262.8 21.0625C262.8 20.6979 262.768 20.3073 262.703 19.8906C262.644 19.474 262.546 19.1257 262.41 18.8457C262.26 18.5462 262.055 18.3021 261.795 18.1133C261.534 17.9245 261.199 17.8301 260.789 17.8301C260.105 17.8301 259.535 18.1165 259.08 18.6895C258.63 19.2559 258.386 20.0469 258.347 21.0625H262.8ZM271.725 27.2539C270.332 27.2539 269.241 26.7917 268.454 25.8672C267.666 24.9427 267.272 23.7025 267.272 22.1465C267.272 21.4694 267.376 20.8379 267.584 20.252C267.799 19.6595 268.108 19.1224 268.512 18.6406C268.896 18.1784 269.378 17.8073 269.957 17.5273C270.537 17.2409 271.168 17.0977 271.852 17.0977C272.796 17.0977 273.564 17.3255 274.157 17.7812C274.749 18.2305 275.045 18.8457 275.045 19.627C275.045 19.9525 274.967 20.2422 274.811 20.4961C274.655 20.7435 274.398 20.8672 274.039 20.8672C273.655 20.8672 273.356 20.7695 273.141 20.5742C272.933 20.3789 272.829 20.1608 272.829 19.9199C272.829 19.627 272.868 19.3275 272.946 19.0215C273.024 18.709 273.069 18.4811 273.082 18.3379C272.965 18.1361 272.789 18.0026 272.555 17.9375C272.327 17.8659 272.08 17.8301 271.813 17.8301C271.5 17.8301 271.201 17.8984 270.914 18.0352C270.635 18.1654 270.361 18.4095 270.094 18.7676C269.853 19.0931 269.658 19.5326 269.508 20.0859C269.358 20.6393 269.284 21.3001 269.284 22.0684C269.284 23.2793 269.551 24.2689 270.084 25.0371C270.625 25.7988 271.331 26.1797 272.204 26.1797C272.835 26.1797 273.362 26.0267 273.786 25.7207C274.215 25.4147 274.612 24.9557 274.977 24.3438L275.602 24.7539C275.172 25.5221 274.606 26.1309 273.903 26.5801C273.2 27.0293 272.474 27.2539 271.725 27.2539ZM286.05 20.457H285.454C285.396 20.2747 285.308 20.0599 285.191 19.8125C285.08 19.5651 284.956 19.3307 284.82 19.1094C284.676 18.8685 284.514 18.6569 284.331 18.4746C284.155 18.2858 283.97 18.1784 283.775 18.1523C283.573 18.1328 283.348 18.1198 283.101 18.1133C282.853 18.1003 282.642 18.0938 282.466 18.0938V25.2617C282.466 25.4831 282.512 25.6654 282.603 25.8086C282.694 25.9518 282.831 26.0625 283.013 26.1406C283.156 26.2057 283.319 26.2546 283.501 26.2871C283.683 26.3197 283.863 26.3424 284.038 26.3555V27H279.136V26.3555C279.286 26.3424 279.455 26.3294 279.644 26.3164C279.839 26.3034 279.995 26.2773 280.113 26.2383C280.295 26.1797 280.428 26.0788 280.513 25.9355C280.604 25.7858 280.65 25.5938 280.65 25.3594V18.0938C280.441 18.1003 280.207 18.11 279.946 18.123C279.686 18.1296 279.481 18.1393 279.331 18.1523C279.162 18.1654 278.98 18.2728 278.784 18.4746C278.596 18.6764 278.43 18.888 278.286 19.1094C278.15 19.3307 278.023 19.5781 277.905 19.8516C277.788 20.1185 277.707 20.3203 277.661 20.457H277.066V17.3711H286.05V20.457Z" fill="#B6A56E"/>
<path d="M11 0C4.93471 0 0 4.78519 0 10.6667C0 12.4323 0.455231 14.1829 1.32064 15.7357L10.3985 31.6562C10.5193 31.8685 10.7496 32 11 32C11.2504 32 11.4807 31.8685 11.6015 31.6562L20.6827 15.7304C21.5448 14.1829 22 12.4323 22 10.6666C22 4.78519 17.0653 0 11 0ZM19.4762 15.0905L11 29.9557L2.52714 15.0964C1.77317 13.7435 1.37504 12.2116 1.37504 10.6667C1.37504 5.52019 5.69275 1.33337 11 1.33337C16.3073 1.33337 20.625 5.52025 20.625 10.6667C20.625 12.2116 20.2268 13.7435 19.4762 15.0905Z" fill="#B6A56E"/>
<path d="M11 5.33329C7.96737 5.33329 5.50005 7.72586 5.50005 10.6666C5.50005 13.6074 7.96737 16 11 16C14.0327 16 16.5 13.6074 16.5 10.6667C16.5 7.72592 14.0327 5.33329 11 5.33329ZM11 14.6667C8.72534 14.6667 6.87502 12.8724 6.87502 10.6667C6.87502 8.46092 8.72534 6.66667 11 6.66667C13.2747 6.66667 15.125 8.46092 15.125 10.6667C15.125 12.8724 13.2747 14.6667 11 14.6667Z" fill="#B6A56E"/>
</svg>
