<svg width="130" height="130" viewBox="0 0 130 130" fill="none" xmlns="http://www.w3.org/2000/svg">
<path d="M58.4803 0.363418C57.9816 0.483589 55.5314 0.91277 53.036 1.3165C6.16986 8.90501 -15.9972 65.9725 13.0173 104.341C22.0528 116.29 42.8026 129.819 43.8302 124.432C43.9589 123.759 42.7237 122.908 39.6579 121.556C27.0803 116.011 15.6988 105.085 9.48889 92.5971C-13.0654 47.2412 25.5225 -4.08467 75.9122 4.24677C83.4819 5.49879 84.7966 2.88937 77.3781 1.33662C74.0016 0.629807 60.3021 -0.0752335 58.4803 0.364011V0.363418ZM58.7828 13.7379C49.9216 15.0414 38.5187 19.5706 38.5187 21.7869C38.5187 23.5066 39.7984 23.3734 44.4754 21.1672C70.0937 9.08438 101.283 22.3049 110.563 49.1805C125.988 93.8527 75.0672 131.668 36.4017 104.254C14.916 89.021 9.96151 58.7646 25.3855 36.9782C29.4784 31.197 27.3246 28.7527 23.1451 34.4362C-2.60598 69.4562 24.2796 118.921 67.7241 116.452C111.58 113.96 132.549 61.4995 102.37 29.7756C91.306 18.1457 73.4578 11.5784 58.7834 13.7367L58.7828 13.7379ZM111.511 21.6247C110.611 22.5228 111.298 24.13 114.178 27.8647C135.526 55.5514 128.536 96.9356 99.2249 116.406C86.017 125.179 74.4202 127.611 52.7342 126.155C50.6919 126.018 50.3141 126.174 50.3141 127.157C50.3141 131.619 76.271 130.409 89.1409 125.346C126.88 110.498 141.759 62.571 119.011 29.1316C114.695 22.7868 112.524 20.6137 111.51 21.6253L111.511 21.6247ZM47.2317 44.2316C46.159 45.4144 46.067 46.8014 45.9028 64.2753C45.633 93.002 42.7688 92.1336 77.5151 73.8599C94.4489 64.9537 94.5438 65.2331 70.2568 52.5151C51.2683 42.5717 49.3606 41.8851 47.2317 44.2316ZM68.2163 55.0997C86.6657 64.7193 86.7618 64.779 85.4714 65.8482C84.0245 67.0475 51.1259 84.0241 50.2501 84.0241C49.5468 84.0241 49.4068 80.8671 49.4068 65.0028C49.4068 51.6603 49.6043 45.9809 50.0674 45.9809C50.4303 45.9809 58.5978 50.0845 68.2169 55.0997H68.2163Z" fill="black"/>
</svg>
