<svg width="385" height="151" viewBox="0 0 385 151" fill="none" xmlns="http://www.w3.org/2000/svg">
<path d="M29 21.5H367V136.5H29V21.5Z" fill="#735517"/>
<g filter="url(#filter0_d_89_24)">
<rect x="14" y="9" width="338" height="115" fill="#F9F5C6"/>
</g>
<path d="M68.5859 53.5156H77.4531V54.2383C76.5417 54.3164 75.793 54.6484 75.207 55.2344C74.6341 55.8203 73.8854 57.0247 72.9609 58.8477L64.7188 75.0195C63.4297 77.5456 62.3099 79.1081 61.3594 79.707C60.4219 80.306 59.3021 80.6055 58 80.6055C56.5807 80.6055 55.5065 80.2214 54.7773 79.4531C54.0612 78.6849 53.7031 77.8255 53.7031 76.875C53.7031 76.1068 53.957 75.4753 54.4648 74.9805C54.9857 74.4727 55.6172 74.2188 56.3594 74.2188C57.0625 74.2188 57.5768 74.401 57.9023 74.7656C58.2279 75.1302 58.4557 75.7878 58.5859 76.7383C58.7422 77.8581 59.2044 78.418 59.9727 78.418C60.8841 78.418 61.7565 77.5456 62.5898 75.8008L62.9609 75.0195L53.4883 57.8125C52.681 56.3672 51.9779 55.4297 51.3789 55C50.793 54.5703 49.9336 54.3164 48.8008 54.2383V53.5156H62.0039V54.2383H61.4961C59.9596 54.2383 59.1914 54.6029 59.1914 55.332C59.1914 55.6055 59.3346 56.0091 59.6211 56.543L66.2422 68.6133L71.2617 58.7305C71.9518 57.3763 72.2969 56.4062 72.2969 55.8203C72.2969 55.3776 72.0951 55.013 71.6914 54.7266C71.2878 54.4401 70.2526 54.2773 68.5859 54.2383V53.5156ZM84.2891 70.1758C86.5547 70.7487 87.9935 71.4844 88.6055 72.3828C89.2174 73.2682 89.5234 74.1992 89.5234 75.1758C89.5234 76.6862 88.8854 77.9622 87.6094 79.0039C86.3333 80.0326 84.5039 80.5469 82.1211 80.5469C78.8659 80.5469 76.5156 79.2839 75.0703 76.7578L75.6758 76.4062C77.1732 77.8776 78.6966 78.6133 80.2461 78.6133C81.4049 78.6133 82.3294 78.2617 83.0195 77.5586C83.7096 76.8424 84.0547 75.8854 84.0547 74.6875C84.0547 72.4219 82.707 71.2109 80.0117 71.0547V69.8242C82.3685 69.8242 83.5469 68.6198 83.5469 66.2109C83.5469 65.0911 83.2734 64.2057 82.7266 63.5547C82.1927 62.9036 81.4635 62.5781 80.5391 62.5781C78.5729 62.5781 77.3164 64.0169 76.7695 66.8945H76.0273L76.3008 61.1914H77.043C77.2643 61.7122 77.5378 61.9727 77.8633 61.9727C77.9935 61.9727 78.3125 61.9076 78.8203 61.7773C80.2396 61.3867 81.4766 61.1914 82.5312 61.1914C84.3151 61.1914 85.7669 61.6016 86.8867 62.4219C88.0195 63.2422 88.5859 64.349 88.5859 65.7422C88.5859 67.9688 87.1536 69.4466 84.2891 70.1758ZM92.0039 80V79.2773C92.7591 79.2773 93.2865 79.0885 93.5859 78.7109C93.8984 78.3203 94.0547 77.5846 94.0547 76.5039V65.293C94.0547 64.1471 93.9049 63.3919 93.6055 63.0273C93.306 62.6497 92.7721 62.4609 92.0039 62.4609V61.7383H101.301V62.4609C100.65 62.487 100.188 62.6562 99.9141 62.9688C99.6536 63.2812 99.5234 63.9909 99.5234 65.0977V69.9219H104.758V65.0977C104.758 64.1862 104.66 63.5221 104.465 63.1055C104.27 62.6758 103.781 62.4609 103 62.4609V61.7383H112.277V62.4609C111.522 62.4609 110.988 62.6497 110.676 63.0273C110.376 63.3919 110.227 64.0104 110.227 64.8828V76.5039C110.227 77.6497 110.376 78.3919 110.676 78.7305C110.975 79.069 111.509 79.2513 112.277 79.2773V80H103V79.2773C103.651 79.2643 104.107 79.1146 104.367 78.8281C104.628 78.5286 104.758 77.7995 104.758 76.6406V71.1523H99.5234V76.5039C99.5234 77.6628 99.6536 78.418 99.9141 78.7695C100.188 79.1081 100.65 79.2773 101.301 79.2773V80H92.0039ZM125.109 77.3047C122.883 79.2708 120.884 80.2539 119.113 80.2539C118.072 80.2539 117.206 79.9154 116.516 79.2383C115.826 78.5482 115.48 77.6888 115.48 76.6602C115.48 75.2669 116.079 74.0169 117.277 72.9102C118.475 71.7904 121.086 70.306 125.109 68.457V66.6211C125.109 65.2409 125.031 64.375 124.875 64.0234C124.732 63.6589 124.452 63.3464 124.035 63.0859C123.618 62.8125 123.15 62.6758 122.629 62.6758C121.783 62.6758 121.086 62.8646 120.539 63.2422C120.201 63.4766 120.031 63.75 120.031 64.0625C120.031 64.3359 120.214 64.6745 120.578 65.0781C121.073 65.638 121.32 66.1784 121.32 66.6992C121.32 67.3372 121.079 67.8841 120.598 68.3398C120.129 68.7826 119.51 69.0039 118.742 69.0039C117.922 69.0039 117.232 68.7565 116.672 68.2617C116.125 67.7669 115.852 67.1875 115.852 66.5234C115.852 65.5859 116.223 64.694 116.965 63.8477C117.707 62.9883 118.742 62.3307 120.07 61.875C121.398 61.4193 122.779 61.1914 124.211 61.1914C125.943 61.1914 127.31 61.5625 128.312 62.3047C129.328 63.0339 129.986 63.8281 130.285 64.6875C130.467 65.2344 130.559 66.4909 130.559 68.457V75.5469C130.559 76.3802 130.591 76.9076 130.656 77.1289C130.721 77.3372 130.819 77.4935 130.949 77.5977C131.079 77.7018 131.229 77.7539 131.398 77.7539C131.737 77.7539 132.082 77.513 132.434 77.0312L133.02 77.5C132.368 78.4635 131.691 79.1667 130.988 79.6094C130.298 80.0391 129.51 80.2539 128.625 80.2539C127.583 80.2539 126.77 80.013 126.184 79.5312C125.598 79.0365 125.24 78.2943 125.109 77.3047ZM125.109 75.8789V69.7656C123.534 70.6901 122.362 71.6797 121.594 72.7344C121.086 73.4375 120.832 74.1471 120.832 74.8633C120.832 75.4622 121.047 75.9896 121.477 76.4453C121.802 76.7969 122.258 76.9727 122.844 76.9727C123.495 76.9727 124.25 76.6081 125.109 75.8789ZM137.668 80V79.2773C138.449 79.2773 138.983 79.0755 139.27 78.6719C139.569 78.2682 139.719 77.4674 139.719 76.2695V62.9688H137.902C136.626 62.9688 135.741 63.1966 135.246 63.6523C134.751 64.1081 134.361 65.0586 134.074 66.5039H133.352V61.7383H151.555V66.5039H150.832C150.598 65.2018 150.253 64.2904 149.797 63.7695C149.341 63.2357 148.423 62.9688 147.043 62.9688H145.188V76.2695C145.188 77.5065 145.331 78.3138 145.617 78.6914C145.917 79.069 146.457 79.2643 147.238 79.2773V80H137.668ZM153.781 80V79.2773C154.536 79.1732 155.044 78.9258 155.305 78.5352C155.578 78.1315 155.715 77.3958 155.715 76.3281V65.293C155.715 64.3034 155.572 63.6133 155.285 63.2227C155.012 62.832 154.51 62.5781 153.781 62.4609V61.7383H163.117V62.4609C162.336 62.5781 161.815 62.8516 161.555 63.2812C161.307 63.6979 161.184 64.4596 161.184 65.5664V69.9219H162.59C165.767 69.9219 168.163 70.3776 169.777 71.2891C171.392 72.1875 172.199 73.4375 172.199 75.0391C172.199 76.5495 171.483 77.7539 170.051 78.6523C168.618 79.5508 166.496 80 163.684 80H153.781ZM161.184 71.1523V76.8359C161.184 77.7214 161.327 78.2682 161.613 78.4766C161.913 78.6849 162.271 78.7891 162.688 78.7891C163.703 78.7891 164.582 78.444 165.324 77.7539C166.079 77.0508 166.457 76.1068 166.457 74.9219C166.457 72.4089 164.699 71.1523 161.184 71.1523ZM201.027 52.9102H201.691C201.561 53.8867 200.969 55.026 199.914 56.3281C198.872 57.6302 197.427 58.2812 195.578 58.2812C195.305 58.2812 194.862 58.2552 194.25 58.2031C193.703 58.1641 193.28 58.1445 192.98 58.1445C191.327 58.1445 189.868 58.7565 188.605 59.9805C187.342 61.1914 186.613 63.1901 186.418 65.9766C188.098 62.7865 190.428 61.1914 193.41 61.1914C195.806 61.1914 197.837 62.0768 199.504 63.8477C201.171 65.6055 202.004 67.9557 202.004 70.8984C202.004 73.5417 201.268 75.8138 199.797 77.7148C198.339 79.6029 196.229 80.5469 193.469 80.5469C190.786 80.5469 188.684 79.6029 187.16 77.7148C185.637 75.8138 184.875 72.9102 184.875 69.0039C184.875 65.9831 185.292 63.1966 186.125 60.6445C186.958 58.0794 188.104 56.2305 189.562 55.0977C191.034 53.9648 193.234 53.3984 196.164 53.3984C196.503 53.3984 196.906 53.4115 197.375 53.4375C197.961 53.4766 198.378 53.4961 198.625 53.4961C199.38 53.4961 200.181 53.3008 201.027 52.9102ZM193.449 62.5586C192.342 62.5586 191.594 63.2096 191.203 64.5117C190.826 65.8008 190.637 67.9557 190.637 70.9766C190.637 74.3359 190.839 76.5495 191.242 77.6172C191.646 78.6719 192.395 79.1992 193.488 79.1992C194.152 79.1992 194.712 78.9193 195.168 78.3594C195.637 77.7995 195.936 76.901 196.066 75.6641C196.21 74.4271 196.281 72.207 196.281 69.0039C196.281 66.9857 196.099 65.4102 195.734 64.2773C195.37 63.1315 194.608 62.5586 193.449 62.5586ZM212.863 61.1914C214.452 61.1914 215.93 61.6016 217.297 62.4219C218.664 63.2422 219.699 64.4076 220.402 65.918C221.118 67.4284 221.477 69.082 221.477 70.8789C221.477 73.4701 220.819 75.638 219.504 77.3828C217.915 79.4922 215.721 80.5469 212.922 80.5469C210.174 80.5469 208.059 79.5833 206.574 77.6562C205.09 75.7292 204.348 73.4961 204.348 70.957C204.348 68.3398 205.103 66.0612 206.613 64.1211C208.137 62.168 210.22 61.1914 212.863 61.1914ZM212.941 62.5781C212.277 62.5781 211.704 62.832 211.223 63.3398C210.754 63.8346 210.441 64.8242 210.285 66.3086C210.142 67.7799 210.07 69.8307 210.07 72.4609C210.07 73.8542 210.161 75.1562 210.344 76.3672C210.487 77.2917 210.793 77.9948 211.262 78.4766C211.73 78.9583 212.264 79.1992 212.863 79.1992C213.449 79.1992 213.938 79.0365 214.328 78.7109C214.836 78.2682 215.174 77.6497 215.344 76.8555C215.604 75.6185 215.734 73.1185 215.734 69.3555C215.734 67.1419 215.611 65.625 215.363 64.8047C215.116 63.9714 214.751 63.3659 214.27 62.9883C213.931 62.7148 213.488 62.5781 212.941 62.5781ZM233.664 80V79.2773C234.315 79.2643 234.849 79.1081 235.266 78.8086C235.695 78.4961 235.91 77.806 235.91 76.7383V62.9688H230.754V70.957C230.754 73.8346 230.611 75.8203 230.324 76.9141C230.038 78.0078 229.484 78.8477 228.664 79.4336C227.844 80.0195 226.971 80.3125 226.047 80.3125C225.005 80.3125 224.165 80 223.527 79.375C222.902 78.737 222.59 78.0078 222.59 77.1875C222.59 76.3932 222.818 75.7487 223.273 75.2539C223.742 74.7461 224.341 74.4922 225.07 74.4922C226.464 74.4922 227.16 75.3385 227.16 77.0312C227.16 77.7995 227.31 78.1836 227.609 78.1836C228.182 78.1836 228.625 77.7083 228.938 76.7578C229.25 75.8073 229.406 73.8737 229.406 70.957V65.6445C229.406 64.4466 229.243 63.6263 228.918 63.1836C228.592 62.7409 228.033 62.5 227.238 62.4609V61.7383H243.332V62.4609C242.03 62.487 241.379 63.3073 241.379 64.9219V76.6602C241.379 77.5586 241.516 78.2161 241.789 78.6328C242.062 79.0365 242.577 79.2513 243.332 79.2773V80H233.664ZM246.32 80V79.2773C247.076 79.1732 247.583 78.9258 247.844 78.5352C248.117 78.1315 248.254 77.3958 248.254 76.3281V65.293C248.254 64.3034 248.111 63.6133 247.824 63.2227C247.551 62.832 247.049 62.5781 246.32 62.4609V61.7383H255.656V62.4609C254.875 62.5781 254.354 62.8516 254.094 63.2812C253.846 63.6979 253.723 64.4596 253.723 65.5664V69.9219H255.129C258.306 69.9219 260.702 70.3776 262.316 71.2891C263.931 72.1875 264.738 73.4375 264.738 75.0391C264.738 76.5495 264.022 77.7539 262.59 78.6523C261.158 79.5508 259.035 80 256.223 80H246.32ZM253.723 71.1523V76.8359C253.723 77.7214 253.866 78.2682 254.152 78.4766C254.452 78.6849 254.81 78.7891 255.227 78.7891C256.242 78.7891 257.121 78.444 257.863 77.7539C258.618 77.0508 258.996 76.1068 258.996 74.9219C258.996 72.4089 257.238 71.1523 253.723 71.1523ZM267.375 80V79.2773C268.286 79.2773 268.853 79.0299 269.074 78.5352C269.309 78.0273 269.426 77.4023 269.426 76.6602V65.3516C269.426 64.2708 269.289 63.5286 269.016 63.125C268.755 62.7214 268.208 62.5 267.375 62.4609V61.7383H276.574V62.4609C275.936 62.5651 275.493 62.819 275.246 63.2227C275.012 63.6263 274.895 64.3359 274.895 65.3516V76.8555C274.895 77.6107 274.999 78.125 275.207 78.3984C275.415 78.6589 275.819 78.7891 276.418 78.7891H278.41C279.074 78.7891 279.523 78.6654 279.758 78.418C280.005 78.1706 280.129 77.6497 280.129 76.8555V65.6445C280.129 64.4727 280.012 63.6784 279.777 63.2617C279.556 62.8451 279.1 62.5781 278.41 62.4609V61.7383H287.297V62.4609C286.62 62.5651 286.164 62.819 285.93 63.2227C285.708 63.6263 285.598 64.388 285.598 65.5078V76.8555C285.598 77.6628 285.708 78.1901 285.93 78.4375C286.151 78.6719 286.607 78.7891 287.297 78.7891H289.152C289.816 78.7891 290.259 78.6784 290.48 78.457C290.715 78.2227 290.832 77.7148 290.832 76.9336V65.5078C290.832 64.401 290.721 63.6458 290.5 63.2422C290.292 62.8385 289.842 62.5781 289.152 62.4609V61.7383H298.371V62.4609C297.564 62.487 297.017 62.6888 296.73 63.0664C296.444 63.431 296.301 64.2448 296.301 65.5078V76.6602C296.301 77.7279 296.47 78.431 296.809 78.7695C297.16 79.1081 297.681 79.2773 298.371 79.2773V80H267.375ZM316.594 70.2148H306.574C306.691 72.6367 307.336 74.5508 308.508 75.957C309.406 77.0378 310.487 77.5781 311.75 77.5781C312.531 77.5781 313.241 77.3633 313.879 76.9336C314.517 76.4909 315.201 75.7031 315.93 74.5703L316.594 75C315.604 77.0182 314.51 78.4505 313.312 79.2969C312.115 80.1302 310.728 80.5469 309.152 80.5469C306.444 80.5469 304.393 79.5052 303 77.4219C301.88 75.7422 301.32 73.6589 301.32 71.1719C301.32 68.125 302.141 65.7031 303.781 63.9062C305.435 62.0964 307.368 61.1914 309.582 61.1914C311.431 61.1914 313.033 61.9531 314.387 63.4766C315.754 64.987 316.49 67.2331 316.594 70.2148ZM311.789 68.9062C311.789 66.8099 311.672 65.3711 311.438 64.5898C311.216 63.8086 310.865 63.2161 310.383 62.8125C310.109 62.5781 309.745 62.4609 309.289 62.4609C308.612 62.4609 308.059 62.793 307.629 63.457C306.861 64.6159 306.477 66.2044 306.477 68.2227V68.9062H311.789Z" fill="black"/>
<defs>
<filter id="filter0_d_89_24" x="14" y="9" width="347" height="124" filterUnits="userSpaceOnUse" color-interpolation-filters="sRGB">
<feFlood flood-opacity="0" result="BackgroundImageFix"/>
<feColorMatrix in="SourceAlpha" type="matrix" values="0 0 0 0 0 0 0 0 0 0 0 0 0 0 0 0 0 0 127 0" result="hardAlpha"/>
<feOffset dx="5" dy="5"/>
<feGaussianBlur stdDeviation="2"/>
<feComposite in2="hardAlpha" operator="out"/>
<feColorMatrix type="matrix" values="0 0 0 0 0 0 0 0 0 0 0 0 0 0 0 0 0 0 0.45 0"/>
<feBlend mode="normal" in2="BackgroundImageFix" result="effect1_dropShadow_89_24"/>
<feBlend mode="normal" in="SourceGraphic" in2="effect1_dropShadow_89_24" result="shape"/>
</filter>
</defs>
</svg>
