<svg width="128" height="51" viewBox="0 0 128 51" fill="none" xmlns="http://www.w3.org/2000/svg">
<path d="M56.3407 19.1809C53.6914 17.1584 47.1718 11.0871 43.0915 10.702C39.012 10.3168 35.983 12.5793 34.8059 12.7244C33.6281 12.8696 31.6925 11.1839 29.9266 10.46C28.1598 9.73814 25.5105 9.68975 21.0943 11.6174C16.6774 13.5451 6.58287 20.8192 6.1205 21.5905C5.65813 22.3608 6.58287 22.9878 7.92948 23.3246C9.27524 23.6633 9.64733 24.4007 11.9676 26.7454C12.6823 27.4683 15.1232 31.4678 16.9727 33.6354C18.823 35.803 23.0712 39.848 24.2069 39.9932C25.3417 40.1383 30.0945 37.9223 33.1649 37.7771C36.2361 37.632 40.0203 39.9932 42.5439 39.848C45.0667 39.7048 46.2876 37.8255 49.6524 33.8754C53.0181 29.9253 60 22.6482 60 22.024C60 21.3998 58.9909 21.2053 56.3407 19.1819V19.1809ZM9.92661 20.9034C9.76799 20.6228 23.9968 11.2555 26.8672 11.689C29.7384 12.1225 32.0098 14.8689 34.5959 14.8689C37.1836 14.8689 40.4008 12.4854 42.6721 12.4496C44.9435 12.4128 55.8581 21.1202 55.8893 21.4453C55.9205 21.7705 50.6531 23.4678 45.826 23.613C40.9998 23.7581 38.8542 22.7101 37.9708 22.565C37.0883 22.4198 35.794 23.5036 32.6088 23.432C29.4229 23.3585 28.2552 22.8166 27.7194 22.7808C27.1828 22.7449 22.8932 23.792 18.9192 23.8288C14.9452 23.8655 10.4649 21.8421 9.9283 20.9025L9.92661 20.9034ZM44.5646 36.3314C43.618 37.4878 42.8603 37.812 40.9053 37.5604C38.9495 37.3068 36.6782 35.175 33.0822 35.4276C29.4862 35.6792 27.0579 37.4868 24.9123 37.3436C22.7675 37.1985 18.7293 32.5371 16.9001 30.1169C15.0709 27.6957 12.5152 24.3716 12.6097 24.1558C12.7194 23.9023 14.849 25.5638 19.7072 25.2745C24.5655 24.9842 25.8902 24.8052 25.8902 24.8052C25.8902 24.8052 29.012 26.249 33.5243 26.0322C38.0349 25.8155 38.6036 25.4545 38.6964 25.4545C38.7918 25.4545 43.4922 25.7806 48.4129 24.7694C53.3336 23.7581 56.2681 22.892 56.4875 22.9985C56.7094 23.1069 45.5096 35.175 44.5646 36.3314ZM24.8802 13.8934C24.6608 13.8934 17.2503 18.0777 17.0891 18.4464C16.9322 18.8074 17.5312 19.2399 17.8147 19.2051C18.0999 19.1693 25.6387 15.0866 25.7332 15.0498C25.8277 15.0131 25.1021 13.8934 24.881 13.8934H24.8802ZM23.461 26.2509C21.9001 27.6057 20.6683 31.1823 20.5906 31.5074C20.513 31.8326 21.3162 32.1219 21.3956 32.0852C21.4749 32.0484 21.6799 31.2365 22.1845 29.8091C22.6882 28.3818 24.0128 27.027 24.0913 26.9002C24.1715 26.7744 23.553 26.1716 23.461 26.2509ZM26.8048 27.0812C25.6531 28.6179 24.8962 33.0441 24.8178 33.4583C24.7401 33.8744 25.1654 33.6035 25.2919 33.6035C25.4185 33.6035 25.3864 33.2425 25.7332 31.7968C26.08 30.351 27.4528 27.3163 27.5624 27.1905C27.6721 27.0647 26.9296 26.9177 26.8056 27.0822L26.8048 27.0812ZM30.0869 27.3173C30.0549 27.4799 29.7241 31.9961 29.7545 32.1229C29.7857 32.2487 30.07 32.1955 30.1485 32.1035C30.2261 32.0145 30.7788 27.4615 30.7155 27.3522C30.6522 27.2428 30.108 27.1993 30.0852 27.3173H30.0869ZM35.2278 27.6425C35.1637 27.5525 34.5554 27.5554 34.5174 27.5883C34.4077 27.6783 34.5486 28.1495 34.9274 29.2682C35.3071 30.3878 35.1806 31.9971 35.1806 32.1771C35.1806 32.358 35.432 32.2313 35.5586 32.1229C35.6851 32.0145 35.7796 31.4552 35.7324 30.172C35.6843 28.8889 35.2894 27.7334 35.2261 27.6425H35.2278ZM39.6271 27.3173C39.406 27.3173 39.1225 27.4257 38.9808 27.7692C38.839 28.1137 39.3605 28.7098 39.9274 29.5953C40.4953 30.4807 40.7315 32.2506 40.8269 32.4132C40.9214 32.5748 41.0631 32.4664 41.1424 32.3039C41.2209 32.1413 41.269 31.401 40.8269 29.6659C40.3839 27.9337 39.741 27.3173 39.6271 27.3173ZM43.7909 27.0464C43.6323 27.0822 43.2062 27.5157 43.1919 27.7508C43.175 27.986 43.5851 28.4737 44.0744 29.0514C44.5638 29.6291 44.7207 31.5094 44.7832 31.7803C44.8473 32.0513 44.9266 31.9603 45.1156 31.8152C45.3046 31.67 45.2573 31.2007 45.0683 29.5391C44.8785 27.8776 43.9968 26.9989 43.7901 27.0464H43.7909ZM47.2756 26.6128C47.4806 26.8296 47.5911 28.2211 47.6696 28.5095C47.7489 28.7998 48.0636 28.4369 48.2214 28.2386C48.38 28.0402 48.0948 26.5403 48.0172 26.4677C47.9396 26.3961 47.2148 26.547 47.2756 26.6128Z" fill="#B09E66"/>
<path d="M78.9759 37.735C77.8392 37.735 76.7852 37.4767 75.8139 36.96C74.8632 36.4433 74.0159 35.7407 73.2719 34.852C72.5279 33.984 71.9079 33.0023 71.4119 31.907C70.9986 30.977 70.6576 30.0367 70.3889 29.086C70.1409 28.1353 69.9549 27.2467 69.8309 26.42C69.7069 25.5933 69.6449 24.9113 69.6449 24.374C69.6449 23.7127 69.7172 23.3407 69.8619 23.258C70.2546 23.2993 70.9056 23.134 71.8149 22.762C72.7449 22.39 73.8402 21.8423 75.1009 21.119C76.3822 20.3957 77.7566 19.5277 79.2239 18.515C80.7119 17.4817 82.1999 16.3243 83.6879 15.043C85.1966 13.7617 86.6432 12.377 88.0279 10.889C89.4126 9.401 90.6319 7.84067 91.6859 6.208C91.9339 5.81533 92.1716 5.619 92.3989 5.619C92.5849 5.619 92.6779 5.73267 92.6779 5.96C92.6779 6.146 92.6056 6.35267 92.4609 6.58C91.4689 8.23333 90.2909 9.85567 88.9269 11.447C87.5629 13.0177 86.1059 14.4953 84.5559 15.88C83.0059 17.2647 81.4456 18.515 79.8749 19.631C78.3249 20.747 76.8369 21.677 75.4109 22.421C74.0056 23.165 72.7656 23.6713 71.6909 23.94C71.6289 23.8987 71.5979 24.002 71.5979 24.25C71.5979 24.6013 71.6702 25.1697 71.8149 25.955C71.9596 26.7197 72.1766 27.598 72.4659 28.59C72.7759 29.5613 73.1479 30.5533 73.5819 31.566C74.2432 33.116 75.0286 34.3043 75.9379 35.131C76.8679 35.9783 77.9322 36.402 79.1309 36.402C79.9369 36.402 80.7636 36.278 81.6109 36.03C82.4582 35.8027 83.2332 35.441 83.9359 34.945C84.6386 34.4697 85.1862 33.86 85.5789 33.116C85.7029 32.8267 85.8476 32.682 86.0129 32.682C86.0956 32.682 86.1369 32.744 86.1369 32.868C86.1369 33.0127 86.0852 33.178 85.9819 33.364C85.6099 34.1287 85.0416 34.8417 84.2769 35.503C83.5122 36.1643 82.6546 36.7017 81.7039 37.115C80.7739 37.5283 79.8646 37.735 78.9759 37.735ZM52.7499 37.332C51.3446 37.332 49.9806 37.1357 48.6579 36.743C47.3559 36.371 46.1779 35.813 45.1239 35.069C44.0906 34.325 43.2639 33.4157 42.6439 32.341C42.0446 31.2663 41.7449 30.047 41.7449 28.683C41.7449 28.311 41.7759 27.9287 41.8379 27.536C41.8999 27.1227 41.9826 26.699 42.0859 26.265C42.2926 25.521 42.6232 24.8803 43.0779 24.343C43.5532 23.785 44.0389 23.351 44.5349 23.041C45.0309 22.7103 45.4029 22.5347 45.6509 22.514H45.7439C45.9506 22.514 46.0539 22.576 46.0539 22.7C46.0539 22.8033 46.0022 22.886 45.8989 22.948C45.7129 23.0307 45.3926 23.2683 44.9379 23.661C44.5039 24.033 44.0699 24.56 43.6359 25.242C43.2019 25.9033 42.9229 26.699 42.7989 27.629C42.7369 28.0217 42.7059 28.3937 42.7059 28.745C42.7059 29.985 42.9746 31.0493 43.5119 31.938C44.0492 32.806 44.7519 33.519 45.6199 34.077C46.4879 34.635 47.4386 35.038 48.4719 35.286C49.5052 35.5547 50.5179 35.689 51.5099 35.689C51.9026 35.689 52.2849 35.6683 52.6569 35.627C53.0289 35.6063 53.3802 35.5547 53.7109 35.472C55.9429 34.976 57.8752 34.1803 59.5079 33.085C61.1612 31.9897 62.5872 30.729 63.7859 29.303C64.9846 27.877 65.9972 26.4097 66.8239 24.901C67.6712 23.3923 68.3842 21.9767 68.9629 20.654C69.0869 20.344 69.2936 19.8583 69.5829 19.197C69.8929 18.5357 70.2339 17.7813 70.6059 16.934C70.9986 16.0867 71.3912 15.229 71.7839 14.361C72.1972 13.493 72.5692 12.6973 72.8999 11.974C73.2306 11.2507 73.4992 10.6927 73.7059 10.3C72.3212 10.4653 70.8229 10.6203 69.2109 10.765C67.6196 10.889 66.1006 11.1577 64.6539 11.571C63.0419 12.0257 61.7192 12.687 60.6859 13.555C59.6732 14.423 58.9189 15.3737 58.4229 16.407C57.9476 17.4403 57.7099 18.422 57.7099 19.352C57.7099 20.3647 57.9682 21.212 58.4849 21.894C59.0016 22.576 59.7146 22.917 60.6239 22.917C61.0786 22.917 61.5642 22.824 62.0809 22.638C62.6802 22.4313 63.1762 22.0697 63.5689 21.553C63.9616 21.0157 64.2509 20.4163 64.4369 19.755C64.6436 19.073 64.7469 18.422 64.7469 17.802C64.7469 17.4713 64.7159 17.151 64.6539 16.841V16.779C64.6539 16.6963 64.6952 16.655 64.7779 16.655C64.9432 16.655 65.0879 16.779 65.2119 17.027C65.3152 17.2337 65.3772 17.461 65.3979 17.709C65.4392 17.9363 65.4599 18.1637 65.4599 18.391C65.4599 19.0523 65.3152 19.7137 65.0259 20.375C64.7366 21.0157 64.3542 21.5943 63.8789 22.111C63.4036 22.6277 62.8662 22.9997 62.2669 23.227C61.9362 23.351 61.6159 23.444 61.3059 23.506C60.9959 23.5473 60.6962 23.568 60.4069 23.568C59.5182 23.568 58.7226 23.3407 58.0199 22.886C57.3379 22.4107 56.8006 21.7907 56.4079 21.026C56.0359 20.2613 55.8499 19.4347 55.8499 18.546C55.8499 17.5333 56.1289 16.5103 56.6869 15.477C57.2449 14.423 58.1439 13.4723 59.3839 12.625C60.6239 11.757 62.2566 11.0957 64.2819 10.641C65.9766 10.269 67.7022 10.0313 69.4589 9.928C71.2156 9.804 72.7656 9.68 74.1089 9.556C74.1916 9.432 74.3569 9.19433 74.6049 8.843C74.8736 8.49167 75.1732 8.14033 75.5039 7.789C75.8552 7.417 76.1962 7.17933 76.5269 7.076C76.7542 7.014 76.9506 6.983 77.1159 6.983C77.4879 6.983 77.7772 7.08633 77.9839 7.293C78.2113 7.49966 78.3249 7.74766 78.3249 8.037C78.3249 8.45033 78.0356 8.89467 77.4569 9.37C76.8989 9.82467 75.9482 10.1243 74.6049 10.269C73.9436 11.4883 73.3339 12.842 72.7759 14.33C72.2179 15.7973 71.6599 17.337 71.1019 18.949C70.5646 20.5403 69.9652 22.142 69.3039 23.754C68.6632 25.3453 67.9296 26.885 67.1029 28.373C66.2762 29.8403 65.2946 31.1837 64.1579 32.403C63.0419 33.6223 61.7192 34.6453 60.1899 35.472C58.6812 36.2987 56.9246 36.867 54.9199 37.177C54.5686 37.2183 54.2069 37.2493 53.8349 37.27C53.4629 37.3113 53.1012 37.332 52.7499 37.332ZM75.1939 9.494C75.8346 9.39067 76.2892 9.26667 76.5579 9.122C76.8472 8.95667 77.0539 8.79133 77.1779 8.626C77.3226 8.46067 77.3949 8.316 77.3949 8.192C77.3949 7.98533 77.2916 7.882 77.0849 7.882C76.8989 7.882 76.6716 7.98533 76.4029 8.192C76.1962 8.33667 75.9792 8.54333 75.7519 8.812C75.5246 9.08067 75.3386 9.308 75.1939 9.494ZM119.939 35.565C119.629 35.5237 119.205 35.441 118.668 35.317C118.131 35.2137 117.583 34.9967 117.025 34.666C116.467 34.3353 115.992 33.829 115.599 33.147C115.206 32.4857 115.01 31.597 115.01 30.481C115.01 29.1997 115.268 27.7943 115.785 26.265C116.322 24.715 116.973 23.103 117.738 21.429C118.503 19.755 119.236 18.1017 119.939 16.469C120.497 15.167 120.776 14.175 120.776 13.493C120.776 12.811 120.518 12.47 120.001 12.47C119.422 12.47 118.554 12.935 117.397 13.865C116.26 14.7743 114.938 16.159 113.429 18.019C113.036 18.515 112.53 19.2073 111.91 20.096C111.29 20.964 110.629 21.9353 109.926 23.01C109.223 24.064 108.531 25.1387 107.849 26.234C107.188 27.3087 106.599 28.3007 106.082 29.21C105.586 30.1193 105.224 30.8427 104.997 31.38C104.728 32.0207 104.418 32.4547 104.067 32.682C103.716 32.93 103.385 33.054 103.075 33.054C102.806 33.054 102.569 32.9817 102.362 32.837C102.176 32.6923 102.083 32.5167 102.083 32.31C102.083 32.186 102.114 32.0827 102.176 32C102.3 31.752 102.631 31.1527 103.168 30.202C103.705 29.2513 104.315 27.9907 104.997 26.42C105.679 24.8287 106.33 22.9893 106.95 20.902C107.591 18.794 108.066 16.469 108.376 13.927C108.417 13.6377 108.438 13.3277 108.438 12.997C108.438 12.2737 108.314 11.7467 108.066 11.416C107.818 11.0647 107.487 10.889 107.074 10.889C106.619 10.889 106.103 11.0853 105.524 11.478C104.945 11.8707 104.356 12.439 103.757 13.183C102.724 14.485 101.814 15.694 101.029 16.81C100.244 17.9053 99.5204 19.0007 98.859 20.096C98.2184 21.1913 97.5777 22.359 96.937 23.599C96.317 24.839 95.6557 26.234 94.953 27.784C94.2504 29.3133 93.4444 31.0907 92.535 33.116C92.3904 33.4467 92.1424 33.6843 91.791 33.829C91.4604 33.9737 91.1504 34.046 90.861 34.046C90.5717 34.046 90.334 33.984 90.148 33.86C89.962 33.736 89.9 33.5603 89.962 33.333C90.4994 32.5063 91.078 31.4627 91.698 30.202C92.318 28.9413 92.938 27.567 93.558 26.079C94.1987 24.5703 94.7877 23.0513 95.325 21.522C95.883 19.972 96.3584 18.515 96.751 17.151C97.1437 15.7663 97.4124 14.5677 97.557 13.555C97.5984 13.2243 97.6294 12.9143 97.65 12.625C97.6707 12.3357 97.681 12.0567 97.681 11.788C97.681 10.1967 97.34 9.06 96.658 8.378C95.9967 7.696 95.139 7.355 94.085 7.355C93.1964 7.355 92.225 7.56167 91.171 7.975C90.1377 8.36767 89.0837 8.91533 88.009 9.618C86.955 10.3207 85.9424 11.137 84.971 12.067C83.9997 12.9763 83.142 13.958 82.398 15.012C81.654 16.0453 81.0857 17.0993 80.693 18.174C80.4244 18.9387 80.2177 19.6723 80.073 20.375C79.949 21.057 79.887 21.6977 79.887 22.297C79.887 23.4543 80.0937 24.436 80.507 25.242C80.941 26.048 81.5094 26.6577 82.212 27.071C82.9354 27.4843 83.7104 27.691 84.537 27.691C84.8264 27.691 85.1467 27.66 85.498 27.598C85.87 27.5153 86.18 27.4327 86.428 27.35C87.0274 27.1227 87.606 26.7713 88.164 26.296C88.722 25.8 89.218 25.2317 89.652 24.591C90.086 23.9503 90.427 23.2993 90.675 22.638C90.923 21.9767 91.047 21.3567 91.047 20.778C91.047 20.1787 90.8817 19.6827 90.551 19.29C90.2204 18.8973 89.6934 18.701 88.97 18.701C88.8874 18.701 88.7944 18.7113 88.691 18.732C88.6084 18.732 88.5154 18.732 88.412 18.732H88.319C88.1744 18.732 88.04 18.7113 87.916 18.67C87.792 18.608 87.73 18.5357 87.73 18.453C87.73 18.3703 87.8334 18.2773 88.04 18.174C88.2674 18.0707 88.6704 18.019 89.249 18.019C90.179 18.019 90.8714 18.298 91.326 18.856C91.8014 19.3933 92.039 20.0857 92.039 20.933C92.039 21.6977 91.8324 22.5243 91.419 23.413C91.0057 24.3017 90.3857 25.149 89.559 25.955C88.7324 26.761 87.6887 27.4223 86.428 27.939C85.684 28.2283 84.9607 28.373 84.258 28.373C83.2247 28.373 82.243 28.1147 81.313 27.598C80.383 27.0607 79.6287 26.3063 79.05 25.335C78.4714 24.343 78.182 23.1753 78.182 21.832C78.182 21.2327 78.244 20.6023 78.368 19.941C78.5127 19.259 78.74 18.5563 79.05 17.833C79.732 16.2417 80.6517 14.7743 81.809 13.431C82.987 12.067 84.289 10.889 85.715 9.897C87.141 8.88433 88.5877 8.099 90.055 7.541C91.5224 6.983 92.8864 6.704 94.147 6.704C95.6764 6.704 96.937 7.15867 97.929 8.068C98.9417 8.97733 99.448 10.4447 99.448 12.47C99.448 12.6147 99.4377 12.811 99.417 13.059C99.417 13.2863 99.4067 13.462 99.386 13.586C99.262 14.64 99.045 15.694 98.735 16.748C98.4457 17.802 98.1254 18.8147 97.774 19.786C97.712 19.9513 97.6604 20.127 97.619 20.313C97.5984 20.4783 97.588 20.592 97.588 20.654C97.588 20.7573 97.6087 20.809 97.65 20.809C97.7327 20.809 97.898 20.592 98.146 20.158C98.6214 19.29 99.045 18.5357 99.417 17.895C99.8097 17.2337 100.192 16.6343 100.564 16.097C100.936 15.5597 101.339 15.012 101.773 14.454C102.207 13.896 102.703 13.276 103.261 12.594C103.902 11.8293 104.635 11.2197 105.462 10.765C106.289 10.3103 107.084 10.083 107.849 10.083C108.531 10.083 109.11 10.3103 109.585 10.765C110.06 11.2197 110.298 11.9947 110.298 13.09C110.298 13.214 110.298 13.3173 110.298 13.4C110.298 13.4827 110.288 13.6067 110.267 13.772C110.081 15.756 109.688 17.709 109.089 19.631C108.49 21.5323 107.87 23.4543 107.229 25.397C107.87 24.405 108.738 23.1443 109.833 21.615C110.928 20.0857 112.127 18.5047 113.429 16.872C115.02 14.888 116.498 13.4 117.862 12.408C119.226 11.416 120.352 10.92 121.241 10.92C122.357 10.92 122.915 11.602 122.915 12.966C122.915 13.4827 122.812 14.1027 122.605 14.826C122.419 15.5493 122.119 16.314 121.706 17.12C121.251 18.0293 120.745 19.0833 120.187 20.282C119.65 21.46 119.133 22.7 118.637 24.002C118.141 25.304 117.728 26.5853 117.397 27.846C117.087 29.086 116.932 30.233 116.932 31.287C116.932 32.4237 117.19 33.3433 117.707 34.046C118.244 34.7693 119.164 35.1103 120.466 35.069H120.652C120.962 35.069 121.117 35.131 121.117 35.255C121.117 35.3377 121.014 35.4203 120.807 35.503C120.6 35.5857 120.311 35.6063 119.939 35.565Z" fill="#967F46"/>
</svg>
